<svg xmlns="http://www.w3.org/2000/svg" xmlns:xlink="http://www.w3.org/1999/xlink" viewBox="0 0 371 262"><defs><style>.cls-1{fill:none;}.cls-2{fill:#2848b6;}.cls-3{fill:url(#linear-gradient);}.cls-4{fill:#e4a87c;}.cls-5{fill:#18319a;}.cls-6{isolation:isolate;}.cls-7{clip-path:url(#clip-path);}.cls-8{fill:#91beff;}.cls-9{fill:url(#linear-gradient-2);}.cls-10{fill:url(#linear-gradient-3);}.cls-11{fill:url(#linear-gradient-4);}.cls-12{fill:url(#linear-gradient-5);}.cls-13{fill:url(#linear-gradient-6);}.cls-14,.cls-30,.cls-50,.cls-55,.cls-56,.cls-58,.cls-60{mix-blend-mode:multiply;}.cls-14{fill:url(#linear-gradient-7);}.cls-15{fill:url(#linear-gradient-8);}.cls-16{fill:url(#linear-gradient-9);}.cls-17{fill:url(#linear-gradient-10);}.cls-18{fill:url(#linear-gradient-11);}.cls-19{fill:#001a6b;}.cls-20{clip-path:url(#clip-path-2);}.cls-21,.cls-24{fill:#bbd4ff;}.cls-21{opacity:0.42;}.cls-22{fill:url(#linear-gradient-12);}.cls-23{clip-path:url(#clip-path-3);}.cls-25{fill:url(#linear-gradient-13);}.cls-26{fill:url(#linear-gradient-14);}.cls-27{fill:url(#linear-gradient-15);}.cls-28{fill:url(#linear-gradient-16);}.cls-29{fill:url(#linear-gradient-17);}.cls-31,.cls-42{fill:#fff;}.cls-31{opacity:0;}.cls-32{fill:#edf4ff;opacity:0.17;}.cls-33{fill:#dae9ff;opacity:0.33;}.cls-34{fill:#c8deff;opacity:0.5;}.cls-35{fill:#b6d4ff;opacity:0.67;}.cls-36{fill:#a4c9ff;opacity:0.83;}.cls-37{fill:#3480f7;}.cls-38{fill:url(#linear-gradient-18);}.cls-39{fill:url(#linear-gradient-19);}.cls-40{fill:url(#linear-gradient-20);}.cls-41{fill:url(#linear-gradient-21);}.cls-43{clip-path:url(#clip-path-4);}.cls-44{fill:#cddff5;}.cls-45{fill:url(#linear-gradient-23);}.cls-46{fill:url(#linear-gradient-24);}.cls-47{fill:url(#linear-gradient-25);}.cls-48{fill:#172180;}.cls-49{clip-path:url(#clip-path-5);}.cls-50{fill:#aaa091;}.cls-51{fill:url(#linear-gradient-26);}.cls-52{fill:#f0f4ff;}.cls-53{clip-path:url(#clip-path-6);}.cls-54{clip-path:url(#clip-path-7);}.cls-55{fill:#8eb6de;}.cls-56{fill:#162f9e;}.cls-57{clip-path:url(#clip-path-8);}.cls-58{fill:#0f1e85;}.cls-59{clip-path:url(#clip-path-9);}.cls-60{fill:url(#linear-gradient-27);}.cls-61{fill:url(#linear-gradient-28);}.cls-62{fill:url(#linear-gradient-29);}</style><linearGradient id="linear-gradient" x1="86.26" y1="214.49" x2="48.08" y2="155.31" gradientUnits="userSpaceOnUse"><stop offset="0" stop-color="#fff"/><stop offset="1" stop-color="#f0f4ff"/></linearGradient><clipPath id="clip-path"><path class="cls-1" d="M254,258l117-43v-6l-77-48s36-66,9-85-72-15-72-15-35-78-69-75-61,28-55,65c0,0-62,3-51,48,0,0-23,13-23,54,0,0-31-18-36-2s0,81,0,81H183Z"/></clipPath><linearGradient id="linear-gradient-2" x1="303.48" y1="84.47" x2="262.7" y2="110.26" gradientUnits="userSpaceOnUse"><stop offset="0.04" stop-color="#bbd4ff"/><stop offset="1" stop-color="#91beff"/></linearGradient><linearGradient id="linear-gradient-3" x1="946.52" y1="-6082.6" x2="1062.25" y2="-5996.72" gradientTransform="translate(2885.39 5503.58) rotate(-35.8)" xlink:href="#linear-gradient-2"/><linearGradient id="linear-gradient-4" x1="1132.56" y1="-5975.97" x2="768.19" y2="-5964.95" gradientTransform="translate(2885.39 5503.58) rotate(-35.8)" xlink:href="#linear-gradient-2"/><linearGradient id="linear-gradient-5" x1="122.19" y1="37.86" x2="154.93" y2="37.86" xlink:href="#linear-gradient-2"/><linearGradient id="linear-gradient-6" x1="134.96" y1="51.44" x2="163.52" y2="78.15" xlink:href="#linear-gradient-2"/><linearGradient id="linear-gradient-7" x1="967.21" y1="-6001.65" x2="933.91" y2="-5959.29" gradientTransform="translate(2885.39 5503.58) rotate(-35.8)" gradientUnits="userSpaceOnUse"><stop offset="0" stop-color="#fff"/><stop offset="1" stop-color="#bbd4ff"/></linearGradient><linearGradient id="linear-gradient-8" x1="1050.64" y1="-5978.84" x2="789.48" y2="-6005.29" gradientTransform="translate(2885.39 5503.58) rotate(-35.8)" xlink:href="#linear-gradient-2"/><linearGradient id="linear-gradient-9" x1="1080.78" y1="-5991.24" x2="779.96" y2="-5958.73" gradientTransform="translate(2885.39 5503.58) rotate(-35.8)" xlink:href="#linear-gradient-2"/><linearGradient id="linear-gradient-10" x1="182.06" y1="27.52" x2="173.77" y2="64" xlink:href="#linear-gradient-2"/><linearGradient id="linear-gradient-11" x1="1037.44" y1="-5958.52" x2="893.46" y2="-5941.99" gradientTransform="translate(2885.39 5503.58) rotate(-35.8)" xlink:href="#linear-gradient-2"/><clipPath id="clip-path-2"><path class="cls-2" d="M63.22,279.76c25,3.18,88.23-40.47,90.38-26.43,4.82,31.38,7.84,15.07,11.85,65.48.73,9.19,22.82,6.45,22.82,1.06,0-20.45,1.51-87.36-.86-97-1.87-7.65-8.92-14.35-17.32-14.86a88.52,88.52,0,0,0-26.53,2C112.16,217.26,66,225.85,47.9,230.71,27,236.33,38.25,276.58,63.22,279.76Z"/></clipPath><linearGradient id="linear-gradient-12" x1="86.32" y1="274.18" x2="189.32" y2="274.18" gradientUnits="userSpaceOnUse"><stop offset="0" stop-color="#f0f4ff"/><stop offset="0.85" stop-color="#bbd4ff"/></linearGradient><clipPath id="clip-path-3"><path class="cls-2" d="M47.9,230.71c-.39,6.64-14.52,53.26,18.53,57,4.75.54,9.49,3.71,15.47,5.12,17.17,4,44.17-1.34,73.59-13.81,31-13.16,34.57-14.76,39.38-11.42,4.2,2.92,6.17,14.5,19.79,32.64,11.88,15.82,11.23,13.74,41.47,44.83,5.17,5.32,23.32-10.62,17.9-16.43-17.58-18.83-25.05-39.15-46.66-77-10.52-18.42-14.25-28.39-41.24-23.74-30.39,5.24-51.46,9.12-72.78,14.23C68.95,252.82,47.9,230.71,47.9,230.71Z"/></clipPath><linearGradient id="linear-gradient-13" x1="371" y1="190.21" x2="34.69" y2="190.21" gradientUnits="userSpaceOnUse"><stop offset="0" stop-color="#fff"/><stop offset="0.77" stop-color="#9cbae8"/><stop offset="1" stop-color="#7da5e1"/></linearGradient><linearGradient id="linear-gradient-14" x1="344.55" y1="330.3" x2="134.79" y2="209.19" gradientUnits="userSpaceOnUse"><stop offset="0" stop-color="#f0f4ff"/><stop offset="1" stop-color="#bbd4ff"/></linearGradient><linearGradient id="linear-gradient-15" x1="-798.51" y1="263.17" x2="-834.12" y2="171.61" gradientTransform="translate(1122.64)" xlink:href="#linear-gradient-12"/><linearGradient id="linear-gradient-16" x1="215.9" y1="142.3" x2="217.43" y2="146.81" gradientUnits="userSpaceOnUse"><stop offset="0" stop-color="#cddff5"/><stop offset="0.49" stop-color="#bbd4ff"/><stop offset="0.97" stop-color="#91beff"/></linearGradient><linearGradient id="linear-gradient-17" x1="289.66" y1="12.55" x2="223.63" y2="123.34" gradientUnits="userSpaceOnUse"><stop offset="0" stop-color="#eff3ff"/><stop offset="0.17" stop-color="#eaf0ff"/><stop offset="0.36" stop-color="#dde8ff"/><stop offset="0.56" stop-color="#c7dbff"/><stop offset="0.65" stop-color="#bbd4ff"/><stop offset="1" stop-color="#bbd4ff"/></linearGradient><linearGradient id="linear-gradient-18" x1="197.29" y1="174.43" x2="190.21" y2="174.3" xlink:href="#linear-gradient-16"/><linearGradient id="linear-gradient-19" x1="188.5" y1="215.54" x2="159.78" y2="55.88" gradientTransform="matrix(1, 0, 0, 1, 0, 0)" xlink:href="#linear-gradient-7"/><linearGradient id="linear-gradient-20" x1="165.58" y1="71.66" x2="165.58" y2="219.01" xlink:href="#linear-gradient-17"/><linearGradient id="linear-gradient-21" x1="188.57" y1="71.66" x2="188.57" y2="219.01" xlink:href="#linear-gradient-17"/><clipPath id="clip-path-4"><path class="cls-3" d="M113.58,139.79a6.89,6.89,0,0,0-2.89-3.37c-13.7-8.33-34.59-18.22-47-17.35-6.29.44-12.5,2.73-17.84,15.75-2.85,6.95-7.3,23.34-7.29,46.5,0,17.13-2.4,43.93-2.36,70.41,0,21.29,79,17.59,74.32-1.74-4.63-18.89-3.78-42.28-1.24-56.41,1.69-9.45,5-21.94,2.88-30.71C109.84,153.47,114.75,142.81,113.58,139.79Z"/></clipPath><linearGradient id="linear-gradient-23" x1="235.88" y1="208.95" x2="224.54" y2="209.05" xlink:href="#linear-gradient-16"/><linearGradient id="linear-gradient-24" x1="231.94" y1="167.9" x2="235.85" y2="298.27" gradientTransform="matrix(1, 0, 0, 1, 0, 0)" xlink:href="#linear-gradient-7"/><linearGradient id="linear-gradient-25" x1="238.98" y1="111.7" x2="232.83" y2="207.38" xlink:href="#linear-gradient-17"/><clipPath id="clip-path-5"><path class="cls-4" d="M230.9,207.3c-.4-1.17-7.48-5.25-12.3-8-1.31-.75-7.15-.84-9.89-1.25-7.9-1.18-11.41,5-16.73,5.56h0c-22-.77-14.78,1.2-31.84-1.6-16.22-2.67-18.54-.34-23-4-3.79-3.08-3.26-10.69-11-27.67-7.57-16.63-7.08-30.56-18-33.51s-13.7,8.84-10.26,30.91a53.52,53.52,0,0,0,8.82,22.4c2.45,3.37,3.93,10.85,6.28,16.39,3.68,8.66,9.2,13.86,13.45,14,25.17.89,28.92.63,66.76-6,.84.21,7.58,1.93,11.4,2.41,4.08.52,10.28,1,13.92,3.34s9.56-4.43,8.45-6.92a55,55,0,0,0-3.49-6.11C229.17,210.65,231.3,208.47,230.9,207.3Z"/></clipPath><linearGradient id="linear-gradient-26" x1="49.04" y1="98.28" x2="115.37" y2="296.51" xlink:href="#linear-gradient-12"/><clipPath id="clip-path-6"><path class="cls-4" d="M68,125.2C64,130,94.13,133.62,93.65,127.41s4.88-16.51,6-20.84c.78-2.9-18.87-22.16-23.85.92C74.73,112.66,72,120.26,68,125.2Z"/></clipPath><clipPath id="clip-path-7"><path class="cls-2" d="M115.77,63.59a18.69,18.69,0,0,0-17.27-.24c-2.69,1.32-6.05.66-8.47-.56-5.78-2.93-21.87,3.07-21.12,15.47,3.07,5.5,2.86,5.11,9.42,9,3.91,2.31,24.35.28,26,3.36l3.84-3.4C117.22,90.38,132.34,72.52,115.77,63.59Z"/></clipPath><clipPath id="clip-path-8"><path class="cls-5" d="M98.42,79.08C87.22,83.63,72,84,68.9,78.27c1.28,13.81,3.61,22.4,5.81,32.83l13.5,3,16.13-23.49C102.68,87.22,102.72,77.33,98.42,79.08Z"/></clipPath><clipPath id="clip-path-9"><path class="cls-4" d="M94.24,95.93c-1.26,2.57-2.58,7-.55,10-3.75,4.65-9.75,7.16-9.34,7.36,6,2.88,12.71,5.62,15,5.83,4.9.43,8.43-14.47,8.94-17.25.81-4.43-1.15-5.15-1.39-9.57-.14-2.5,2.19-7,2.19-7-3.5-1.93-4.14-1.52-8.7,8.34C99.29,95.95,98.09,88.06,94.24,95.93Z"/></clipPath><linearGradient id="linear-gradient-27" x1="260" y1="186.83" x2="243.98" y2="189.78" gradientTransform="matrix(1, 0, 0, 1, 0, 0)" xlink:href="#linear-gradient-7"/><linearGradient id="linear-gradient-28" x1="9662.48" y1="182.17" x2="9656.61" y2="195.5" gradientTransform="matrix(-1, 0, 0, 1, 9916, 0)" xlink:href="#linear-gradient-17"/><linearGradient id="linear-gradient-29" x1="269.32" y1="79.65" x2="228.54" y2="105.44" xlink:href="#linear-gradient-2"/></defs><title>asset-5Artboard 21</title><g class="cls-6"><g id="Layer_1" data-name="Layer 1"><g class="cls-7"><path class="cls-8" d="M214.89,157.61a.74.74,0,0,1-.29-.06.75.75,0,0,1-.4-1c4.65-10.94,16.23-23.58,34.44-37.58a289.7,289.7,0,0,1,26-17.77.75.75,0,0,1,.77,1.3c-.49.29-48.93,29.08-59.79,54.64A.75.75,0,0,1,214.89,157.61Z"/><path class="cls-9" d="M279.21,103.36c30.44,6.64,8.25-32-3-8.61-6.25-12.91-22.77,3.66-3.43,7.75C266,128.59,293.84,114.41,279.21,103.36Z"/><path class="cls-8" d="M215.21,206.08a.75.75,0,0,1-.71-.51c-9.95-28.51-.36-48.92,8.09-66.92,5.92-12.61,11-23.49,8.88-35.22a.75.75,0,0,1,1.48-.27c2.24,12.2-3.21,23.83-9,36.13-8.33,17.74-17.77,37.85-8,65.79a.75.75,0,0,1-.71,1Z"/><path class="cls-10" d="M151.87,2.05c-8.51,3.42-17.67,16.25-8.62,25.81s23.84,2.48,25.17-8.12C170,7,154.25,1.09,151.87,2.05Z"/><path class="cls-11" d="M142.61,100.1C138,112.6,150,127.83,161,127.44s15.68-12.17,13.12-22.59S168.25,91,159.46,90.65,143.63,97.28,142.61,100.1Z"/><path class="cls-12" d="M122.39,31c-1.89,5.55,9.72,13.79,19,16s13.25-2.2,13.51-5.44S144.34,31,134.06,28.7,122.39,31,122.39,31Z"/><path class="cls-8" d="M200.17,155.34a.75.75,0,0,1-.73-.56A308.47,308.47,0,0,0,185,114.65c-9.36-21.06-26.29-73-28-88.33a.75.75,0,0,1,1.5-.16c1.63,14.78,18.67,67.22,27.85,87.88a310,310,0,0,1,14.57,40.35.75.75,0,0,1-.53.92Z"/><path class="cls-13" d="M126.54,47.68c-7.27,11.38,8.82,32.74,24.8,16.38S134.06,35.91,126.54,47.68Z"/><path class="cls-8" d="M163.32,50.77a.75.75,0,0,1-.39-.11L145.8,40.18l.79-1.29,17.13,10.47a.75.75,0,0,1-.4,1.4Z"/><path class="cls-8" d="M168,66.57a.75.75,0,0,1-.39-.11c-3.81-2.3-19.38-8.71-19.54-8.78a.75.75,0,0,1,.57-1.39c.65.26,15.84,6.52,19.74,8.88a.75.75,0,0,1-.39,1.4Z"/><path class="cls-14" d="M142.61,100.1c4.5,5.82,17.28,14.23,31.19,3.53,0,0-2.46-10.37-4.27-11.93S144.92,87.4,142.61,100.1Z"/><path class="cls-15" d="M141.93,81.41c-4.48,10,5.78,18.63,11.18,21.52s18.69-2.76,19.3-12-5.87-20.07-14-19.46S143.55,77.8,141.93,81.41Z"/><path class="cls-8" d="M180.36,102.09a.75.75,0,0,1-.48-.18,164.8,164.8,0,0,0-13.82-10.39.75.75,0,1,1,.82-1.27,166.48,166.48,0,0,1,14,10.5.75.75,0,0,1-.49,1.33Z"/><path class="cls-8" d="M190.89,127.75a.75.75,0,0,1-.51-.2c-5.5-5-22.71-14.58-22.88-14.67a.75.75,0,0,1,.73-1.32c.71.39,17.54,9.71,23.17,14.88a.75.75,0,0,1-.51,1.31Z"/><path class="cls-16" d="M182.36,59.09c-2.52,10.64-2.21,21.74,4.44,26.57s17.67-.27,20.76-6.36.89-19.14-4.8-27.87S183.94,52.42,182.36,59.09Z"/><path class="cls-8" d="M178.68,97.61l-.2,0a.75.75,0,0,1-.52-.93c1.3-4.67,4.89-8.78,8.05-12.41a34.84,34.84,0,0,0,4.58-6,.75.75,0,1,1,1.34.69,35.66,35.66,0,0,1-4.79,6.29c-3.06,3.51-6.53,7.49-7.73,11.82A.75.75,0,0,1,178.68,97.61Z"/><path class="cls-17" d="M163.87,38.79c-8.25,8.57-4.65,18.84,6.31,23.08s23-2.87,24.75-10.94-6.19-17.84-12-18.85S168.14,34.35,163.87,38.79Z"/><path class="cls-18" d="M185,98c-2.75,11.12,6.6,27.68,10.38,27.11s1.57-25.81-2.53-30S185.74,95.11,185,98Z"/><path class="cls-19" d="M193,133.73a1.12,1.12,0,0,1-.28,0,1.13,1.13,0,0,1-.82-1.37c1.37-5.37,1.31-13.8,1.31-13.88a1.13,1.13,0,0,1,1.12-1.14h0a1.13,1.13,0,0,1,1.13,1.12c0,.36.07,8.8-1.38,14.46A1.13,1.13,0,0,1,193,133.73Z"/><path class="cls-2" d="M63.22,279.76c25,3.18,88.23-40.47,90.38-26.43,4.82,31.38,7.84,15.07,11.85,65.48.73,9.19,22.82,6.45,22.82,1.06,0-20.45,1.51-87.36-.86-97-1.87-7.65-8.92-14.35-17.32-14.86a88.52,88.52,0,0,0-26.53,2C112.16,217.26,66,225.85,47.9,230.71,27,236.33,38.25,276.58,63.22,279.76Z"/><g class="cls-20"><path class="cls-21" d="M191.54,292.17c-4.42-40.74-12.08-80.82-22.84-80.4-14.54.57-34.9,6.44-48.48,11.14s-11.58,19.26-11.58,19.26L33.52,257.44l139.55-83.66,47.67,24.35Z"/></g><path class="cls-22" d="M189.32,269.36c-12.63-10.87-33.45-10.48-33.45-10.48L86.32,274.69l42.94,14.78,56.88-9.26,3-7.78Z"/><path class="cls-2" d="M47.9,230.71c-.39,6.64-14.52,53.26,18.53,57,4.75.54,9.49,3.71,15.47,5.12,17.17,4,44.17-1.34,73.59-13.81,31-13.16,34.57-14.76,39.38-11.42,4.2,2.92,6.17,14.5,19.79,32.64,11.88,15.82,11.23,13.74,41.47,44.83,5.17,5.32,23.32-10.62,17.9-16.43-17.58-18.83-25.05-39.15-46.66-77-10.52-18.42-14.25-28.39-41.24-23.74-30.39,5.24-51.46,9.12-72.78,14.23C68.95,252.82,47.9,230.71,47.9,230.71Z"/><g class="cls-23"><path class="cls-21" d="M280.32,342.79c-19.21-19.76-54-84.48-64.25-92.37-13-10-16.92-18.31-27.62-14.3s-69,18.75-83.5,17c-28.45-3.44-4.28-8.11-4.28-8.11l125.12-36.65,75.54,82.48Z"/><path class="cls-24" d="M58.84,279.46c14.6,3,32.51,1.44,26.67-13.38s-32.79-8.14-37.83-25.29C40.62,216.77,34,218.44,34,218.44L6.69,305S44.68,276.55,58.84,279.46Z"/></g><polygon class="cls-25" points="371 208.92 151.24 128.93 34.27 171.5 254.03 251.49 371 208.92"/><polygon class="cls-26" points="34.27 177.7 34.27 171.5 254.03 251.49 254.03 257.69 34.27 177.7"/><polygon class="cls-27" points="371 215.12 371 208.92 254.03 251.49 254.03 257.69 371 215.12"/><path class="cls-28" d="M170.14,148.2l16.37-41.26a5.26,5.26,0,0,1,6.67-3l64.47,23.47a4.77,4.77,0,0,1,2.71,6.44l-17.65,39.5a5,5,0,0,1-6.23,2.64l-64.26-23.17A3.53,3.53,0,0,1,170.14,148.2Z"/><path class="cls-29" d="M169.3,148l16.37-41.26a5.26,5.26,0,0,1,6.67-3l64.47,23.47a4.77,4.77,0,0,1,2.71,6.44l-17.65,39.5a5,5,0,0,1-6.23,2.64l-64.26-23.17A3.53,3.53,0,0,1,169.3,148Z"/><polygon class="cls-2" points="172.22 150.21 189.97 105.53 257.3 130.03 237.71 173.82 172.22 150.21"/><g class="cls-30"><path class="cls-31" d="M185,122.55v0a8.79,8.79,0,0,1,11.18-5l49.67,17.82a8.79,8.79,0,0,1,5,11.85h0a8.79,8.79,0,0,1-11,4.68l-49.68-17.8A8.79,8.79,0,0,1,185,122.55Z"/><path class="cls-32" d="M186,122.74v0a8.53,8.53,0,0,1,10.85-4.87l48.2,17.29a8.53,8.53,0,0,1,4.87,11.5h0a8.53,8.53,0,0,1-10.68,4.54L191,133.91A8.53,8.53,0,0,1,186,122.74Z"/><path class="cls-33" d="M187,122.93v0a8.27,8.27,0,0,1,10.51-4.72L244.24,135A8.27,8.27,0,0,1,249,146.1h0a8.27,8.27,0,0,1-10.35,4.4l-46.74-16.75A8.27,8.27,0,0,1,187,122.93Z"/><path class="cls-34" d="M188,123.12v0a8,8,0,0,1,10.18-4.57l45.26,16.24a8,8,0,0,1,4.57,10.8h0a8,8,0,0,1-10,4.26l-45.27-16.22A8,8,0,0,1,188,123.12Z"/><path class="cls-35" d="M188.94,123.31v0a7.75,7.75,0,0,1,9.85-4.42l43.79,15.71A7.75,7.75,0,0,1,247,145h0a7.75,7.75,0,0,1-9.7,4.13l-43.8-15.69A7.75,7.75,0,0,1,188.94,123.31Z"/><path class="cls-36" d="M189.91,123.5v0a7.49,7.49,0,0,1,9.52-4.27l42.32,15.19a7.49,7.49,0,0,1,4.28,10.1h0a7.49,7.49,0,0,1-9.38,4l-42.33-15.17A7.49,7.49,0,0,1,189.91,123.5Z"/><path class="cls-8" d="M190.89,123.69v0a7.23,7.23,0,0,1,9.19-4.13l40.85,14.66a7.23,7.23,0,0,1,4.13,9.75h0A7.23,7.23,0,0,1,236,147.8l-40.86-14.64A7.23,7.23,0,0,1,190.89,123.69Z"/></g><path class="cls-37" d="M189.94,121.56v0a7.23,7.23,0,0,1,9.19-4.13L240,132.07a7.23,7.23,0,0,1,4.13,9.75h0a7.23,7.23,0,0,1-9.05,3.85L194.21,131A7.23,7.23,0,0,1,189.94,121.56Z"/><path class="cls-38" d="M123.94,170.58l66.63,24.26a9.57,9.57,0,0,0,6.54,0l40.23-14.64a1.31,1.31,0,0,0,.87-1.34c0-.24,0-1.94,0-2.34s-.59,1.28-.86,1.18l-66.63-24.26a9.57,9.57,0,0,0-6.55,0l-40.23,12.41c-1.16.76-.87,1.48-.87,3.32A1.4,1.4,0,0,0,123.94,170.58Z"/><path class="cls-39" d="M123.94,168.34l66.63,24.26a9.57,9.57,0,0,0,6.54,0L237.35,178a1.33,1.33,0,0,0,0-2.5L170.72,151.2a9.57,9.57,0,0,0-6.55,0l-40.23,14.64A1.33,1.33,0,0,0,123.94,168.34Z"/><path class="cls-40" d="M149.12,174.06l19.33,7a2.78,2.78,0,0,0,1.9,0L182,176.85a.39.39,0,0,0,0-.73l-19.33-7a2.78,2.78,0,0,0-1.9,0l-11.68,4.25A.39.39,0,0,0,149.12,174.06Z"/><path class="cls-41" d="M146.47,161.62l64.76,23.57a4,4,0,0,0,2.72,0l16.71-6.08a.55.55,0,0,0,0-1L165.91,154.5a4,4,0,0,0-2.72,0l-16.71,6.08A.55.55,0,0,0,146.47,161.62Z"/><rect class="cls-42" x="192.1" y="123.45" width="9.94" height="0.75" transform="translate(1.09 249.37) rotate(-64.79)"/><path class="cls-4" d="M53.17,131.76c-10-.11-9.61,12.85.14,30.62,6.1,11.11,11.3,15.05,21.09,25.34,5.87,6.17,8.51,12,12.3,11.61,24.32-2.51,26.86-4.21,59.35-19.26,0,0,1.94-10.21-3.2-9.08-21.4,4.7-14.23,2.48-29.69,6.22-16,3.87-20.92,2.76-20.92,2.76s-7.08-5.71-15.68-19.88S63.29,131.87,53.17,131.76Z"/><path class="cls-4" d="M145.19,180.07c6.94,0,18.7-2.39,20.44-5.65s-1.05-2.25-3.37-1.41-5.5,1.62-6.28.84,3.69-8.68,7.13-9.93,5.62,2.51,7.42,1.85,1.34-3.92-2.61-5.35-6.55-3-8.24-3A31.52,31.52,0,0,0,151,159c-2.91,1.06-4.79,6.34-6.46,9.16a8,8,0,0,1-4.77,3.5Z"/><path class="cls-3" d="M113.58,139.79a6.89,6.89,0,0,0-2.89-3.37c-13.7-8.33-34.59-18.22-47-17.35-6.29.44-12.5,2.73-17.84,15.75-2.85,6.95-7.3,23.34-7.29,46.5,0,17.13-2.4,43.93-2.36,70.41,0,21.29,79,17.59,74.32-1.74-4.63-18.89-3.78-42.28-1.24-56.41,1.69-9.45,5-21.94,2.88-30.71C109.84,153.47,114.75,142.81,113.58,139.79Z"/><g class="cls-43"><path class="cls-44" d="M96.47,272.88S46,257.37,51,237.38c4.92-19.48-28.49-31.88-16.75-59.68,9.68-22.93,4.61-44.83,20.27-57,1.77-1.37,32.31,6.68,47.62,19.57,13.48,11.35,3.06,42.89-6,80.14-6,24.71,56.33,65.19,56.33,65.19C152.53,286.16,107.56,277.65,96.47,272.88Z"/></g><path class="cls-45" d="M204.46,211.65l21.41,7.8a7.34,7.34,0,0,0,5,0l30.88-11.24a1,1,0,0,0,.67-1c0-.19,0-1.49,0-1.8s-.45,1-.66.91l-21.41-7.8a7.34,7.34,0,0,0-5,0L204.46,208c-.89.58-.66,1.14-.66,2.55A1.07,1.07,0,0,0,204.46,211.65Z"/><path class="cls-46" d="M204.46,209.94l21.41,7.8a7.34,7.34,0,0,0,5,0l30.88-11.24a1,1,0,0,0,0-1.92l-21.41-7.8a7.34,7.34,0,0,0-5,0L204.46,208A1,1,0,0,0,204.46,209.94Z"/><polygon class="cls-47" points="205.01 208.58 229.01 217.41 260.66 205.89 236.66 197.06 205.01 208.58"/><rect class="cls-8" x="211.93" y="180.95" width="2.26" height="36.13" transform="translate(-74.67 246.06) rotate(-52.33)"/><path class="cls-48" d="M109.15,135.1s4.44,2.4,5.65,5.25,8.14,30.47,4.67,32.11-10.28,30.12-20.23,10.69c-7.38-14.41-8.93-39.66-3.91-44.67S107.14,133.86,109.15,135.1Z"/><path class="cls-4" d="M230.9,207.3c-.4-1.17-7.48-5.25-12.3-8-1.31-.75-7.15-.84-9.89-1.25-7.9-1.18-11.41,5-16.73,5.56h0c-22-.77-14.78,1.2-31.84-1.6-16.22-2.67-18.54-.34-23-4-3.79-3.08-3.26-10.69-11-27.67-7.57-16.63-7.08-30.56-18-33.51s-13.7,8.84-10.26,30.91a53.52,53.52,0,0,0,8.82,22.4c2.45,3.37,3.93,10.85,6.28,16.39,3.68,8.66,9.2,13.86,13.45,14,25.17.89,28.92.63,66.76-6,.84.21,7.58,1.93,11.4,2.41,4.08.52,10.28,1,13.92,3.34s9.56-4.43,8.45-6.92a55,55,0,0,0-3.49-6.11C229.17,210.65,231.3,208.47,230.9,207.3Z"/><g class="cls-49"><path class="cls-50" d="M237.57,233.62l-8.23-22s-6.07,4.76-9.55,4.37-19-7.81-22.88-7.81-23,.67-28.32.67-33.17.39-37.41-6-11.38-26.61-12.34-33.55-6.17-22.75-16.76-39L62.48,154.46l24.17,99.73Z"/></g><path class="cls-51" d="M3,167a7.87,7.87,0,0,1,9.75-9.2l43.16,11.57a20.32,20.32,0,0,1,14,13C79.71,211,108.51,290.27,126.72,293c27.13,4.06,61.87-9.93,57.4-8a220.06,220.06,0,0,1-47,14A149.63,149.63,0,0,1,108.34,302c-32.66,0-59.24-15.37-71.27-33.14C19.19,242.46,3,167,3,167Z"/><path class="cls-48" d="M71.54,120c-4.35,1.58-7.25,1.66-7.25,5.76s8,7.82,14.26,7.82,17-.9,17.57-4.11S92.83,124,92.83,124Z"/><path class="cls-52" d="M11.9,155.57c4.41-1.62,7-1.31,11.73,0l30,8.06C66.22,167,75.6,170.44,79.19,179,89.44,203.4,98,261.7,112.72,279.46c7.94,9.61,30.19,9.11,45.88,4.9s21.35-6.55,27.88-10.27a5.82,5.82,0,0,0,2.84-4.72l.09,10.41c-.11,1.31-1.11,2.48-2.33,3.62,0,0-4.76,4.05-28.5,10.43C142.89,298,116,300.09,104,287.37,89.52,272.09,78.1,204,69.65,181.86c-4-10.4-13.09-12.33-25.64-15.69l-30-8.06c-4.11-1.1-5.6-.49-8,1A28.2,28.2,0,0,1,11.9,155.57Z"/><path class="cls-4" d="M68,125.2C64,130,94.13,133.62,93.65,127.41s4.88-16.51,6-20.84c.78-2.9-18.87-22.16-23.85.92C74.73,112.66,72,120.26,68,125.2Z"/><g class="cls-53"><path class="cls-50" d="M71.3,108.11c-1.25,4.08-27,24.27,16.17,23.59,0,0,4.66-14.27,12.12-13.17C104.38,119.24,71.3,108.11,71.3,108.11Z"/></g><path class="cls-2" d="M115.77,63.59a18.69,18.69,0,0,0-17.27-.24c-2.69,1.32-6.05.66-8.47-.56-5.78-2.93-21.87,3.07-21.12,15.47,3.07,5.5,2.86,5.11,9.42,9,3.91,2.31,24.35.28,26,3.36l3.84-3.4C117.22,90.38,132.34,72.52,115.77,63.59Z"/><g class="cls-54"><path class="cls-55" d="M82,94.92c4-5.36,13.71-8.26,13.54-12.19s7.11-5.4,10.2-4.2c16.68,6.49,12.38.1,18,9.49,4.05,6.78-6.06,3.29-6.06,3.29l-12.36,3.22-21.87.82Z"/><path class="cls-56" d="M82,94.92c4-5.36,13.71-8.26,13.54-12.19s7.11-5.4,10.2-4.2c16.68,6.49,12.38.1,18,9.49,4.05,6.78-6.06,3.29-6.06,3.29l-12.36,3.22-21.87.82Z"/></g><path class="cls-5" d="M98.42,79.08C87.22,83.63,72,84,68.9,78.27c1.28,13.81,3.61,22.4,5.81,32.83l13.5,3,16.13-23.49C102.68,87.22,102.72,77.33,98.42,79.08Z"/><g class="cls-57"><path class="cls-55" d="M99.35,78.71a3.77,3.77,0,0,0-2.28,2.57c-2,7.59-12.23,24.15-17.87,29-6.15,5.25,12.65,7.47,12.65,7.47l15-35.27-7.39-3.76Z"/><path class="cls-58" d="M99.35,78.71a3.77,3.77,0,0,0-2.28,2.57c-2,7.59-12.23,24.15-17.87,29-6.15,5.25,12.65,7.47,12.65,7.47l15-35.27-7.39-3.76Z"/></g><path class="cls-4" d="M94.24,95.93c-1.26,2.57-2.58,7-.55,10-3.75,4.65-9.75,7.16-9.34,7.36,6,2.88,12.71,5.62,15,5.83,4.9.43,8.43-14.47,8.94-17.25.81-4.43-1.15-5.15-1.39-9.57-.14-2.5,2.19-7,2.19-7-3.5-1.93-4.14-1.52-8.7,8.34C99.29,95.95,98.09,88.06,94.24,95.93Z"/><g class="cls-59"><path class="cls-50" d="M90.31,126.09c8.09-3.41,20.52-22.9,13-31.43-1.69-1.92-1.11-3.1,0-9.24a33.33,33.33,0,0,1,7-14.25L97.72,67.53C96.9,67.48,51.84,142.3,90.31,126.09Z"/></g><path class="cls-55" d="M98.35,98.81c.59-4.43-1.14-4.86-2.15-3.36s-2.88,8.63.09,7.49C97.61,102.43,98.2,100,98.35,98.81Z"/><path class="cls-60" d="M250.49,191.6s-6.95-.29-7.93-.29-5.48-3.05,1.25-4.51S250.49,191.6,250.49,191.6Z"/><path class="cls-61" d="M243.75,190.12l1.81.66a13.6,13.6,0,0,0,9.47-.05L267,186.21c1.17-.44,1.45-2.82-.64-4-4.1-2.39-9.22-3.51-12.2-2.6-5.6,1.71-7.91,3.77-9.63,6C243.58,186.81,242.58,189.69,243.75,190.12Z"/><path class="cls-42" d="M235.37,139.59a3.28,3.28,0,1,1,3.28-3.28A3.28,3.28,0,0,1,235.37,139.59Zm0-5.8a2.52,2.52,0,1,0,2.53,2.52A2.53,2.53,0,0,0,235.37,133.79Z"/><path class="cls-42" d="M238.62,142.92a.38.38,0,0,1-.34-.21l-1.88-3.76a.38.38,0,1,1,.67-.34l1.88,3.76a.38.38,0,0,1-.17.51A.37.37,0,0,1,238.62,142.92Z"/><path class="cls-62" d="M237.72,103.8c23.06-23.29-25.93-26.32-11-3-17.73-2.7-5.63,24.2,5.56,9C246.94,129.11,252,99.12,237.72,103.8Z"/></g></g></g></svg>