<?xml version="1.0" encoding="utf-8"?>
<!-- Generator: Adobe Illustrator 21.1.0, SVG Export Plug-In . SVG Version: 6.00 Build 0)  -->
<svg version="1.1" id="Layer_1" xmlns="http://www.w3.org/2000/svg" xmlns:xlink="http://www.w3.org/1999/xlink" x="0px" y="0px"
	 viewBox="0 0 597 547.7" style="enable-background:new 0 0 597 547.7;" xml:space="preserve">
<style type="text/css">
	.st0{fill:url(#SVGID_1_);}
	.st1{opacity:0.6;fill:url(#SVGID_2_);enable-background:new    ;}
	.st2{fill:#B8D1FF;}
	.st3{fill:url(#SVGID_3_);}
	.st4{clip-path:url(#SVGID_5_);}
	.st5{fill:#8BB3DB;}
	.st6{fill:#307099;}
	.st7{fill:#E1A8EF;}
	.st8{fill:#317099;}
	.st9{clip-path:url(#SVGID_7_);}
	.st10{fill:#FFFFFF;}
	.st11{clip-path:url(#SVGID_9_);}
	.st12{fill:url(#SVGID_10_);}
	.st13{clip-path:url(#SVGID_12_);}
	.st14{fill:url(#SVGID_13_);}
	.st15{fill:url(#SVGID_14_);}
	.st16{fill:url(#SVGID_15_);}
	.st17{fill:url(#SVGID_16_);}
	.st18{fill:url(#SVGID_17_);}
	.st19{fill:url(#SVGID_18_);}
	.st20{fill:url(#SVGID_19_);}
	.st21{fill:#E1A57C;}
	.st22{fill:url(#SVGID_20_);}
	.st23{clip-path:url(#SVGID_22_);}
	.st24{fill:#C68D67;}
	.st25{clip-path:url(#SVGID_24_);}
	.st26{fill:#AA7959;}
	.st27{clip-path:url(#SVGID_26_);}
	.st28{clip-path:url(#SVGID_28_);}
	.st29{fill:url(#SVGID_29_);}
	.st30{clip-path:url(#SVGID_31_);}
	.st31{fill:url(#SVGID_32_);}
	.st32{fill:url(#SVGID_33_);}
	.st33{fill:url(#SVGID_34_);}
	.st34{fill:url(#SVGID_35_);}
	.st35{fill:url(#SVGID_36_);}
	.st36{clip-path:url(#SVGID_38_);}
	.st37{fill:url(#SVGID_39_);}
	.st38{fill:url(#SVGID_40_);}
	.st39{fill:#0F1780;}
	.st40{fill:url(#SVGID_41_);}
	.st41{opacity:0.59;fill:url(#SVGID_42_);enable-background:new    ;}
	.st42{fill:url(#SVGID_43_);}
	.st43{fill:url(#SVGID_44_);}
	.st44{fill:url(#SVGID_45_);}
	.st45{fill:#D5D7DB;}
	.st46{fill:#0168FF;}
	.st47{fill:#EF3292;}
	.st48{fill:#9CA2A8;}
	.st49{fill:url(#SVGID_46_);}
	.st50{fill:url(#SVGID_47_);}
	.st51{fill:url(#SVGID_48_);}
	.st52{fill:url(#SVGID_49_);}
	.st53{fill:url(#SVGID_50_);}
	.st54{fill:url(#SVGID_51_);}
	.st55{fill:url(#SVGID_52_);}
	.st56{fill:url(#SVGID_53_);}
	.st57{fill:url(#SVGID_54_);}
	.st58{fill:url(#SVGID_55_);}
	.st59{fill:url(#SVGID_56_);}
	.st60{fill:url(#SVGID_57_);}
	.st61{fill:#FCFDFE;}
	.st62{fill:#F9FBFE;}
	.st63{fill:#F6F9FD;}
	.st64{fill:#F3F7FD;}
	.st65{fill:#F0F6FC;}
	.st66{fill:#EDF4FC;}
	.st67{fill:#EAF2FB;}
	.st68{fill:#E6F0FA;}
	.st69{fill:#E3EEFA;}
	.st70{fill:#FFFFFF;fill-opacity:0;}
	.st71{opacity:0.11;fill:#FEFEFE;enable-background:new    ;}
	.st72{opacity:0.22;fill:#FCFDFE;enable-background:new    ;}
	.st73{opacity:0.33;fill:#FBFCFD;enable-background:new    ;}
	.st74{opacity:0.44;fill:#F9FBFD;enable-background:new    ;}
	.st75{opacity:0.56;fill:#F8FAFC;enable-background:new    ;}
	.st76{opacity:0.67;fill:#F7F9FC;enable-background:new    ;}
	.st77{opacity:0.78;fill:#F5F8FB;enable-background:new    ;}
	.st78{opacity:0.89;fill:#F4F7FA;enable-background:new    ;}
	.st79{fill:#F2F5FA;}
	.st80{fill:url(#SVGID_58_);}
	.st81{fill:url(#SVGID_59_);}
	.st82{fill:url(#SVGID_60_);}
	.st83{opacity:0.11;fill:#FCFDFE;enable-background:new    ;}
	.st84{opacity:0.22;fill:#F9FBFE;enable-background:new    ;}
	.st85{opacity:0.33;fill:#F6F9FD;enable-background:new    ;}
	.st86{opacity:0.44;fill:#F3F7FD;enable-background:new    ;}
	.st87{opacity:0.56;fill:#F0F6FC;enable-background:new    ;}
	.st88{opacity:0.67;fill:#EDF4FC;enable-background:new    ;}
	.st89{opacity:0.78;fill:#EAF2FB;enable-background:new    ;}
	.st90{opacity:0.89;fill:#E6F0FA;enable-background:new    ;}
	.st91{fill:url(#SVGID_61_);}
	.st92{fill:url(#SVGID_62_);}
	.st93{fill:url(#SVGID_63_);}
	.st94{fill:#DBBE80;}
	.st95{clip-path:url(#SVGID_65_);}
	.st96{fill:#043EBA;}
	.st97{clip-path:url(#SVGID_67_);}
	.st98{fill:url(#SVGID_68_);}
	.st99{clip-path:url(#SVGID_70_);}
	.st100{fill:url(#SVGID_71_);}
	.st101{clip-path:url(#SVGID_73_);}
	.st102{fill:#938757;}
	.st103{fill:url(#SVGID_74_);}
	.st104{clip-path:url(#SVGID_76_);}
	.st105{opacity:0.48;fill:#873D6E;enable-background:new    ;}
	.st106{opacity:0.5;fill:#FFFFFF;enable-background:new    ;}
	.st107{clip-path:url(#SVGID_78_);}
	.st108{fill:#ADA16C;}
	.st109{opacity:0.3;fill:#FFFFFF;enable-background:new    ;}
	.st110{fill:url(#SVGID_79_);}
</style>
<g>
	
		<linearGradient id="SVGID_1_" gradientUnits="userSpaceOnUse" x1="-615.092" y1="217.2985" x2="-401.732" y2="296.2585" gradientTransform="matrix(-1 0 0 -1 -168.96 550)">
		<stop  offset="0" style="stop-color:#474747"/>
		<stop  offset="1" style="stop-color:#FFFFFF"/>
	</linearGradient>
	<path class="st0" d="M406.5,230l28.3,19.9v166.3L387,398.9V249.5c0-10.7-5.2-20.7-13.9-26.8l-14.4-10.1L406.5,230z"/>
</g>
<title>Asset 8</title>
<g>
	<g id="Layer_2">
		<g id="Layer_1-2">
			
				<linearGradient id="SVGID_2_" gradientUnits="userSpaceOnUse" x1="-729.8687" y1="205.9127" x2="-580.7986" y2="131.1027" gradientTransform="matrix(-1 0 0 -1 -168.96 550)">
				<stop  offset="0" style="stop-color:#FFFFFF"/>
				<stop  offset="1" style="stop-color:#B8D1FF"/>
			</linearGradient>
			<polygon class="st1" points="440.6,421.1 597,357.7 548.2,334.5 396.4,394.9 			"/>
			<polygon class="st2" points="468.4,164.6 474.4,172.7 465.6,179.1 			"/>
			
				<linearGradient id="SVGID_3_" gradientUnits="userSpaceOnUse" x1="-670.6388" y1="400.8018" x2="-620.0588" y2="431.8618" gradientTransform="matrix(-1 0 0 -1 -168.96 550)">
				<stop  offset="4.000000e-02" style="stop-color:#0F1780"/>
				<stop  offset="0.12" style="stop-color:#0F1780"/>
				<stop  offset="1" style="stop-color:#0168FF"/>
			</linearGradient>
			<path class="st3" d="M455.7,135.9c0.1-4.9-1.5-8.7,4.8-14c2.5-2.1,13-3.4,16.4-2.5c2.9,0.8,4.7,2.2,6,10
				c1.6,9.8-1.6,13.8-2.5,21.9L455.7,135.9z"/>
			<g>
				<defs>
					<path id="SVGID_4_" d="M455.7,135.9c0.1-4.9-1.5-8.7,4.8-14c2.5-2.1,13-3.4,16.4-2.5c2.9,0.8,4.7,2.2,6,10
						c1.6,9.8-1.6,13.8-2.5,21.9L455.7,135.9z"/>
				</defs>
				<clipPath id="SVGID_5_">
					<use xlink:href="#SVGID_4_"  style="overflow:visible;"/>
				</clipPath>
				<g class="st4">
					<path class="st5" d="M476.4,144.3c-2.5-4.4-3.8-8.9-3.5-11.9s-2-5.2-4.3-4.4c-15.6,6-10.9-2.2-14.3,3.2
						c-3.2,5.1-2.9,8.5-2.9,8.5l8.5-3.3l15.5,8.2L476.4,144.3z"/>
				</g>
			</g>
			<path class="st6" d="M472.5,146c3.1-1.8,4.3-2.4,4.3-2.4c0.4-1.2,0.4-3.9,2.5-4.5c4.3-1.2,3.6,9.4,1.5,9.2
				c-2.7-0.2,1.9,8.4,7.5,12.8c3.5,2.7-17.3,15.2-18.4,10.8c-1.5-5.6-3.4-17.6-4-20.8C465.5,148.9,468.6,145.7,472.5,146z"/>
			<path class="st5" d="M477.8,144c0.5-3.1,2.2-3.1,2.7-1.9s0.6,6.4-1.8,5.1C477.7,146.6,477.7,144.9,477.8,144z"/>
			<path class="st7" d="M456.5,133.4l-0.8,2.5C455.8,135,456.1,134.1,456.5,133.4z"/>
			<path class="st8" d="M472.4,139.5c2.7,5.2,7.4,8,4.6,12.6c-4.1,6.8-5.5,7-9,7.6s-8.6-8.1-9.6-9.9c-1.5-2.8-0.3-3.1-1-6.1
				c-0.5-2-1.4-2-1.5-5.9c-0.2-4.9,1.3-5.9,4-4.9c2.2,0.8,6.3-3,8.5-1.4S470.4,135.8,472.4,139.5z"/>
			<g>
				<defs>
					<path id="SVGID_6_" d="M472.4,139.5c2.7,5.2,7.4,8,4.6,12.6c-4.1,6.8-5.5,7-9,7.6s-8.6-8.1-9.6-9.9c-1.5-2.8-0.3-3.1-1-6.1
						c-0.5-2-1.4-2-1.5-5.9c-0.2-4.9,1.3-5.9,4-4.9c2.2,0.8,6.3-3,8.5-1.4S470.4,135.8,472.4,139.5z"/>
				</defs>
				<clipPath id="SVGID_7_">
					<use xlink:href="#SVGID_6_"  style="overflow:visible;"/>
				</clipPath>
				<g class="st9">
					<path class="st5" d="M467.7,128.1c6.2,0-0.4,11.3-3.9,13.7c-1.5,1-1.5,5.7,0,9.9c1.5,3.5,3.8,6.6,6.7,9l-8.3,4.1
						C461.6,164.9,438.2,128,467.7,128.1z"/>
				</g>
			</g>
			<path class="st10" d="M475.2,384c0,3.1,1.5,8.6,0,10.1s-16,7.4-20.5,9s-11.8-1.2-12.9-2.4s2.4-4,7.4-6.9s10.7-6.1,11.8-11.8
				S475.2,384,475.2,384z"/>
			<g>
				<defs>
					<path id="SVGID_8_" d="M475.2,384c0,3.1,1.5,8.6,0,10.1s-16,7.4-20.5,9s-11.8-1.2-12.9-2.4s2.4-4,7.4-6.9s10.7-6.1,11.8-11.8
						S475.2,384,475.2,384z"/>
				</defs>
				<clipPath id="SVGID_9_">
					<use xlink:href="#SVGID_8_"  style="overflow:visible;"/>
				</clipPath>
				<g class="st11">
					
						<linearGradient id="SVGID_10_" gradientUnits="userSpaceOnUse" x1="-613.0717" y1="182.3353" x2="-638.2017" y2="137.5553" gradientTransform="matrix(-1 0 0 -1 -168.96 550)">
						<stop  offset="0" style="stop-color:#FFFFFF"/>
						<stop  offset="1" style="stop-color:#B8D1FF"/>
					</linearGradient>
					<path class="st12" d="M476.8,388.5c-3.3,4.1-9.9,6.2-13.3,8.1s-11.1,5.5-13.4,5.1s-3.5-3-6.4-3.2c-1.7-0.2-3.3,0.6-4.2,2.1
						l10.9,7.9l24.2-8.8c0,0,7.4-5.7,7.1-6S476.8,388.5,476.8,388.5z"/>
				</g>
			</g>
			<path class="st10" d="M484.8,362.4c2.5,1.8,7.8,4,8.1,6s-1.1,14.3-2.5,18.9s-6.5,8.9-8.5,8.9c-3.5,0-7.9-0.8-4.7-3.5
				c4.4-3.7,1.5-15.8-2.5-20S484.8,362.4,484.8,362.4z"/>
			<g>
				<defs>
					<path id="SVGID_11_" d="M484.8,362.4c2.5,1.8,7.8,4,8.1,6s-1.1,14.3-2.5,18.9s-6.5,8.9-8.5,8.9c-3.5,0-7.9-0.8-4.7-3.5
						c4.4-3.7,1.5-15.8-2.5-20S484.8,362.4,484.8,362.4z"/>
				</defs>
				<clipPath id="SVGID_12_">
					<use xlink:href="#SVGID_11_"  style="overflow:visible;"/>
				</clipPath>
				<g class="st13">
					
						<linearGradient id="SVGID_13_" gradientUnits="userSpaceOnUse" x1="-770.5108" y1="-162.0801" x2="-797.5308" y2="-210.2301" gradientTransform="matrix(-0.59 0.8 -0.8 -0.59 -137.41 897.68)">
						<stop  offset="0" style="stop-color:#FFFFFF"/>
						<stop  offset="1" style="stop-color:#B8D1FF"/>
					</linearGradient>
					<path class="st14" d="M489.3,363.7c1.3,5.1,0.6,9.4,0.2,13.2s-0.6,8.3-1.5,10.5c-1.4,3.6-7.8,7.9-11.1,7.7
						c-2.9-0.2,0,5.8,0,5.8l12.9-4.1l7.4-24.7c0,0-0.1-9.3-0.6-9.3S489.3,363.7,489.3,363.7z"/>
				</g>
			</g>
			
				<linearGradient id="SVGID_14_" gradientUnits="userSpaceOnUse" x1="-805.5822" y1="274.3071" x2="-644.6323" y2="210.9871" gradientTransform="matrix(-0.98 0.2 -0.2 -0.98 -175.45 679.74)">
				<stop  offset="4.000000e-02" style="stop-color:#0F1780"/>
				<stop  offset="0.12" style="stop-color:#0F1780"/>
				<stop  offset="1" style="stop-color:#0168FF"/>
			</linearGradient>
			<path class="st15" d="M443.6,251.9c-9.4,32.9-11.1,65.8-7.6,74.7s34.8,40.7,40.2,48.2c2.2,3,12.2-8.2,10.7-10.6
				c-8-12-17.6-26.7-31.9-46.7c-2.6-3.6,19.1-69.6,19.1-69.6L443.6,251.9z"/>
			
				<linearGradient id="SVGID_15_" gradientUnits="userSpaceOnUse" x1="-600.15" y1="351.0497" x2="-670.5099" y2="343.1397" gradientTransform="matrix(-1 0 0 -1 -168.96 550)">
				<stop  offset="0" style="stop-color:#FFFFFF"/>
				<stop  offset="1" style="stop-color:#FFFFFF"/>
			</linearGradient>
			<path class="st16" d="M447.3,169.6c-10,17-21.3,38.2-24.1,41.1s-19,7.3-21.3,8.1s-1.2,9.4,3.4,8.1s25.5-4.8,29.5-7.8
				s16.1-27.5,16.1-27.5L447.3,169.6z"/>
			
				<linearGradient id="SVGID_16_" gradientUnits="userSpaceOnUse" x1="-762.9962" y1="276.1497" x2="-618.5662" y2="219.3297" gradientTransform="matrix(-1 0 0 -1 -168.96 550)">
				<stop  offset="4.000000e-02" style="stop-color:#0F1780"/>
				<stop  offset="0.12" style="stop-color:#0F1780"/>
				<stop  offset="1" style="stop-color:#0168FF"/>
			</linearGradient>
			<path class="st17" d="M459.7,262.4c-2.1,23.2-3.8,45.8-2.2,55.2s3.4,32.5,3.4,41.6s0,18.7,0,23.9s14.3,3.8,14.3,1
				s5.5-40.1,2.8-67.2c-0.4-4.4,11.4-44.9,11.4-44.9L459.7,262.4z"/>
			
				<linearGradient id="SVGID_17_" gradientUnits="userSpaceOnUse" x1="-619.7106" y1="321.4902" x2="-887.5506" y2="337.4802" gradientTransform="matrix(-1 0 0 -1 -168.96 550)">
				<stop  offset="0" style="stop-color:#FFFFFF"/>
				<stop  offset="1" style="stop-color:#B8D1FF"/>
			</linearGradient>
			<path class="st18" d="M504.2,172.1c-6.8-3.5-10-4.2-11.8-6s-6.2-8.4-6.2-8.4s-8.4,7.6-15.3,10.8c0,0-3.3,8-4.2,9l1.6-12.9
				l-0.8-4.8c0,0-2.6,1.2-8.5,0.2s-9.3,4.9-11.6,9.5s2.8,49.8,0.2,64.1c-1.7,9.3-6.1,26.8-9.4,35.8c-4.1,11.1,7.5,20.5,7.5,20.5
				s7.2-17.1,9.2-22.7c1.6-4.4,4.2-18.3,4.2-18.3l-3.7,44.4c0,0,26.4,4.2,37.1,0.3c5.7-2.1,8.2-23.6,8.2-41.6s-7.8-19.2,2.4-50.2
				C504.9,196.2,510.6,175.4,504.2,172.1z"/>
			
				<linearGradient id="SVGID_18_" gradientUnits="userSpaceOnUse" x1="-630.71" y1="382.4399" x2="-637.84" y2="381.0299" gradientTransform="matrix(-1 0 0 -1 -168.96 550)">
				<stop  offset="0" style="stop-color:#FFFFFF"/>
				<stop  offset="1" style="stop-color:#B8D1FF"/>
			</linearGradient>
			<path class="st19" d="M466.8,177.5c-0.1-3.6-0.7-7.1-1.7-10.6l2.4-7.1l0.8,4.8L466.8,177.5z"/>
			
				<linearGradient id="SVGID_19_" gradientUnits="userSpaceOnUse" x1="-650.0075" y1="344.498" x2="-737.8475" y2="334.618" gradientTransform="matrix(-1 0 0 -1 -168.96 550)">
				<stop  offset="0" style="stop-color:#FFFFFF"/>
				<stop  offset="1" style="stop-color:#FFFFFF"/>
			</linearGradient>
			<path class="st20" d="M502.4,174.6c1.5-0.8,3.3-0.3,4.1,1.2c0.1,0.2,0.2,0.4,0.2,0.6c1.8,7.7-1.9,23.7-6,36.7
				c-5.4,17.1-5.9,21.8-10.6,21.8S462,236,451.7,236s-8.9-9.2-6-10.2s34-3.4,35.3-5.9c2.1-3.9,7-26.1,11.3-34.8
				C494.6,180.7,498.1,177.1,502.4,174.6z"/>
			<path class="st6" d="M448.5,234.1c-1.5,0.2-3,0.1-4.5-0.3c-1.7-0.6-2.4-0.4-4.3,0.2c-0.9,0.3-1.2,0.1-3.5,0.1
				c-1.2,0-6.3-1.2-6.3-2.4c0-0.7,0-1.9,0-1.9c-0.5-0.2-1.1-0.1-1.6,0.1c-2.4,0.9-1.7-1,0.7-2.4s4.2-2.1,5.6-2.1s4.2,0.3,3.2,0
				s-2.2-2.8,0.7-1.8s6.7,2.6,8.7,3.1C449.6,227.5,449.8,234.1,448.5,234.1z"/>
			<polygon class="st21" points="468.4,164.6 474.4,172.7 465.6,179.1 			"/>
			
				<linearGradient id="SVGID_20_" gradientUnits="userSpaceOnUse" x1="-670.6388" y1="400.8018" x2="-620.0588" y2="431.8618" gradientTransform="matrix(-1 0 0 -1 -168.96 550)">
				<stop  offset="4.000000e-02" style="stop-color:#0F1780"/>
				<stop  offset="0.12" style="stop-color:#0F1780"/>
				<stop  offset="1" style="stop-color:#0168FF"/>
			</linearGradient>
			<path class="st22" d="M455.7,135.9c0.1-4.9-1.5-8.7,4.8-14c2.5-2.1,13-3.4,16.4-2.5c2.9,0.8,4.7,2.2,6,10
				c1.6,9.8-1.6,13.8-2.5,21.9L455.7,135.9z"/>
			<g>
				<defs>
					<path id="SVGID_21_" d="M455.7,135.9c0.1-4.9-1.5-8.7,4.8-14c2.5-2.1,13-3.4,16.4-2.5c2.9,0.8,4.7,2.2,6,10
						c1.6,9.8-1.6,13.8-2.5,21.9L455.7,135.9z"/>
				</defs>
				<clipPath id="SVGID_22_">
					<use xlink:href="#SVGID_21_"  style="overflow:visible;"/>
				</clipPath>
				<g class="st23">
					<path class="st24" d="M476.4,144.3c-2.5-4.4-5.1-6.1-4.8-9.1s-3.6-5.1-5.6-3.9c-8.9,5.7-8.3-5.6-11.7-0.1
						c-3.2,5.1-2.9,8.5-2.9,8.5l8.5-3.3l15.5,8.2L476.4,144.3z"/>
				</g>
			</g>
			<path class="st21" d="M472.5,146c3.1-1.8,4.3-2.4,4.3-2.4c0.4-1.2,0.4-3.9,2.5-4.5c4.3-1.2,3.6,9.4,1.5,9.2
				c-2.7-0.2,1.9,8.4,7.5,12.8c3.5,2.7-17.3,15.2-18.4,10.8c-1.5-5.6-3.4-17.6-4-20.8C465.5,148.9,468.6,145.7,472.5,146z"/>
			<g>
				<defs>
					<path id="SVGID_23_" d="M472.5,146c3.1-1.8,4.3-2.4,4.3-2.4c0.4-1.2,0.4-3.9,2.5-4.5c4.3-1.2,3.6,9.4,1.5,9.2
						c-2.7-0.2,1.9,8.4,7.5,12.8c3.5,2.7-17.3,15.2-18.4,10.8c-1.5-5.6-3.4-17.6-4-20.8C465.5,148.9,468.6,145.7,472.5,146z"/>
				</defs>
				<clipPath id="SVGID_24_">
					<use xlink:href="#SVGID_23_"  style="overflow:visible;"/>
				</clipPath>
				<g class="st25">
					<path class="st24" d="M482.2,133.4c22.1,38.8-3.7,43.3-15.5,44.2c0,0,13.8-19.8,4-21.6C460.3,154.2,482.2,133.4,482.2,133.4z"
						/>
				</g>
			</g>
			<path class="st26" d="M477.8,144c0.5-3.1,2.2-3.1,2.7-1.9s0.6,6.4-1.8,5.1C477.7,146.6,477.7,144.9,477.8,144z"/>
			<path class="st21" d="M471.8,141.4c2.7,5.2,8,6.2,5.2,10.8c-4.1,6.8-5.5,7-9,7.6s-9.9-8.2-10.5-10.1c-1.3-3.8,0.4-4.2-0.1-6
				c-0.6-1.9-1.4-2-1.5-5.9c-0.2-4.9,1.8-4.5,4.5-3.5c2.2,0.8,5.3-0.7,7.5,0.8S469.8,137.6,471.8,141.4z"/>
			<g>
				<defs>
					<path id="SVGID_25_" d="M471.8,141.4c2.7,5.2,8,6.2,5.2,10.8c-4.1,6.8-5.5,7-9,7.6s-9.9-8.2-10.5-10.1c-1.3-3.8,0.4-4.2-0.1-6
						c-0.6-1.9-1.4-2-1.5-5.9c-0.2-4.9,1.8-4.5,4.5-3.5c2.2,0.8,5.3-0.7,7.5,0.8S469.8,137.6,471.8,141.4z"/>
				</defs>
				<clipPath id="SVGID_26_">
					<use xlink:href="#SVGID_25_"  style="overflow:visible;"/>
				</clipPath>
				<g class="st27">
					<path class="st24" d="M466.7,130.6c-1.8-5.9,26.6,18.3,23.1,20.6c-1.5,1-6,3.1-4.4,7.2s-16.5,1.2-15,2.2l-8.3,4.1
						c3.6-2.4,6.2-6,7.4-10.2c0.8-3-3.5-3.4-1.2-11.9C469.3,139,468,134.8,466.7,130.6z"/>
				</g>
			</g>
			<path class="st10" d="M475.2,384c0,3.1,1.5,8.6,0,10.1s-16,7.4-20.5,9s-11.8-1.2-12.9-2.4s2.4-4,7.4-6.9s10.7-6.1,11.8-11.8
				S475.2,384,475.2,384z"/>
			<g>
				<defs>
					<path id="SVGID_27_" d="M475.2,384c0,3.1,1.5,8.6,0,10.1s-16,7.4-20.5,9s-11.8-1.2-12.9-2.4s2.4-4,7.4-6.9s10.7-6.1,11.8-11.8
						S475.2,384,475.2,384z"/>
				</defs>
				<clipPath id="SVGID_28_">
					<use xlink:href="#SVGID_27_"  style="overflow:visible;"/>
				</clipPath>
				<g class="st28">
					
						<linearGradient id="SVGID_29_" gradientUnits="userSpaceOnUse" x1="-613.0717" y1="182.3353" x2="-638.2017" y2="137.5553" gradientTransform="matrix(-1 0 0 -1 -168.96 550)">
						<stop  offset="0" style="stop-color:#FFFFFF"/>
						<stop  offset="1" style="stop-color:#B8D1FF"/>
					</linearGradient>
					<path class="st29" d="M476.8,388.5c-3.3,4.1-9.9,6.2-13.3,8.1s-11.1,5.5-13.4,5.1s-3.5-3-6.4-3.2c-1.7-0.2-3.3,0.6-4.2,2.1
						l10.9,7.9l24.2-8.8c0,0,7.4-5.7,7.1-6S476.8,388.5,476.8,388.5z"/>
				</g>
			</g>
			<path class="st10" d="M484.8,362.4c2.5,1.8,7.8,4,8.1,6s-1.1,14.3-2.5,18.9s-6.5,8.9-8.5,8.9c-3.5,0-7.9-0.8-4.7-3.5
				c4.4-3.7,1.5-15.8-2.5-20S484.8,362.4,484.8,362.4z"/>
			<g>
				<defs>
					<path id="SVGID_30_" d="M484.8,362.4c2.5,1.8,7.8,4,8.1,6s-1.1,14.3-2.5,18.9s-6.5,8.9-8.5,8.9c-3.5,0-7.9-0.8-4.7-3.5
						c4.4-3.7,1.5-15.8-2.5-20S484.8,362.4,484.8,362.4z"/>
				</defs>
				<clipPath id="SVGID_31_">
					<use xlink:href="#SVGID_30_"  style="overflow:visible;"/>
				</clipPath>
				<g class="st30">
					
						<linearGradient id="SVGID_32_" gradientUnits="userSpaceOnUse" x1="-770.5108" y1="-162.0801" x2="-797.5308" y2="-210.2301" gradientTransform="matrix(-0.59 0.8 -0.8 -0.59 -137.41 897.68)">
						<stop  offset="0" style="stop-color:#FFFFFF"/>
						<stop  offset="1" style="stop-color:#B8D1FF"/>
					</linearGradient>
					<path class="st31" d="M489.3,363.7c1.3,5.1,0.6,9.4,0.2,13.2s-0.6,8.3-1.5,10.5c-1.4,3.6-7.8,7.9-11.1,7.7
						c-2.9-0.2,0,5.8,0,5.8l12.9-4.1l7.4-24.7c0,0-0.1-9.3-0.6-9.3S489.3,363.7,489.3,363.7z"/>
				</g>
			</g>
			
				<linearGradient id="SVGID_33_" gradientUnits="userSpaceOnUse" x1="-777.2437" y1="263.1534" x2="-616.2937" y2="199.8433" gradientTransform="matrix(-0.98 0.2 -0.2 -0.98 -175.45 679.74)">
				<stop  offset="0" style="stop-color:#043EBA"/>
				<stop  offset="1" style="stop-color:#0168FF"/>
			</linearGradient>
			<path class="st32" d="M443.6,251.9c-9.4,32.9-11.1,65.8-7.6,74.7s34.8,40.7,40.2,48.2c2.2,3,12.2-8.2,10.7-10.6
				c-8-12-17.6-26.7-31.9-46.7c-2.6-3.6,19.1-69.6,19.1-69.6L443.6,251.9z"/>
			
				<linearGradient id="SVGID_34_" gradientUnits="userSpaceOnUse" x1="-658.2008" y1="321.7616" x2="-489.8008" y2="404.2116" gradientTransform="matrix(-1 0 0 -1 -168.96 550)">
				<stop  offset="0" style="stop-color:#FFFFFF"/>
				<stop  offset="1" style="stop-color:#B8D1FF"/>
			</linearGradient>
			<path class="st33" d="M450.6,168.6c-10,17-24.5,39.2-27.3,42.1s-19,7.3-21.3,8.1s-1.2,9.4,3.4,8.1s25.5-4.8,29.5-7.8
				s16.1-27.5,16.1-27.5L450.6,168.6z"/>
			<path class="st2" d="M434.8,219.1c-4,3-25,6.6-29.5,7.8c-1.1,0.3-2.3,0-3-0.9l1.5-2.5c0,0,26.7-2.4,30.5-6.2
				c3.5-3.5,10-27,16.2-36.5l0.4,10.7C451,191.7,438.8,216.1,434.8,219.1z"/>
			
				<linearGradient id="SVGID_35_" gradientUnits="userSpaceOnUse" x1="-762.9962" y1="276.1497" x2="-618.5662" y2="219.3297" gradientTransform="matrix(-1 0 0 -1 -168.96 550)">
				<stop  offset="0" style="stop-color:#043EBA"/>
				<stop  offset="1" style="stop-color:#0168FF"/>
			</linearGradient>
			<path class="st34" d="M459.7,262.4c-2.1,23.2-3.8,45.8-2.2,55.2s3.4,32.5,3.4,41.6s0,18.7,0,23.9s14.3,3.8,14.3,1
				s5.5-40.1,2.8-67.2c-0.4-4.4,11.4-44.9,11.4-44.9L459.7,262.4z"/>
			
				<linearGradient id="SVGID_36_" gradientUnits="userSpaceOnUse" x1="-655.4185" y1="316.0769" x2="-487.0185" y2="398.5269" gradientTransform="matrix(-1 0 0 -1 -168.96 550)">
				<stop  offset="0" style="stop-color:#FFFFFF"/>
				<stop  offset="1" style="stop-color:#B8D1FF"/>
			</linearGradient>
			<path class="st35" d="M504.2,172.1c-6.8-3.5-10-4.2-11.8-6s-6.2-8.4-6.2-8.4s-8.4,7.6-15.3,10.8c0,0-3.3,8-4.2,9l1.6-12.9
				l-0.8-4.8c-2.8,0.4-5.6,0.4-8.5,0.2c-5.1-0.3-9.3,4.9-11.6,9.5s2.8,49.8,0.2,64.1c-1.7,9.3-6.1,26.8-9.4,35.8
				c-4.1,11.1,7.5,20.5,7.5,20.5s7.2-17.1,9.2-22.7c1.6-4.4,4.2-18.3,4.2-18.3l-3.7,44.4c0,0,26.4,4.2,37.1,0.3
				c5.7-2.1,8.2-23.6,8.2-41.6s-7.8-19.2,2.4-50.2C504.9,196.2,510.6,175.4,504.2,172.1z"/>
			<path class="st2" d="M466.8,177.5c-0.1-3.6-0.7-7.1-1.7-10.6l2.4-7.1l0.8,4.8L466.8,177.5z"/>
			<g>
				<defs>
					<path id="SVGID_37_" d="M468.9,277.8c-8.4,31.7-6.7,26.9-4.2,50.2s1.3,38.4-2,76.2s33.4-2.1,33.4-2.1l5.4-51.8L512,254V149.4
						l-25.9,8.4l-5.8,4.8c0.5,3.5,3,16.5,3,16.5c0,7.1-5.6,34.8-8.9,38.2c-3.7,3.7-35.9,6.6-20.6,12.8c3.9,1.6,29.2-5.8,27.7,5.1
						S468.9,277.8,468.9,277.8z"/>
				</defs>
				<clipPath id="SVGID_38_">
					<use xlink:href="#SVGID_37_"  style="overflow:visible;"/>
				</clipPath>
				<g class="st36">
					<path class="st2" d="M403.7,226.5c4.5-1.2,25.5-4.8,29.5-7.8c2.6-2,8.7-13.1,12.6-20.6c0.5,9.6,1,19.4,0.8,26.7
						c-0.8,0.1-1.7,0.3-2.5,0.5c-0.3,0.1-0.5,0.2-0.7,0.4c-2-0.7-4.5-1.7-6.5-2.4c-2.9-1-1.6,1.4-0.7,1.8s-1.9,0-3.2,0
						s-3.1,0.8-5.6,2.1s-3.1,3.2-0.7,2.4c0.5-0.2,1.1-0.2,1.6-0.1c0,0,0,1.1,0,1.9c0,1.2,5,2.4,6.3,2.4c2.3,0,2.6,0.2,3.5-0.1
						c1.9-0.7,2.6-0.8,4.3-0.2c0.5,0.2,1,0.3,1.5,0.3c0.5,0.4,1.1,0.8,1.7,1c-1.9,9.6-6,25.8-9.1,34.2c-1,2.7-1.1,5.5-0.5,8.3
						c-4,22.9-4.3,42.4-1.7,48.9c2.1,5.4,14.3,19.1,24.9,30.8c0,0.6,0,1.2,0,1.7c0,9,0,18.7,0,23.9s14.3,3.8,14.3,1
						c0-0.8,0.4-4.1,1-9.2l0,0c2.2,3,12.2-8.2,10.7-10.6c-2.7-4-5.5-8.3-8.6-13c0.7-11.2,0.9-23.7-0.2-34.5
						c-0.2-2,2.2-11.8,4.9-21.6c3.2-0.1,6.4-0.6,9.5-1.6c5.7-2.1,8.2-23.6,8.2-41.6c0-13.3-4.2-17.4-2.4-31.1
						c0.7-2.3,1.5-4.9,2.4-7.9c3.4-11,6.6-24,6.5-32.5c0-4-0.7-7.2-2.9-8.4c-6.8-3.5-10-4.2-11.8-6s-6.2-8.4-6.2-8.4l-0.7,0.6
						c-2-2.2-3.7-4.7-4.9-7.4c0.1-0.9,0.2-1.8,0.4-2.6c1.2,0,2-3.6,1.5-6.4c1.1-4.2,1.3-8.5,0.6-12.8c-1.3-7.8-3-9.2-6-10
						c-3.5-0.9-13.9,0.4-16.4,2.5c-3.3,2.7-4.4,5.1-4.8,7.3c-0.3,0.1-0.6,0.6-1.5,1.9c-3.2,5.1-2.9,8.5-2.9,8.5l1.5-0.6
						c-0.5,7,3.4,15.8,6.3,21h-0.2c-5.8-1-10,0.1-12.3,4.7c-10,17-20.6,43.1-23.5,46s-19,7.3-21.3,8.1S399.1,227.8,403.7,226.5z
						 M457.1,249.5l0.2-1.1l-0.1,1.1L457.1,249.5z M455.3,304.4c-0.1,4.2,0.1,8.5,0.6,12.7c0.2,1.3,0.5,2.9,0.7,4.7l-3.3-4.6
						C452.6,316.3,453.5,311.3,455.3,304.4L455.3,304.4z"/>
				</g>
			</g>
			
				<linearGradient id="SVGID_39_" gradientUnits="userSpaceOnUse" x1="-609.8104" y1="343.785" x2="-735.0604" y2="347.445" gradientTransform="matrix(-1 0 0 -1 -168.96 550)">
				<stop  offset="0" style="stop-color:#FFFFFF"/>
				<stop  offset="1" style="stop-color:#FFFFFF"/>
			</linearGradient>
			<path class="st37" d="M502.4,174.6c1.5-0.8,3.3-0.3,4.1,1.2c0.1,0.2,0.2,0.4,0.2,0.6c1.8,7.7-1.9,23.7-6,36.7
				c-5.4,17.1-5.9,21.8-10.6,21.8S462,236,451.7,236s-8.9-9.2-6-10.2s34-3.4,35.3-5.9c2.1-3.9,7-26.1,11.3-34.8
				C494.6,180.7,498.1,177.1,502.4,174.6z"/>
			<path class="st2" d="M443.6,228.9c0.9,0.2,1.9,0.2,2.9-0.1c3-1.1,26.7-3.6,31.3-5.3s4.8-1,5.9-7.7c1-6.2,7-17.5,9.9-33
				c2.3-3.4,5.3-6.2,8.8-8.3c1.5-0.8,3.3-0.3,4.1,1.2c0.1,0.2,0.2,0.4,0.2,0.6c1.8,7.7-1.9,23.7-6,36.7
				c-5.4,17.1-5.9,21.8-10.6,21.8S462,236,451.7,236C444.9,236,443.2,231.9,443.6,228.9z"/>
			<path class="st21" d="M448.5,234.1c-1.5,0.2-3,0.1-4.5-0.3c-1.7-0.6-2.4-0.4-4.3,0.2c-0.9,0.3-1.2,0.1-3.5,0.1
				c-1.2,0-6.3-1.2-6.3-2.4c0-0.7,0-1.9,0-1.9c-0.5-0.2-1.1-0.1-1.6,0.1c-2.4,0.9-1.7-1,0.7-2.4s4.2-2.1,5.6-2.1s4.2,0.3,3.2,0
				s-2.2-2.8,0.7-1.8s6.7,2.6,8.7,3.1C449.6,227.5,449.8,234.1,448.5,234.1z"/>
			<path class="st24" d="M449,229.5c0.5,2.1,0.3,4.6-0.5,4.6c-1.5,0.2-3,0.1-4.5-0.3c-1.7-0.6-2.4-0.4-4.3,0.2
				c-0.9,0.3-1.2,0.1-3.5,0.1c-1.2,0-6.3-1.2-6.3-2.4c0-0.7,0-1.9,0-1.9c-0.5-0.2-1.1-0.1-1.6,0.1c0,0,4.3-2.9,6.1-2.9
				S443.4,228.9,449,229.5z"/>
			<path class="st6" d="M406.1,225.4c-1.2,1-2.5,1.7-3.9,2.1c-1.7,0.4-2.2,0.9-3.5,2.5c-0.6,0.8-1,0.8-2.9,2c-1,0.7-5.9,2.4-6.6,1.4
				l-1-1.6c-0.5,0.1-1,0.5-1.3,0.9c-1.6,2-2,0.1-0.6-2.4s2.4-4.1,3.6-4.8s3.7-2,2.7-1.8s-3.4-1.2-0.4-1.9s7-1.4,9-2
				C403.5,219.1,407.3,224.6,406.1,225.4z"/>
			<path class="st21" d="M406.1,225.4c-1.2,1-2.5,1.7-3.9,2.1c-1.7,0.4-2.2,0.9-3.5,2.5c-0.6,0.8-1,0.8-2.9,2
				c-1,0.7-5.9,2.4-6.6,1.4l-1-1.6c-0.5,0.1-1,0.5-1.3,0.9c-1.6,2-2,0.1-0.6-2.4s2.4-4.1,3.6-4.8s3.7-2,2.7-1.8s-3.4-1.2-0.4-1.9
				s7-1.4,9-2C403.5,219.1,407.3,224.6,406.1,225.4z"/>
			<path class="st2" d="M404.1,221.2c1.5,1.5,2.7,3.7,2,4.2c-1.2,1-2.5,1.7-3.9,2.1c-1.7,0.4-2.2,0.9-3.5,2.5c-0.6,0.8-1,0.8-2.9,2
				c-1,0.7-5.9,2.4-6.6,1.4l-1-1.6c-0.5,0.1-1,0.5-1.3,0.9c0,0,2-4.8,3.5-5.7S399.1,223.7,404.1,221.2z"/>
			
				<linearGradient id="SVGID_40_" gradientUnits="userSpaceOnUse" x1="-638.7896" y1="403.6103" x2="-633.0797" y2="403.7203" gradientTransform="matrix(-1 0 0 -1 -168.96 550)">
				<stop  offset="4.000000e-02" style="stop-color:#0F1780"/>
				<stop  offset="0.12" style="stop-color:#0F1780"/>
				<stop  offset="1" style="stop-color:#0168FF"/>
			</linearGradient>
			<path class="st38" d="M477.3,141.7c-0.2,0.7-0.3,1.3-0.4,2c0,0-7.9,7.5-10.8,7.6s-9.9-2.4-11.7-3.3s-0.8-6.9-0.8-6.9l12,3.4
				L477.3,141.7z"/>
			<path class="st39" d="M477.5,141c-3.1,1.1-6.3,1.8-9.6,2.1c-3,0.3-11.5-2-11.8-3c0,0-1.2,0.5-2.4,1s6.9,3.2,11.4,3.8
				c2.9,0.4,8-1.5,10.3-2.3s2-0.8,2-0.8L477.5,141z"/>
			
				<linearGradient id="SVGID_41_" gradientUnits="userSpaceOnUse" x1="-585.2868" y1="271.1973" x2="-610.9968" y2="317.9773" gradientTransform="matrix(-1 0 0 -1 -168.96 550)">
				<stop  offset="0" style="stop-color:#FFFFFF"/>
				<stop  offset="1" style="stop-color:#B8D1FF"/>
			</linearGradient>
			<path class="st40" d="M406.5,230l28.3,19.9v166.3L387,398.9V249.5c0-10.7-5.2-20.7-13.9-26.8l-14.4-10.1L406.5,230z"/>
			<g>
				
					<linearGradient id="SVGID_42_" gradientUnits="userSpaceOnUse" x1="-615.092" y1="217.2985" x2="-401.732" y2="296.2585" gradientTransform="matrix(-1 0 0 -1 -168.96 550)">
					<stop  offset="0" style="stop-color:#FFFFFF"/>
					<stop  offset="1" style="stop-color:#B8D1FF"/>
				</linearGradient>
				<path class="st41" d="M406.5,230l28.3,19.9v166.3L387,398.9V249.5c0-10.7-5.2-20.7-13.9-26.8l-14.4-10.1L406.5,230z"/>
			</g>
			
				<linearGradient id="SVGID_43_" gradientUnits="userSpaceOnUse" x1="-663.7307" y1="220.1441" x2="-585.0006" y2="218.1941" gradientTransform="matrix(-1 0 0 -1 -168.96 550)">
				<stop  offset="0" style="stop-color:#FFFFFF"/>
				<stop  offset="1" style="stop-color:#B8D1FF"/>
			</linearGradient>
			<path class="st42" d="M392.8,431.5l42-15.3V265.4c0-9.7-4.7-18.8-12.6-24.4l-15.6-11l3.3-4.2l18.3,13.1
				c7.8,5.6,12.4,14.6,12.5,24.3v158l-5.8,2.1l0,0l-42,15.3L392.8,431.5z"/>
			<polygon class="st10" points="392.8,431.5 392.8,438.5 345,421.1 345,414.1 			"/>
			<polygon class="st10" points="409.9,225.7 406.5,230 358.7,212.6 362.1,208.3 			"/>
			
				<linearGradient id="SVGID_44_" gradientUnits="userSpaceOnUse" x1="-577.0425" y1="102.2614" x2="-529.5726" y2="187.2114" gradientTransform="matrix(-1 0 0 -1 -168.96 550)">
				<stop  offset="0" style="stop-color:#FFFFFF"/>
				<stop  offset="1" style="stop-color:#B8D1FF"/>
			</linearGradient>
			<polygon class="st43" points="392.8,431.5 434.8,416.2 387,398.9 345,414.1 			"/>
			<path class="st2" d="M249.8,462.8c4.5,0,9-0.9,13.3-2.4l98.5-35.8c0.4-0.2,0.6-0.7,0.4-1.1c-0.2-0.3-0.5-0.5-0.9-0.4l-98.5,35.8
				c-8.2,3.1-17.2,3.1-25.4,0l-37.8-16.2c-1.9-0.7-2.9-2.8-2.2-4.7c0.4-1,1.2-1.8,2.2-2.2l0.7-0.2c2.1-0.8,4.5-0.8,6.6,0l32.8,13.2
				c4.6,1.7,9.8-0.7,11.5-5.3c0.4-1,0.5-2,0.5-3.1v-30.2c0-0.5-0.4-0.8-0.8-0.8s-0.8,0.4-0.8,0.8v30.2c0,4-3.2,7.3-7.2,7.3
				c-0.9,0-1.7-0.1-2.5-0.4L207.2,434c-2.5-0.9-5.3-0.9-7.8,0l-0.7,0.2c-2.8,1-4.2,4-3.3,6.7c0.5,1.5,1.7,2.7,3.3,3.3l37.8,16.3
				C240.8,462.1,245.3,462.8,249.8,462.8z"/>
			<path class="st2" d="M223.4,144.8l176,64.1c7.3,2.7,13.3-1.1,13.3-8.4V83c0-7.3-6-15.4-13.3-18.1l-176-64
				C216-1.8,210.1,2,210.1,9.3v117.4C210.1,134,216,142.1,223.4,144.8z"/>
			
				<linearGradient id="SVGID_45_" gradientUnits="userSpaceOnUse" x1="-508.9273" y1="560.5581" x2="-393.9973" y2="115.8381" gradientTransform="matrix(-1 0 0 -1 -168.96 550)">
				<stop  offset="0" style="stop-color:#FFFFFF"/>
				<stop  offset="1" style="stop-color:#B8D1FF"/>
			</linearGradient>
			<path class="st44" d="M222,145.4l176,64.1c7.3,2.7,13.3-1.1,13.3-8.4V83.6c0-7.3-6-15.4-13.3-18.1L222,1.4
				c-7.3-2.7-13.3,1.1-13.3,8.4v117.4C208.7,134.6,214.6,142.7,222,145.4z"/>
			<path class="st45" d="M243.7,54.1c0-11.3,7.9-17.7,17.7-14.3s17.7,15.3,17.7,26.6s-7.9,17.7-17.7,14.3S243.7,65.4,243.7,54.1z
				 M245.4,54.7c0,10.2,7.2,21,16,24c8.8,3,16-2.7,16-12.9s-7.2-21-16-24S245.4,44.5,245.4,54.7z"/>
			<path class="st46" d="M261.4,80.7c0.6,0.2,1.1,0.4,1.7,0.5c0.5,0.1,0.8-0.2,0.8-0.8c0-0.6-0.4-1-0.9-1.2
				c-8.8-2.1-16.6-12.2-17.5-22.7c0-0.6-0.4-1-0.9-1.2c-0.5-0.1-0.8,0.2-0.8,0.8C244.6,67,252.4,77.6,261.4,80.7z"/>
			<path class="st47" d="M250.3,72.8c0.4,0.2,0.8,0.1,1.1-0.2c0.6-0.8,0.5-1.8-0.1-2.5c-3.3-4.4-5.1-9.6-5.2-15.1
				c0-9.8,6.9-15.3,15.3-12.4c0.9,0.3,1.5-0.3,1.5-1.2c0-1-0.6-1.9-1.5-2.3c-10.1-3.6-18.4,3.1-18.4,14.8c0.2,6.6,2.3,12.9,6.3,18.2
				C249.5,72.4,249.9,72.7,250.3,72.8z"/>
			<polygon class="st46" points="250.5,86.9 254.3,88.2 258.3,78.2 258,78 254.1,87.7 250.5,86.5 			"/>
			<polygon class="st47" points="247.6,44.1 247.9,44 242.5,31.6 238.2,30.1 238.2,30.5 242.3,31.9 			"/>
			<polygon class="st45" points="276.9,57.2 281.3,50.7 285.5,52.2 285.5,51.8 281.1,50.3 276.6,56.9 			"/>
			<polygon class="st45" points="288.2,55.1 302.6,60.1 302.6,55.4 288.2,50.4 			"/>
			<polygon class="st47" points="220.5,26.5 235,31.5 235,26.8 220.5,21.8 			"/>
			<polygon class="st46" points="233.3,83 247.8,88.1 247.8,83.4 233.3,78.3 			"/>
			<path class="st48" d="M399.6,189.4v-2.3l0.3,0.1l0.8,1.8l0.8-1.2l0.3,0.1v2.3l-0.4-0.1v-1.5l-0.6,1l-0.2-0.1l-0.6-1.5v1.5
				L399.6,189.4z"/>
			<path class="st48" d="M398.3,189c-0.5-0.2-0.8-0.7-0.8-1.2c0-0.5,0.3-0.8,0.8-0.6c0.5,0.2,0.8,0.7,0.8,1.2
				C399.1,188.9,398.8,189.2,398.3,189z M398.3,188.6c0.2,0.1,0.5,0,0.5-0.4c0-0.3-0.2-0.6-0.5-0.7c-0.3-0.1-0.5,0-0.5,0.4
				C397.9,188.2,398.1,188.5,398.3,188.6z"/>
			<path class="st48" d="M396.3,186.5c0.2,0.1,0.4,0.2,0.5,0.4v-0.2l0.3,0.1v1.8l-0.4-0.1v-0.9c0-0.3-0.1-0.6-0.4-0.7
				c-0.2-0.1-0.4,0-0.4,0.3v0.9l-0.4-0.1v-1C395.6,186.5,395.9,186.3,396.3,186.5z"/>
			<path class="st48" d="M388.3,185.3l-0.4-0.1v-1.9l-0.7-0.2v-0.4l1.7,0.6v0.4l-0.7-0.2V185.3z"/>
			<path class="st48" d="M386.1,182.8v0.9c0,0.3,0.1,0.6,0.4,0.7c0.2,0.1,0.4,0,0.4-0.3v-1l0.4,0.1v1c0,0.5-0.3,0.7-0.6,0.5
				c-0.2-0.1-0.4-0.2-0.5-0.4v0.2l-0.3-0.1v-1.8L386.1,182.8z"/>
			<path class="st48" d="M383.8,182.8c0-0.6,0.3-0.8,0.8-0.6c0.5,0.2,0.8,0.7,0.8,1.2c0,0.5-0.3,0.8-0.8,0.6
				c-0.3-0.1-0.5-0.3-0.6-0.5l0.2-0.2c0.1,0.2,0.2,0.3,0.4,0.3c0.3,0.1,0.5,0,0.5-0.2l-1.2-0.4C383.8,182.9,383.8,182.8,383.8,182.8
				z M384.5,182.5c-0.1-0.1-0.3,0-0.4,0.1c0,0,0,0.1,0,0.2l0.9,0.3C384.9,182.8,384.8,182.6,384.5,182.5z"/>
			<path class="st48" d="M372.1,177.1l0.5,1.9l0.5-1.6l0.3,0.1l0.5,1.9l0.5-1.6l0.4,0.1l-0.7,2.1l-0.4-0.1l-0.5-1.9l-0.5,1.5
				l-0.4-0.1l-0.6-2.6L372.1,177.1z"/>
			<path class="st48" d="M370.1,177.8c0-0.6,0.3-0.8,0.8-0.6c0.5,0.2,0.8,0.7,0.8,1.2c0,0.5-0.3,0.8-0.8,0.6
				c-0.3-0.1-0.5-0.3-0.6-0.5l0.2-0.2c0.1,0.2,0.2,0.3,0.4,0.3c0.3,0.1,0.5,0,0.5-0.2l-1.2-0.4C370.1,178,370.1,177.9,370.1,177.8z
				 M370.9,177.5c-0.1-0.1-0.3,0-0.4,0.1c0,0,0,0.1,0,0.2l0.9,0.3C371.3,177.9,371.1,177.6,370.9,177.5L370.9,177.5z"/>
			<path class="st48" d="M368.5,175.7v0.9c0.1-0.1,0.3-0.1,0.5-0.1c0.5,0.2,0.8,0.7,0.8,1.2c0,0.5-0.3,0.8-0.8,0.6
				c-0.2-0.1-0.4-0.2-0.5-0.4v0.2l-0.3-0.1v-2.4L368.5,175.7z M369,178c0.3,0.1,0.5,0,0.5-0.4c0-0.3-0.2-0.6-0.5-0.7
				c-0.3-0.1-0.5,0-0.5,0.4C368.5,177.6,368.7,177.9,369,178z"/>
			<path class="st48" d="M361.3,175.5l-0.4-0.1v-1.9l-0.7-0.2v-0.4l1.7,0.6v0.4l-0.7-0.2V175.5z"/>
			<path class="st48" d="M359.1,172.9c0.2,0.1,0.4,0.2,0.5,0.4v-0.9l0.4,0.1v2.4l-0.4-0.1V174c0-0.3-0.1-0.6-0.4-0.7
				c-0.2-0.1-0.4,0-0.4,0.3v0.9l-0.4-0.1v-1C358.4,172.9,358.7,172.8,359.1,172.9z"/>
			<path class="st48" d="M356.8,172.1v0.9c0,0.3,0.1,0.6,0.4,0.7c0.2,0.1,0.4,0,0.4-0.3v-0.9l0.4,0.1v1c0,0.5-0.3,0.7-0.6,0.5
				c-0.2-0.1-0.4-0.2-0.5-0.4v0.2l-0.3-0.1V172L356.8,172.1z"/>
			<path class="st48" d="M346.1,168v-0.4l1.5,0.5v2.3l-0.4-0.1v-0.9l-1-0.4v-0.4l1,0.4v-0.7L346.1,168z"/>
			<path class="st48" d="M345.4,168.2V168l0.3,0.1v1.8l-0.4-0.1v-0.9c0-0.3-0.2-0.6-0.4-0.7h-0.1v-0.4
				C345.1,167.9,345.3,168,345.4,168.2z"/>
			<path class="st48" d="M344.4,167.3c-0.1-0.1-0.2-0.2-0.2-0.3c0-0.1,0-0.2,0.1-0.2c0,0,0.1,0,0.1,0c0.1,0.1,0.2,0.2,0.2,0.3
				C344.6,167.2,344.5,167.3,344.4,167.3C344.4,167.3,344.4,167.3,344.4,167.3z M344.5,169.4l-0.4-0.1v-1.8l0.4,0.1V169.4z"/>
			<path class="st48" d="M333.6,165.4c-0.5-0.1-0.8-0.5-0.8-1c0-0.8,1.2-0.1,1.2-0.6c0-0.2-0.1-0.4-0.4-0.5c-0.2-0.1-0.4-0.1-0.5,0
				l-0.1-0.4c0.2-0.1,0.4-0.1,0.7,0c0.5,0.1,0.8,0.5,0.8,1c0,0.9-1.2,0.1-1.2,0.6c0,0.2,0.1,0.4,0.4,0.5c0.2,0.1,0.4,0.1,0.7,0
				l0.1,0.4C334.1,165.6,333.8,165.6,333.6,165.4z"/>
			<path class="st48" d="M331.8,163c0.2,0.1,0.5,0.2,0.6,0.4l-0.1,0.2c-0.1-0.2-0.3-0.3-0.5-0.3c-0.2-0.1-0.4,0-0.4,0.2l0,0l0.4,0.1
				c0.4,0.1,0.6,0.4,0.6,0.8c0,0.3-0.2,0.4-0.6,0.3c-0.2-0.1-0.4-0.2-0.5-0.4v0.2l-0.3-0.1v-1C331.1,163,331.4,162.8,331.8,163z
				 M331.8,164.5c0.2,0.1,0.3,0,0.3-0.1s-0.1-0.3-0.3-0.3l-0.4-0.1v0.2C331.5,164.3,331.6,164.4,331.8,164.5L331.8,164.5z"/>
			<path class="st48" d="M329.8,163.6c0.1,0.1,0.1,0.1,0.2,0.1c0.1,0,0.2,0,0.2-0.2v-0.8l-0.4-0.1v-0.3l0.4,0.1V162l0.4,0.1v0.4
				l0.2,0.1v0.4l-0.2-0.1v0.8c0,0.4-0.2,0.5-0.5,0.4c-0.1,0-0.3-0.1-0.3-0.2L329.8,163.6z"/>
			<path class="st48" d="M320.9,160.8c-0.5-0.1-0.8-0.5-0.8-1c0-0.8,1.2-0.1,1.2-0.6c0-0.2-0.1-0.4-0.4-0.5c-0.2-0.1-0.4-0.1-0.5,0
				l-0.1-0.4c0.2-0.1,0.4-0.1,0.7,0c0.5,0.1,0.8,0.5,0.8,1c0,0.9-1.2,0.1-1.2,0.6c0,0.2,0.1,0.4,0.4,0.5c0.2,0.1,0.4,0.1,0.7,0
				l0.1,0.4C321.4,160.9,321.1,160.9,320.9,160.8z"/>
			<path class="st48" d="M318.5,158.2v0.9c0,0.3,0.1,0.6,0.4,0.7c0.2,0.1,0.4,0,0.4-0.3v-0.9l0.4,0.1v1c0,0.5-0.3,0.7-0.6,0.5
				c-0.2-0.1-0.4-0.2-0.5-0.4v0.2l-0.3-0.1v-1.8L318.5,158.2z"/>
			<path class="st48" d="M316.8,157.5c0.2,0.1,0.4,0.2,0.5,0.4v-0.2l0.3,0.1v1.8l-0.4-0.1v-0.9c0-0.3-0.1-0.6-0.4-0.7
				c-0.2-0.1-0.4,0-0.4,0.3v0.9l-0.4-0.1v-1C316.2,157.6,316.5,157.4,316.8,157.5z"/>
			
				<linearGradient id="SVGID_46_" gradientUnits="userSpaceOnUse" x1="-569.2496" y1="911.7112" x2="-566.9595" y2="853.8512" gradientTransform="matrix(-1 -0.36 0 -1 -168.96 839.47)">
				<stop  offset="0.31" style="stop-color:#EF3292"/>
				<stop  offset="1" style="stop-color:#0168FF"/>
			</linearGradient>
			<path class="st49" d="M398.8,181.3c0.5,0.2,0.8-0.2,0.8-0.7v-19.5c0-0.6-0.3-1.1-0.8-1.3c-0.5-0.2-0.8,0.2-0.8,0.7V180
				C397.9,180.6,398.3,181.1,398.8,181.3z"/>
			
				<linearGradient id="SVGID_47_" gradientUnits="userSpaceOnUse" x1="-555.5715" y1="897.5712" x2="-553.9615" y2="857.1312" gradientTransform="matrix(-1 -0.36 0 -1 -168.96 839.47)">
				<stop  offset="0.31" style="stop-color:#EF3292"/>
				<stop  offset="1" style="stop-color:#0168FF"/>
			</linearGradient>
			<path class="st50" d="M385.5,176.5c0.5,0.2,0.8-0.2,0.8-0.7v-11.6c0-0.6-0.3-1.1-0.8-1.3c-0.5-0.2-0.8,0.2-0.8,0.7v11.6
				C384.7,175.7,385,176.2,385.5,176.5z"/>
			
				<linearGradient id="SVGID_48_" gradientUnits="userSpaceOnUse" x1="-542.57" y1="903.2212" x2="-540.76" y2="857.5512" gradientTransform="matrix(-1 -0.36 0 -1 -168.96 839.47)">
				<stop  offset="0.31" style="stop-color:#EF3292"/>
				<stop  offset="1" style="stop-color:#0168FF"/>
			</linearGradient>
			<path class="st51" d="M372.2,171.6c0.5,0.2,0.8-0.2,0.8-0.7v-8.4c0-0.6-0.3-1.1-0.8-1.3c-0.5-0.2-0.8,0.2-0.8,0.7v8.4
				C371.4,170.9,371.7,171.4,372.2,171.6z"/>
			
				<linearGradient id="SVGID_49_" gradientUnits="userSpaceOnUse" x1="-529.5551" y1="914.7814" x2="-527.2951" y2="857.8014" gradientTransform="matrix(-1 -0.36 0 -1 -168.96 839.47)">
				<stop  offset="0.31" style="stop-color:#EF3292"/>
				<stop  offset="1" style="stop-color:#0168FF"/>
			</linearGradient>
			<path class="st52" d="M358.9,166.8c0.5,0.2,0.8-0.2,0.8-0.7v-18.2c0-0.6-0.3-1.1-0.8-1.3c-0.5-0.2-0.8,0.2-0.8,0.7v18.1
				C358.1,166,358.4,166.6,358.9,166.8z"/>
			
				<linearGradient id="SVGID_50_" gradientUnits="userSpaceOnUse" x1="-515.9243" y1="908.3418" x2="-513.9843" y2="859.4618" gradientTransform="matrix(-1 -0.36 0 -1 -168.96 839.47)">
				<stop  offset="0.31" style="stop-color:#EF3292"/>
				<stop  offset="1" style="stop-color:#0168FF"/>
			</linearGradient>
			<path class="st53" d="M345.6,162c0.5,0.2,0.8-0.2,0.8-0.7v-22.4c0-0.6-0.3-1.1-0.8-1.3c-0.5-0.2-0.8,0.2-0.8,0.7v22.4
				C344.8,161.2,345.1,161.7,345.6,162z"/>
			
				<linearGradient id="SVGID_51_" gradientUnits="userSpaceOnUse" x1="-502.2258" y1="902.4218" x2="-500.5758" y2="860.7418" gradientTransform="matrix(-1 -0.36 0 -1 -168.96 839.47)">
				<stop  offset="0.31" style="stop-color:#EF3292"/>
				<stop  offset="1" style="stop-color:#0168FF"/>
			</linearGradient>
			<path class="st54" d="M332.4,157.1c0.5,0.2,0.8-0.2,0.8-0.7V125c0-0.6-0.3-1.1-0.8-1.3c-0.5-0.2-0.8,0.2-0.8,0.7v31.4
				C331.5,156.4,331.9,156.9,332.4,157.1z"/>
			
				<linearGradient id="SVGID_52_" gradientUnits="userSpaceOnUse" x1="-489.1533" y1="905.7518" x2="-487.4033" y2="861.6719" gradientTransform="matrix(-1 -0.36 0 -1 -168.96 839.47)">
				<stop  offset="0.31" style="stop-color:#EF3292"/>
				<stop  offset="1" style="stop-color:#0168FF"/>
			</linearGradient>
			<path class="st55" d="M319.1,152.3c0.5,0.2,0.8-0.2,0.8-0.7v-27.7c0-0.6-0.3-1.1-0.8-1.3c-0.5-0.2-0.8,0.2-0.8,0.7V151
				C318.3,151.6,318.6,152.1,319.1,152.3z"/>
			<path class="st48" d="M231.4,36.5l-1.3-2.4v-0.4l3,1.1v0.5l-2.4-0.9l1.3,2.4v0.4l-0.3-0.1c-0.9-0.3-1.3,0-1.3,0.6
				c0,0.7,0.5,1.3,1.2,1.5c0.5,0.2,1,0.2,1.5-0.1l0.2,0.5c-0.5,0.3-1.1,0.3-1.7,0.1c-1-0.3-1.7-1.2-1.7-2.2
				C229.9,36.6,230.4,36.2,231.4,36.5z"/>
			<path class="st48" d="M226.3,34.9c-0.5-0.3-0.7-0.9-0.8-1.5c0-0.9,0.7-1.2,1.7-0.8c0.9,0.3,1.6,1.1,1.6,2c0,0.6-0.3,0.9-0.7,0.9
				c0.6,0.4,0.9,1,0.9,1.7c0,1-0.7,1.3-1.8,0.9c-1-0.3-1.7-1.2-1.8-2.2c-0.1-0.5,0.3-0.9,0.8-1C226.2,34.9,226.3,34.9,226.3,34.9z
				 M227.2,37.7c0.8,0.3,1.3,0.1,1.3-0.6c-0.1-0.8-0.6-1.4-1.3-1.6c-0.8-0.3-1.3-0.1-1.3,0.6C226,36.8,226.5,37.5,227.2,37.7
				L227.2,37.7z M228.4,34.5c0-0.7-0.5-1.2-1.2-1.4c-0.7-0.3-1.2,0-1.2,0.6c0.1,0.7,0.5,1.2,1.2,1.4C228,35.3,228.4,35.1,228.4,34.5
				L228.4,34.5z"/>
			<path class="st48" d="M223.6,34.2c-0.7-0.3-1.1-1.1-1.1-1.9c0-0.9,0.4-1.3,1.1-1.1c0.7,0.3,1.1,1.1,1.1,1.9
				C224.6,34,224.2,34.5,223.6,34.2z M223.6,33.9c0.4,0.2,0.7-0.2,0.7-0.9c0.1-0.6-0.2-1.1-0.7-1.4c-0.4-0.2-0.7,0.2-0.7,0.9
				C222.8,33,223.1,33.6,223.6,33.9z M223.9,36.9l-0.4-0.1l-3.2-6.6l0.4,0.1L223.9,36.9z M220.7,35.7c-0.7-0.3-1.1-1.1-1.1-1.9
				c0-0.9,0.4-1.3,1.1-1.1c0.7,0.3,1.1,1.1,1.1,1.9C221.8,35.5,221.3,36,220.7,35.7z M220.7,35.4c0.4,0.2,0.7-0.2,0.7-0.9
				c0.1-0.6-0.2-1.1-0.7-1.4c-0.4-0.2-0.7,0.2-0.7,0.9C219.9,34.6,220.2,35.1,220.7,35.4z"/>
			<path class="st48" d="M246.2,91.1v0.5l-1.1-0.4v4.9l-0.5-0.2v-5.4L246.2,91.1z"/>
			<path class="st48" d="M242,91.9l0.6,0.2l-0.2-1.8l-2.1-0.8V89l2.6,0.9l0.2,2.8l-1-0.4c-1.2-0.4-1.6-0.1-1.6,0.6
				c0,0.7,0.5,1.4,1.2,1.6c0.5,0.2,1,0.2,1.4-0.1l0.2,0.5c-0.5,0.3-1.1,0.3-1.7,0.1c-1-0.3-1.7-1.2-1.7-2.3
				C240.1,91.8,240.6,91.3,242,91.9z"/>
			<path class="st48" d="M238.3,91.2c-0.7-0.3-1.1-1.1-1.1-1.9c0-0.9,0.4-1.3,1.1-1.1c0.7,0.3,1.1,1.1,1.1,1.9
				C239.4,91,238.9,91.4,238.3,91.2z M238.3,90.8c0.4,0.2,0.7-0.2,0.7-0.9c0.1-0.6-0.2-1.1-0.7-1.4c-0.4-0.2-0.7,0.2-0.7,0.9
				C237.5,90,237.8,90.6,238.3,90.8z M238.7,93.8l-0.4-0.1l-3.2-6.6l0.4,0.1L238.7,93.8z M235.4,92.7c-0.7-0.3-1.1-1.1-1.1-1.9
				c0-0.9,0.4-1.3,1.1-1.1c0.7,0.3,1.1,1.1,1.1,1.9C236.5,92.5,236.1,92.9,235.4,92.7z M235.4,92.3c0.4,0.2,0.7-0.2,0.7-0.9
				c0.1-0.6-0.2-1.1-0.7-1.4c-0.4-0.2-0.7,0.2-0.7,0.9C234.6,91.5,234.9,92.1,235.4,92.3L235.4,92.3z"/>
			<path class="st48" d="M296.5,66l0.9,0.3v-1.2l0.5,0.2v1.3l2,0.7l-2.4-4.4l0.5,0.2l2.5,4.5V68l-2.6-1v1.4l-0.5-0.2v-1.4l-0.9-0.3
				L296.5,66z"/>
			<path class="st48" d="M296,62.3v1.5l-0.5-0.2v-1l-2.4-0.9l1.9,5.6l-0.5-0.2l-2-5.8v-0.4L296,62.3z"/>
			<path class="st48" d="M290.8,63.3c-0.7-0.3-1.1-1.1-1.1-1.9c0-0.9,0.4-1.3,1.1-1.1c0.7,0.3,1.1,1.1,1.1,1.9
				C291.8,63.1,291.4,63.5,290.8,63.3z M290.8,63c0.4,0.2,0.7-0.2,0.7-0.9c0.1-0.6-0.2-1.1-0.7-1.4c-0.4-0.2-0.7,0.2-0.7,0.9
				C289.9,62.2,290.2,62.7,290.8,63L290.8,63z M291.1,66l-0.4-0.1l-3.2-6.6l0.4,0.1L291.1,66z M287.9,64.8c-0.7-0.3-1.1-1.1-1.1-1.8
				c0-0.9,0.4-1.3,1.1-1.1c0.7,0.3,1.1,1.1,1.1,1.9C288.9,64.6,288.5,65.1,287.9,64.8L287.9,64.8z M287.9,64.5
				c0.4,0.2,0.7-0.2,0.7-0.9c0.1-0.6-0.2-1.1-0.7-1.4c-0.4-0.2-0.7,0.2-0.7,0.9C287.1,63.7,287.4,64.2,287.9,64.5L287.9,64.5z"/>
			<path class="st45" d="M400.9,134.4c0.3,0,0.6,0,0.8-0.1l-0.1-0.4c-0.7,0.2-1.4,0.1-2-0.3c-3.1-1.9-4.6-10.5-5.8-17.4
				c-0.4-2.6-0.9-5.2-1.6-7.7c-1.3-3.9-3.1-6.4-5.4-7.4c-2-0.8-4.3-0.6-6.2,0.4c-2.3,1-3.9,3.2-5.3,5c-2,2.7-3.6,4.8-6.2,3.2
				c-2.7-1.7-3.6-4.7-4.4-7.6c-0.4-1.9-1.2-3.7-2.2-5.3c-1.2-1.6-3-3.5-5.8-3.7c-3.1-0.2-6.8,1.8-11.2,6.2c-3.6,3.6-8,0.3-12.8-3.1
				s-9.7-7-13.4-2.6c-5,6-13.2,5.3-13.3,5.3v0.4c0.1,0,8.5,0.7,13.6-5.5c3.5-4.2,8-0.9,12.8,2.6s9.5,6.9,13.3,3
				c4.2-4.2,7.9-6.3,10.9-6.1c2.6,0.2,4.3,1.9,5.5,3.5c1,1.6,1.7,3.3,2.1,5.1c0.9,3,1.7,6,4.6,7.8s4.8-0.7,6.7-3.2
				c1.4-1.8,3-3.9,5.2-4.9c1.8-1,4-1.1,5.9-0.4c2.2,1,3.9,3.4,5.1,7.2c0.7,2.5,1.2,5.1,1.6,7.6c1.2,7,2.8,15.7,6,17.7
				C399.8,134.1,400.3,134.3,400.9,134.4z"/>
			
				<linearGradient id="SVGID_53_" gradientUnits="userSpaceOnUse" x1="-522.6333" y1="437.0971" x2="-544.9533" y2="489.3971" gradientTransform="matrix(-1 0 0 -1 -168.96 550)">
				<stop  offset="0" style="stop-color:#FFFFFF"/>
				<stop  offset="1" style="stop-color:#B8D1FF"/>
			</linearGradient>
			<path class="st56" d="M307.5,83.5c0,0,6.4,1.3,10.4,9s11.2,10.2,15,3.1s3.7-3.8,9.1-5.9s3.5-3.9,9.8-8.8s11.4,4.1,14.1,7.6
				s7.6-3.6,12.2-0.7s2.4,10.6,5.6,15.8s5,3.2,7.1,9.5s5.9,7,12.3,5.1v16.6l-95.5-37.6V83.5z"/>
			<path class="st46" d="M397.8,119.6c1.8-0.1,3.6-0.4,5.3-0.9l-0.1-0.5c-6,1.7-9.8,1.4-11.9-5c-1.2-3.7-2.3-4.6-3.7-5.6
				c-1.4-1.1-2.6-2.4-3.5-3.9c-1.4-2.2-1.7-4.9-2.1-7.5c-0.5-3.4-0.9-6.7-3.6-8.4c-2.5-1.6-5-0.4-7.2,0.6s-3.8,1.6-5,0.2
				c-0.3-0.4-0.7-0.9-1.1-1.5c-2-2.8-5.1-7.1-8.8-7.6c-1.7-0.2-3.3,0.3-4.6,1.4c-1.9,1.4-3.6,3.2-5,5.1c-1.1,1.7-2.8,3-4.7,3.7
				c-1.2,0.5-2.5,0.8-3.8,0.9c-1.9,0.2-2.8,0.3-5.4,5.1c-1.4,2.6-3.4,4-5.7,4h-0.1c-3.2,0-6.5-2.8-8.8-7.1c-4-7.7-10.5-9.1-10.6-9.1
				l-0.1,0.5c0.1,0,6.3,1.4,10.2,8.9c2.4,4.6,5.9,7.4,9.3,7.4h0.1c1.8,0,4.2-0.8,6.2-4.3c2.5-4.6,3.2-4.7,5-4.8
				c1.4-0.1,2.7-0.4,3.9-0.9c2.1-0.6,3.8-2,5-3.8c1.4-1.9,3-3.6,4.9-5c1.2-1,2.7-1.5,4.2-1.3c3.4,0.5,6.4,4.6,8.4,7.4
				c0.4,0.6,0.8,1.1,1.1,1.5c1.5,1.9,3.5,1,5.6,0s4.5-2,6.7-0.6c2.5,1.6,2.9,4.7,3.4,8c0.4,2.7,0.7,5.4,2.1,7.8
				c0.9,1.6,2.1,2.9,3.6,4c1.3,1,2.4,1.9,3.5,5.4C392,118,394.5,119.6,397.8,119.6z"/>
			
				<linearGradient id="SVGID_54_" gradientUnits="userSpaceOnUse" x1="-185.6404" y1="49.2283" x2="-294.1404" y2="73.5583" gradientTransform="matrix(-1 0 0 -1 -168.96 550)">
				<stop  offset="0" style="stop-color:#FFFFFF"/>
				<stop  offset="1" style="stop-color:#B8D1FF"/>
			</linearGradient>
			<polygon class="st57" points="0,496.6 96.5,471 111.5,478.1 0.2,516.4 			"/>
			
				<linearGradient id="SVGID_55_" gradientUnits="userSpaceOnUse" x1="-190.5815" y1="26.4435" x2="-333.9014" y2="58.5835" gradientTransform="matrix(-1 0 0 -1 -168.96 550)">
				<stop  offset="0" style="stop-color:#FFFFFF"/>
				<stop  offset="1" style="stop-color:#B8D1FF"/>
			</linearGradient>
			<polygon class="st58" points="0.7,525.6 127.5,480.4 145.5,487.4 0.7,547.7 			"/>
			
				<linearGradient id="SVGID_56_" gradientUnits="userSpaceOnUse" x1="-340.7845" y1="65.1614" x2="-518.6745" y2="786.7114" gradientTransform="matrix(-1 0 0 -1 -168.96 550)">
				<stop  offset="0" style="stop-color:#FFFFFF"/>
				<stop  offset="1" style="stop-color:#B8D1FF"/>
			</linearGradient>
			<path class="st59" d="M176,85.5L279.3,123c8.2,3,14.8,12,14.8,20.2V422c0,8.2-6.6,12.4-14.8,9.4L176,393.9
				c-8.2-3-14.8-12-14.8-20.2V94.9C161.2,86.7,167.8,82.5,176,85.5z"/>
			
				<linearGradient id="SVGID_57_" gradientUnits="userSpaceOnUse" x1="-487.0998" y1="402.9051" x2="-311.2097" y2="394.2351" gradientTransform="matrix(-1 0 0 -1 -168.96 550)">
				<stop  offset="0" style="stop-color:#043EBA"/>
				<stop  offset="1" style="stop-color:#0168FF"/>
			</linearGradient>
			<path class="st60" d="M161.2,169.8l132.9,48.4v-74.9c0-8.2-6.6-17.2-14.8-20.2L176,85.5c-8.2-3-14.8,1.2-14.8,9.4L161.2,169.8z"
				/>
			<g>
				<path class="st10" d="M179.3,212.2l97.5,38.5c8.3,3.3,15.1-1.4,15.1-10.4v-87.9c0-9-6.8-19-15.1-22.3l-97.5-38.5
					c-8.3-3.3-15.1,4-15.1,13v85.3C164.2,199,171,208.9,179.3,212.2z"/>
				<path class="st61" d="M180.1,211.7l96.6,38c7.8,3.1,14.2-1.3,14.2-9.8v-87.6c0-8.5-6.4-17.8-14.2-20.9l-96.6-38
					c-7.8-3-14.2,3.6-14.2,12.1v85.2C166,199.3,172.3,208.6,180.1,211.7z"/>
				<path class="st62" d="M181,211.2l95.7,37.4c7.3,2.9,13.3-1.2,13.3-9.1v-87.2c0-7.9-5.9-16.7-13.3-19.5L181,95.4
					c-7.3-2.9-13.3,3.2-13.3,11.1v85.2C167.8,199.6,173.7,208.3,181,211.2z"/>
				<path class="st63" d="M181.9,210.7l94.8,36.9c6.8,2.7,12.4-1.1,12.4-8.5v-86.8c0-7.4-5.5-15.5-12.4-18.2l-94.8-36.9
					c-6.8-2.7-12.4,2.8-12.4,10.2v85.1C169.5,199.9,175.1,208,181.9,210.7z"/>
				<path class="st64" d="M182.8,210.2l93.8,36.4c6.3,2.5,11.5-1,11.5-7.8v-86.5c0-6.8-5.1-14.3-11.5-16.8l-93.8-36.3
					c-6.3-2.5-11.5,2.5-11.5,9.3v85.1C171.3,200.2,176.4,207.8,182.8,210.2z"/>
				<path class="st65" d="M183.6,209.7l92.9,35.8c5.8,2.3,10.6-0.9,10.6-7.2v-86.1c0-6.2-4.7-13.1-10.6-15.4L183.6,101
					c-5.8-2.3-10.6,2.1-10.6,8.3v85C173.1,200.6,177.8,207.4,183.6,209.7z"/>
				<path class="st66" d="M184.5,209.2l92,35.3c5.3,2.1,9.7-0.9,9.7-6.5v-85.8c0-5.7-4.3-11.9-9.7-14l-92-35.3
					c-5.3-2.1-9.7,1.7-9.7,7.4v84.9C174.8,200.9,179.1,207.1,184.5,209.2z"/>
				<path class="st67" d="M185.4,208.7l91,34.7c4.9,1.9,8.8-0.8,8.8-5.9v-85.4c0-5.1-3.9-10.8-8.8-12.6l-91-34.7
					c-4.9-1.9-8.8,1.3-8.8,6.5v84.8C176.6,201.2,180.5,206.9,185.4,208.7z"/>
				<path class="st68" d="M186.2,208.2l90.1,34.2c4.4,1.7,7.9-0.7,7.9-5.2v-85.1c-0.3-4.9-3.3-9.3-7.9-11.2l-90.1-34.2
					c-4.4-1.7-7.9,1-7.9,5.5V197C178.6,201.9,181.7,206.3,186.2,208.2z"/>
				<path class="st69" d="M187.1,207.7l89.1,33.6c3.9,1.4,7-0.6,7-4.6V152c-0.3-4.4-3-8.2-7-9.9l-89.1-33.6c-3.9-1.4-7,0.6-7,4.6
					v84.7C180.4,202.2,183.1,206,187.1,207.7z"/>
			</g>
			<path class="st10" d="M176.1,211.9l95,34.6c4,1.4,7.2-0.6,7.2-4.6v-82.1c0-4-3.2-8.3-7.2-9.8l-95-34.6c-4-1.4-7.2,0.6-7.2,4.6
				v82.1C168.9,206,172.1,210.4,176.1,211.9z"/>
			<path class="st69" d="M202.8,172.1c0-10.8,7.6-16.8,17-13.4s17,14.9,17,25.8s-7.6,16.8-17,13.4S202.8,182.9,202.8,172.1z"/>
			<path class="st46" d="M214.4,171.4c0-3.3,2.3-5.1,5.1-4.1s5.1,4.5,5.1,7.8s-2.3,6.4-5.1,5.3S214.4,174.6,214.4,171.4z"/>
			<path class="st46" d="M210.2,184.6c0-2.8,4.2-3.5,9.3-1.6s9.3,5.6,9.3,8.4s-4.2,4.6-9.3,2.7S210.2,187.4,210.2,184.6z"/>
			<path class="st10" d="M275.5,145.1c0.1,0,0.3-0.1,0.4-0.1l2.9-2.7c0.2-0.2,0.2-0.5,0.1-0.7l-2.9-4.4c-0.2-0.3-0.5-0.3-0.8-0.2
				c-0.3,0.2-0.3,0.5-0.2,0.8l2.7,4l-2.6,2.4c-0.3,0.2-0.3,0.5-0.1,0.8C275.1,145,275.3,145.1,275.5,145.1L275.5,145.1z"/>
			<path class="st5" d="M214.2,384.2c0,0.2,79.9,28.9,79.9,28.9v9.6c0,5.5-4.4,9.9-9.9,9.9c-1.1,0-2.3-0.2-3.4-0.6l-104.1-37.9
				c-9.4-3.4-15.6-12.3-15.6-22.3V365L214.2,384.2z"/>
			<g>
				<path class="st70" d="M215.6,384c0-6.8,4.8-10.5,10.6-8.4s10.6,9.4,10.6,16.1s-4.8,10.5-10.6,8.4S215.6,390.7,215.6,384z"/>
				<path class="st71" d="M216.1,384.1c0-6.5,4.5-10,10.1-8s10.1,9,10.1,15.4s-4.5,10-10.1,8S216.1,390.6,216.1,384.1z"/>
				<path class="st72" d="M216.6,384.2c0-6.1,4.2-9.5,9.5-7.5s9.6,8.6,9.6,14.7s-4.2,9.5-9.5,7.5S216.7,390.4,216.6,384.2z"/>
				<path class="st73" d="M217.1,384.4c-0.1-5.8,3.9-9,8.9-7.1s9.1,8.2,9.2,14s-3.9,9-8.9,7.1S217.2,390.2,217.1,384.4z"/>
				<path class="st74" d="M217.7,384.5c-0.1-5.5,3.6-8.5,8.4-6.7s8.6,7.8,8.7,13.3s-3.6,8.5-8.4,6.7S217.8,390,217.7,384.5z"/>
				<path class="st75" d="M218.2,384.7c-0.1-5.2,3.4-8,7.8-6.3s8.1,7.4,8.2,12.5s-3.4,8-7.8,6.3S218.3,389.9,218.2,384.7z"/>
				<path class="st76" d="M218.7,384.8c-0.1-4.9,3.1-7.5,7.2-5.8s7.6,7,7.7,11.8s-3.1,7.5-7.2,5.8S218.9,389.7,218.7,384.8z"/>
				<path class="st77" d="M219.3,385c-0.2-4.6,2.8-7,6.6-5.4s7.1,6.6,7.2,11.1s-2.8,7-6.6,5.4S219.4,389.5,219.3,385z"/>
				<path class="st78" d="M219.8,385.1c-0.2-4.2,2.5-6.5,6.1-5s6.6,6.1,6.7,10.4s-2.5,6.5-6.1,5S220,389.4,219.8,385.1z"/>
				<path class="st79" d="M220.3,385.3c-0.2-3.9,2.3-6,5.5-4.5s6,5.8,6.2,9.7s-2.3,6-5.5,4.5S220.5,389.2,220.3,385.3z"/>
			</g>
			<polygon class="st10" points="176.9,378.5 183.4,380.9 183.4,380.2 176.9,377.8 			"/>
			<polygon class="st10" points="176.9,381.8 183.4,384.2 183.4,383.4 176.9,381 			"/>
			<polygon class="st10" points="176.9,385 183.4,387.4 183.4,386.6 176.9,384.2 			"/>
			<polygon class="st10" points="158.5,389.5 163.9,391.5 163.9,390.9 158.5,388.9 			"/>
			<polygon class="st10" points="158.5,392.2 163.9,394.2 163.9,393.6 158.5,391.5 			"/>
			<polygon class="st10" points="158.5,394.9 163.9,396.9 163.9,396.3 158.5,394.2 			"/>
			<path class="st10" d="M200.4,393.7c-0.2-0.3-0.2-0.7-0.1-1c0.4-1.1,1.5-2.9,3.2-2.2s2.7,3.1,3.1,4.6c0.1,0.3,0.1,0.7-0.1,1
				c-0.2,0.2-0.5,0.3-0.7,0.2l-4.7-1.8C200.8,394.3,200.5,394,200.4,393.7z M200.9,393.2c0,0.1,0,0.2,0,0.3c0,0.1,0.1,0.2,0.2,0.2
				l4.7,1.8c0.1,0,0.2,0,0.2-0.1c0-0.1,0-0.2,0-0.3c-0.4-1.2-1.2-3.4-2.6-3.9S201.3,392.2,200.9,393.2L200.9,393.2z"/>
			<path class="st10" d="M201.3,387.6c0-1.5,1-2.3,2.2-1.8c1.3,0.6,2.1,2,2.1,3.4c0,1.5-1,2.3-2.2,1.8
				C202.2,390.4,201.3,389,201.3,387.6z M202,387.8c0,1,0.6,2,1.5,2.4c0.8,0.3,1.5-0.3,1.5-1.3c0-1-0.6-2-1.5-2.4
				C202.7,386.2,202,386.8,202,387.8L202,387.8z"/>
			<path class="st10" d="M241.6,407.8c-0.1-0.1-0.1-0.3,0-0.4l0.1-0.1c0.6-0.9,1-2,0.9-3.1v-0.8c0-1.6,1-2.4,2.3-2
				c1.4,0.7,2.3,2.1,2.3,3.7v1.5c0,0.9,0.2,1.7,0.6,2.5l0.4,0.8c0.1,0.1,0.1,0.3,0,0.5c-0.1,0.1-0.2,0.2-0.3,0.1c0,0,0,0,0,0
				l-6.1-2.3C241.8,408,241.7,407.9,241.6,407.8z M246.6,406.2v-1.5c0-1.1-0.6-2.1-1.6-2.6c-0.9-0.3-1.6,0.3-1.6,1.4v0.8
				c0,1.1-0.2,2.2-0.8,3.1l4.7,1.8C246.8,408.3,246.6,407.3,246.6,406.2L246.6,406.2z"/>
			<path class="st10" d="M245,411.4c0.8,0.3,1.5-0.3,1.5-1.3l-0.7-0.3c0,0.5-0.4,0.8-0.8,0.7c-0.5-0.2-0.8-0.7-0.8-1.3l-0.7-0.3
				C243.5,410,244.1,410.9,245,411.4z"/>
			<path class="st10" d="M266.1,417.7v-6.9c0-0.2,0.1-0.3,0.3-0.3l7.7,2.9c0.2,0.1,0.3,0.3,0.3,0.5v6.9c0,0.2-0.1,0.3-0.3,0.3
				l-7.7-2.9C266.2,418.1,266.1,417.9,266.1,417.7z M273.8,414.1l-7.1-2.6v6.1l7.1,2.6V414.1z"/>
			<path class="st10" d="M270.1,416.1l-3.8-4.9c-0.1-0.1-0.1-0.3-0.1-0.5c0-0.1,0.1-0.2,0.3-0.2c0,0,0,0,0,0l7.7,2.9
				c0.2,0.1,0.3,0.2,0.3,0.4c0.1,0.1,0,0.3-0.1,0.4l-3.9,2c-0.1,0-0.1,0-0.2,0C270.2,416.2,270.1,416.1,270.1,416.1z M267.4,411.7
				l2.9,3.7l2.9-1.5L267.4,411.7z"/>
			
				<linearGradient id="SVGID_58_" gradientUnits="userSpaceOnUse" x1="-389.5608" y1="142.8093" x2="-393.0008" y2="195.6193" gradientTransform="matrix(-1 0 0 -1 -168.96 550)">
				<stop  offset="0" style="stop-color:#EF3292"/>
				<stop  offset="1" style="stop-color:#F95B47"/>
			</linearGradient>
			<path class="st80" d="M213.7,386.9c0-5.4,3.6-8.4,8-6.8s8,7.4,8,12.7s-3.6,8.4-8,6.8S213.7,392.2,213.7,386.9z"/>
			
				<linearGradient id="SVGID_59_" gradientUnits="userSpaceOnUse" x1="-390.95" y1="160.145" x2="-390.41" y2="160.145" gradientTransform="matrix(-1 0 0 -1 -168.96 550)">
				<stop  offset="0" style="stop-color:#FFFFFF"/>
				<stop  offset="1" style="stop-color:#F2F5FA"/>
			</linearGradient>
			<polygon class="st81" points="221.4,393.9 222,394.1 222,385.8 221.5,385.6 			"/>
			
				<linearGradient id="SVGID_60_" gradientUnits="userSpaceOnUse" x1="-394.06" y1="160.145" x2="-387.29" y2="160.145" gradientTransform="matrix(-1 0 0 -1 -168.96 550)">
				<stop  offset="0" style="stop-color:#FFFFFF"/>
				<stop  offset="1" style="stop-color:#F2F5FA"/>
			</linearGradient>
			<polygon class="st82" points="218.3,388.9 225.1,391.5 225.1,390.8 218.3,388.3 			"/>
			<g>
				<path class="st70" d="M181.2,362.7l102.2,38.2c5.6,2.1,10.1-0.9,10.1-6.8V281.4c0-9.6-4.5-12.4-10.1-14.5l-101.8-38.4
					c-5.6-2.1-10.1,0.9-10.1,6.8l-0.4,113C171.1,354.1,175.6,360.6,181.2,362.7z"/>
				<path class="st83" d="M282.5,267.9l-99.7-37.6c-4.9-1.9-10.2,0.3-10.2,5.6l-0.6,111c0.1,3.2,1.1,6.3,2.9,9
					c1.6,2.4,3.8,4.3,6.5,5.4L282,398.8c2.6,1,5.6,0.9,7.3-0.3c1.9-1.3,2.9-3.5,2.8-5.8l-0.2-110.5c0-4-1-7.5-2.4-9.5
					C287.8,270.5,285.3,268.8,282.5,267.9z"/>
				<path class="st84" d="M281.7,268.9l-97.6-36.8c-4.3-1.7-10.3-0.2-10.3,4.3l-0.7,109.1c0.1,3.1,1,6.2,2.5,8.9
					c1.5,2.4,3.6,4.3,6.2,5.5l98.9,36.8c2.3,0.9,5.6,1,7.1,0c1.9-1.1,3.1-3.2,3-5.4l-0.4-108.2c0-3.5-0.9-7.6-2.1-9.3
					C286.7,271.5,284.4,269.8,281.7,268.9z"/>
				<path class="st85" d="M280.8,269.9L185.4,234c-3.7-1.4-10.4-0.8-10.4,3.1l-0.8,107.1c0,2.1,1,6.9,2.1,8.9
					c1.4,2.3,3.4,4.5,5.9,5.5l97.2,36.1c2,0.8,5.8,1.3,7,0.4c1.9-0.6,3.1-2.4,3.1-5L289,284.2c0-3-0.8-7.7-1.8-9.2
					C285.7,272.6,283.4,270.8,280.8,269.9z"/>
				<path class="st86" d="M280,270.9l-93.4-35.1c-3.1-1.2-10.6-1.4-10.6,1.9l-0.9,105.2c0,1.7,0.8,7.1,1.8,8.8
					c1.3,2.2,3.1,4.6,5.6,5.5l95.6,35.5c1.6,0.6,5.9,1.5,6.9,0.7c1.9-0.3,3.3-2,3.3-4.6l-0.8-103.6c0-2.5-0.8-7.7-1.5-9
					C284.6,273.7,282.5,271.9,280,270.9z"/>
				<path class="st87" d="M279.1,271.9l-91.3-34.2c-2.5-1-10.7-1.9-10.7,0.7l-1,103.2c0,1.4,0.7,7.3,1.4,8.7
					c1.1,2.2,2.9,4.6,5.3,5.5l93.9,34.8c1.3,0.5,5.9,1.6,6.8,1c2-0.1,3.5-1.7,3.5-4.2L286,286c0-2-0.7-7.8-1.2-8.9
					C283.6,274.7,281.6,272.9,279.1,271.9z"/>
				<path class="st88" d="M278.3,272.9l-89.2-33.4c-1.9-0.7-10.8-2.5-10.8-0.5l-1.1,101.3c0,1,0.3,7.7,1,8.6c0.7,2.5,2.6,4.6,5,5.5
					l92.3,34.1c1,0.4,6,1.8,6.6,1.3c2.1,0.1,3.6-1.4,3.6-3.8l-1.2-99c0-1.5-0.4-8-1-8.7C282.7,275.7,280.7,273.8,278.3,272.9z"/>
				<path class="st89" d="M277.4,273.9l-87.1-32.5c-1.2-0.5-11-3-11-1.7l-1.3,99.3c0,0.7,0.2,7.9,0.6,8.5c0.5,2.5,2.3,4.6,4.7,5.6
					l90.6,33.4c0.6,0.2,6.1,2,6.5,1.6c2.1,0.4,3.8-1,3.8-3.4l-1.3-96.7c0-1-0.3-8.1-0.7-8.6C281.7,276.8,279.9,274.8,277.4,273.9z"
					/>
				<path class="st90" d="M276.6,274.9l-85-31.7c-0.6-0.2-11.1-3.6-11.1-3l-1.4,97.4c0,0.4,0,8.1,0.2,8.4c0.4,2.5,2,4.7,4.4,5.6
					l89,32.8c2.1,0.8,4.2,1.4,6.4,2c1.5,0.6,3.2-0.2,3.8-1.7c0.2-0.4,0.2-0.9,0.2-1.3l-1.6-94.4c0-0.5-0.2-8.2-0.4-8.4
					C280.7,277.9,279,275.8,276.6,274.9z"/>
				<path class="st69" d="M184.1,350.2l93.5,34.4c2.3,0.8,4.1-0.4,4.1-2.6l-1.9-100.4c-0.2-2.5-1.8-4.7-4.1-5.6l-94.1-35L180,344.6
					C180.2,347.1,181.8,349.3,184.1,350.2z"/>
			</g>
			
				<linearGradient id="SVGID_61_" gradientUnits="userSpaceOnUse" x1="-283.0094" y1="239.7509" x2="-416.2594" y2="323.7009" gradientTransform="matrix(-1 0 0 -1 -168.96 550)">
				<stop  offset="0" style="stop-color:#EF3292"/>
				<stop  offset="1" style="stop-color:#F95B47"/>
			</linearGradient>
			<path class="st91" d="M199.7,285.8l-22.3-8.2c-2.7-1.1-4.6-3.6-4.8-6.5v-27.3c0-2.6,2.1-4,4.8-3l22.3,8.1
				c2.7,1.1,4.6,3.6,4.8,6.5v27.3C204.4,285.5,202.3,286.8,199.7,285.8z"/>
			<path class="st10" d="M270.2,392.8l-22.3-8.2c-2.7-1.1-4.6-3.6-4.8-6.5v-27.3c0-2.6,2.1-4,4.8-3l22.3,8.1
				c2.7,1.1,4.6,3.6,4.8,6.5v27.3C275,392.5,272.8,393.8,270.2,392.8z"/>
			<path class="st10" d="M176.6,280.9l22.3,8.2c2.7,1.1,4.6,3.6,4.8,6.5v27.3c0,2.6-2.1,4-4.8,3l-22.3-8.2c-2.7-1.1-4.6-3.6-4.8-6.5
				v-27.2C171.8,281.3,174,279.9,176.6,280.9z"/>
			<path class="st5" d="M283.1,320.6l22.3,8.2c2.7,1.1,4.6,3.6,4.8,6.5v27.3c0,2.6-2.1,4-4.8,3l-22.3-8.2c-2.7-1.1-4.6-3.6-4.8-6.5
				v-27.2C278.3,321,280.5,319.6,283.1,320.6z"/>
			
				<linearGradient id="SVGID_62_" gradientUnits="userSpaceOnUse" x1="-384.0852" y1="159.2318" x2="-517.3352" y2="243.1818" gradientTransform="matrix(-1 0 0 -1 -168.96 550)">
				<stop  offset="0" style="stop-color:#EF3292"/>
				<stop  offset="1" style="stop-color:#F95B47"/>
			</linearGradient>
			<path class="st92" d="M319.3,295.6l22.3,8.2c2.7,1.1,4.6,3.6,4.8,6.5v27.3c0,2.6-2.1,4-4.8,3l-22.3-8.2c-2.7-1.1-4.6-3.6-4.8-6.5
				v-27.2C314.5,296,316.7,294.6,319.3,295.6z"/>
			
				<linearGradient id="SVGID_63_" gradientUnits="userSpaceOnUse" x1="-327.182" y1="169.6369" x2="-460.432" y2="253.5868" gradientTransform="matrix(-1 0 0 -1 -168.96 550)">
				<stop  offset="0" style="stop-color:#EF3292"/>
				<stop  offset="1" style="stop-color:#F95B47"/>
			</linearGradient>
			<path class="st93" d="M176.6,321.7l57.5,21.1c2.7,1.1,4.6,3.6,4.8,6.5v27.3c0,2.6-2.1,4-4.8,3l-57.5-21.1
				c-2.7-1.1-4.6-3.6-4.8-6.5v-27.2C171.8,322.1,174,320.7,176.6,321.7z"/>
			<path class="st10" d="M269.8,352.7l-57.5-21.1c-2.7-1.1-4.6-3.6-4.8-6.5v-67.9c0-2.6,2.1-4,4.8-3l57.5,21.1
				c2.7,1.1,4.6,3.6,4.8,6.5v67.9C274.6,352.3,272.5,353.6,269.8,352.7z"/>
			<path class="st10" d="M210,345.2v15.2c0,0.4-0.4,0.8-0.8,0.8c-0.2,0-0.4-0.1-0.6-0.3l-9-10.5c-0.4-0.5-0.4-1.2,0.1-1.6
				c0.1-0.1,0.2-0.1,0.2-0.2l8.7-4.3c0.4-0.2,1-0.1,1.2,0.4C210,345,210,345.1,210,345.2z"/>
			<path class="st94" d="M189.9,227.1c1.6,2.4,1.2,4,1.6,5.7s1.3,3.2,1,4.9s5.6,2.8,6.4,1.2s3.5-6.6,3.7-8.3c0-2-0.7-4-2.1-5.5
				c-1.4-1.4-2.1-1.6-2.2-2.8s1.6-6.3,0.9-7.8s-1.6,1-2.8,4.8c-0.8,2.7-1.7,5.4-2.9,7.9c-0.5,1.1-0.4-0.2-1.6-1.5s-2.5-1.8-3.1-1.3
				S189,225.8,189.9,227.1z"/>
			<path class="st46" d="M106.7,463.5c-1.2,4.2,4.6,5.9,8.8,6.1c1.9,0,3.4,1.4,3.5,3.3c0,0.9-0.4,1.9-1,2.5
				c-8.2,5.4-10.5,1.9-22.7,2.1c-4.7,0.1-7.3-4.2-6.5-5.9c1.3-2.5,4.2-7.3,5.2-10.8C95,456.8,106.7,463.5,106.7,463.5z"/>
			<g>
				<defs>
					<path id="SVGID_64_" d="M106.7,463.5c-1.2,4.2,4.6,5.9,8.8,6.1c1.9,0,3.4,1.4,3.5,3.3c0,0.9-0.4,1.9-1,2.5
						c-8.2,5.4-10.5,1.9-22.7,2.1c-4.7,0.1-7.3-4.2-6.5-5.9c1.3-2.5,4.2-7.3,5.2-10.8C95,456.8,106.7,463.5,106.7,463.5z"/>
				</defs>
				<clipPath id="SVGID_65_">
					<use xlink:href="#SVGID_64_"  style="overflow:visible;"/>
				</clipPath>
				<g class="st95">
					<path class="st96" d="M119.5,473.6c-1.6,0.9-5.8,4.9-10.1,3s-6-1.8-8.6-1.2s-8.7-0.3-10.1-2c-2.2-2.8-1.1-5.2-1.1-5.2l-5.2,5.3
						l5.9,6l26,2.8l5.8-2.6L119.5,473.6z"/>
					<path class="st96" d="M108.5,463.4c-9.3,6.6-16.8-0.7-16.8-3.5s15.6-1.8,15.6-1.8L108.5,463.4z"/>
				</g>
			</g>
			<path class="st94" d="M97.8,346.2c7,23.8,16.7,42.9,13.9,48.5s-9.5,13.2-12.5,30.3s-4.1,30.5-4.8,34.7s11.9,6.5,12.4,3.4
				s12.9-44.5,17.2-54.9s8.3-18.4,7.5-23.8s-8.6-45.6-8.6-45.6L97.8,346.2z"/>
			<path class="st46" d="M134.5,474.6c0,4.4,9.9,6,14,5.1s4.4,3.6,2.9,4.8c-6.5,5-12.3,3.2-24,6.5c-4.5,1.3-8.3-2.2-7.9-4
				c0.5-2.8,2-8.1,2-11.8C121.4,471.2,134.5,474.6,134.5,474.6z"/>
			<g>
				<defs>
					<path id="SVGID_66_" d="M134.5,474.6c0,4.4,9.9,6,14,5.1s4.4,3.6,2.9,4.8c-6.5,5-12.3,3.2-24,6.5c-4.5,1.3-8.3-2.2-7.9-4
						c0.5-2.8,2-8.1,2-11.8C121.4,471.2,134.5,474.6,134.5,474.6z"/>
				</defs>
				<clipPath id="SVGID_67_">
					<use xlink:href="#SVGID_66_"  style="overflow:visible;"/>
				</clipPath>
				<g class="st97">
					<path class="st96" d="M152.3,483.3c-3.8,2.3-5.7,3.3-10.3,2.6c-3.4-0.6-6.8,0.1-9.8,1.9c-2.3,1.2-10.1,1.2-11.5-0.5
						c-0.8-1-1.3-2.2-1.3-3.5l-3.5,6.5l7.4,4.2l25.8-4.1l4.8-4L152.3,483.3z"/>
					<path class="st96" d="M135.3,476c-0.8,1.6-4.9,3.3-7.5,3.4c-4.1,0.2-7.1-2.2-7.1-3.9c0-2.8,13.3-4.8,13.3-4.8
						S135.9,474.8,135.3,476z"/>
				</g>
			</g>
			<path class="st94" d="M146.5,335.2c0.3,8.1,1,14.3,0.9,20.5c-0.3,33-5.3,37.3-6,45c-0.8,9.2-3.1,20.8-3.1,22.2
				s-4.5,43.2-3.9,51.7c0.3,4.3-12.7,3.4-13,1.1c-0.9-6.8-4.1-37.3-4.6-46.2s2.4-23.1,3.1-28.4s-2.5-31.7-6.4-36.2
				c-9.9-11.7-16.8-18.8-14-33.5S146.5,335.2,146.5,335.2z"/>
			
				<linearGradient id="SVGID_68_" gradientUnits="userSpaceOnUse" x1="-312.6418" y1="251.7135" x2="-253.1818" y2="247.7135" gradientTransform="matrix(-1 0 0 -1 -168.96 550)">
				<stop  offset="0" style="stop-color:#043EBA"/>
				<stop  offset="1" style="stop-color:#0168FF"/>
			</linearGradient>
			<path class="st98" d="M147.4,253.1c-8.7-6.7-26.2-14.9-34.8-14.2c-4.2,0.3-11.9,10.6-11.6,21.6c0.3,9.4,5.9,18,7.8,36
				c0.7,6.9-12.9,25.5-11.2,48.2c1.2,16.6,50,21,50,8.7c0-20.6-7.1-51.9,2.9-66.5c4-5.8,1.4-10.5,1.2-17.5S147.4,253.1,147.4,253.1z
				"/>
			<g>
				<defs>
					<path id="SVGID_69_" d="M147.4,253.1c-8.7-6.7-26.2-14.9-34.8-14.2c-4.2,0.3-11.9,10.6-11.6,21.6c0.3,9.4,5.9,18,7.8,36
						c0.7,6.9-12.9,25.5-11.2,48.2c1.2,16.6,50,21,50,8.7c0-20.6-7.1-51.9,2.9-66.5c4-5.8,1.4-10.5,1.2-17.5
						S147.4,253.1,147.4,253.1z"/>
				</defs>
				<clipPath id="SVGID_70_">
					<use xlink:href="#SVGID_69_"  style="overflow:visible;"/>
				</clipPath>
				<g class="st99">
					
						<linearGradient id="SVGID_71_" gradientUnits="userSpaceOnUse" x1="-301.7597" y1="245.4608" x2="-315.0697" y2="245.0408" gradientTransform="matrix(-1 0 0 -1 -168.96 550)">
						<stop  offset="0.12" style="stop-color:#043EBA"/>
						<stop  offset="1" style="stop-color:#0168FF"/>
					</linearGradient>
					<path class="st100" d="M107.8,296.6c19.2,8.6,30.4,10.8,38.4,8.5l1.1,4.7c0,0-8.8,2.7-14,1.7s-24.1-8-27-10.1L107.8,296.6z"/>
				</g>
			</g>
			<path class="st94" d="M143.8,273.4c1.4-3.8,17.6,11.2,28.4,17.2c7,3.9,8.2,0.9,9.9-1.3c11.2-14.1,10.6-25.5,17-51.1
				c-1.9-1-4.2-1.4-6.4-1.1c0,0-6,14.7-10.5,24.8c-4.9,11.1-6.9,14.7-6.9,14.7s-19.1-17.2-28-23.6
				C124.7,236.9,136.6,292.5,143.8,273.4z"/>
			<path class="st94" d="M136.4,246.2c-4.1,0.5-13,3.6-17.1,8.3c-2.3,2.7-6.4,3.1-9.1,0.8c-1.7-1.5-2.6-3.7-2.2-6
				c1-8,3.5-9.9,6.3-10.4s6.4-9.4,8-12.4s11.2-0.1,11.8,3.6s-2.1,11.7-0.5,13.3s3.1,3,3.1,3L136.4,246.2z"/>
			<g>
				<defs>
					<path id="SVGID_72_" d="M136.4,246.2c-4.1,0.5-13,3.6-17.1,8.3c-2.3,2.7-6.4,3.1-9.1,0.8c-1.7-1.5-2.6-3.7-2.2-6
						c1-8,3.5-9.9,6.3-10.4s6.4-9.4,8-12.4s11.2-0.1,11.8,3.6s-2.1,11.7-0.5,13.3s3.1,3,3.1,3L136.4,246.2z"/>
				</defs>
				<clipPath id="SVGID_73_">
					<use xlink:href="#SVGID_72_"  style="overflow:visible;"/>
				</clipPath>
				<g class="st101">
					<path class="st102" d="M132.2,234c-2.9,4.7-3.4,9-0.6,13.7s-21.8,14-21.8,14l-6.9-12.6l7.1-16.9l13.8-10.2h6.6l5.2,4.5
						L132.2,234z"/>
				</g>
			</g>
			
				<linearGradient id="SVGID_74_" gradientUnits="userSpaceOnUse" x1="-260.1788" y1="302.1132" x2="-376.2688" y2="345.9331" gradientTransform="matrix(-1 0 0 -1 -168.96 550)">
				<stop  offset="0" style="stop-color:#EF3292"/>
				<stop  offset="1" style="stop-color:#F95B47"/>
			</linearGradient>
			<path class="st103" d="M138,219.9c2-0.8,3.7-2.2,4.9-4c4.6-6.9,3.3-10.3,0.2-13.4c-3.5-3.5-15.6-10.4-26.6-3.3
				s-4.7,11.8-10.7,16.2s-8.4,7.5-7.3,13.9s-2.4,5.2-4.4,12.9s1,7.2,1.8,13.8c0.8,6.6-6,5.4-7,14c-1.1,9.5,7.7,14.3,14.5,12.7
				s6.6-6.1,15-6.5s12.4-6.1,10.2-11.7s-4.6-4.9-4.9-7.8s3.7-4.5,6.1-9.1c3.2-6.3-0.9-8-0.8-12.2c0.1-3.9,2.6-6.8,3.8-8.8
				C134.4,224.2,135.8,220.9,138,219.9z"/>
			<g>
				<defs>
					<path id="SVGID_75_" d="M138,219.9c2-0.8,3.7-2.2,4.9-4c4.6-6.9,3.3-10.3,0.2-13.4c-3.5-3.5-15.6-10.4-26.6-3.3
						s-4.7,11.8-10.7,16.2s-8.4,7.5-7.3,13.9s-2.4,5.2-4.4,12.9s1,7.2,1.8,13.8c0.8,6.6-6,5.4-7,14c-1.1,9.5,7.7,14.3,14.5,12.7
						s6.6-6.1,15-6.5s12.4-6.1,10.2-11.7s-4.6-4.9-4.9-7.8s3.7-4.5,6.1-9.1c3.2-6.3-0.9-8-0.8-12.2c0.1-3.9,2.6-6.8,3.8-8.8
						C134.4,224.2,135.8,220.9,138,219.9z"/>
				</defs>
				<clipPath id="SVGID_76_">
					<use xlink:href="#SVGID_75_"  style="overflow:visible;"/>
				</clipPath>
				<g class="st104">
					<path class="st105" d="M142.2,212.1c2.2,0,2.6-6.6-2.9-6.1c-6.5,0.6-3.7,4.5-9.8,8.8s-1.5,9-6.5,15.7
						c-6.7,8.9,1.6,6.9,3.6,14.6c0.8,3.1-0.6,5.6-2.1,9.4c-1.5,3.8,22.8-8.2,22.8-8.2l9.3-35.4L145,225.6l-3.8-6.9l-6.1,3.1
						L142.2,212.1z"/>
					<path class="st106" d="M142.8,216c4.9-11.1-0.4-12.7-2.9-14.3s-13.9-1.5-18-2.4s5.3-5.9,5.3-5.9l22.8,3.2l7.1,9.9
						c0,0-5.5,9-7.3,9.9S142.8,216,142.8,216z"/>
				</g>
			</g>
			<path class="st94" d="M131.7,220.7c-0.8,2-1.6,5.3,0.1,7.4c-2.7,2.7-3,7.2-2.7,7.3c4.6,1.9,5.8,2.1,7.5,2.2
				c3.7,0.1,5.6-11.1,5.8-13.2c0.4-3.3-1.1-3.8-1.5-7c-0.2-1.9,1.3-5.3,1.3-5.3c-2.7-1.3-3.1-0.9-6,6.6
				C135.5,220.5,134.2,214.7,131.7,220.7z"/>
			<g>
				<defs>
					<path id="SVGID_77_" d="M131.7,220.7c-0.8,2-1.6,5.3,0.1,7.4c-2.7,2.7-3,7.2-2.7,7.3c4.6,1.9,5.8,2.1,7.5,2.2
						c3.7,0.1,5.6-11.1,5.8-13.2c0.4-3.3-1.1-3.8-1.5-7c-0.2-1.9,1.3-5.3,1.3-5.3c-2.7-1.3-3.1-0.9-6,6.6
						C135.5,220.5,134.2,214.7,131.7,220.7z"/>
				</defs>
				<clipPath id="SVGID_78_">
					<use xlink:href="#SVGID_77_"  style="overflow:visible;"/>
				</clipPath>
				<g class="st107">
					<path class="st108" d="M130.3,243.2c5.8-2.9,14.1-18,8.1-23.9c-1.3-1.3-1-2.2-0.4-6.9c0.6-3.9,2.2-7.7,4.5-10.9l-9.5-2.1
						C132.4,199.5,102.6,257.1,130.3,243.2z"/>
				</g>
			</g>
			<path class="st102" d="M134.9,222.6c0.2-3.3-1.1-3.6-1.8-2.4s-1.7,6.5,0.4,5.6C134.6,225.4,134.9,223.5,134.9,222.6z"/>
			<path class="st109" d="M136.8,408c0-5.7-3.7-6.5-3.2-20.3s9-26,9-34.2s-4.4-24.7-9.5-41.6c-5-16.5,8.2-24.5,19.2-29.4
				c-0.4,1.5-1,3-1.9,4.3c-7.4,10.8-5.5,30.4-4,48.3h0.1c0,0.4,0,0.8,0.1,1.3c0.5,6,1,11.8,1,17c0,0.2,0,0.5-0.1,0.7
				c0,0.5,0,1,0,1.5c-0.3,33-5.3,37.3-6,45c-0.8,9.2-3.1,20.8-3.1,22.2s-4.5,43.2-3.9,51.7c0.1,1.2-1,2-2.5,2.5
				c-0.2-4.9-0.8-16.6-1.2-22.3c-0.5-7.4,5-27.3,5-30.6S136.8,413.7,136.8,408z"/>
		</g>
	</g>
</g>
<g>
	<linearGradient id="SVGID_79_" gradientUnits="userSpaceOnUse" x1="460.8716" y1="340.4541" x2="486.125" y2="340.4541">
		<stop  offset="0" style="stop-color:#043EBA"/>
		<stop  offset="1" style="stop-color:#0168FF"/>
	</linearGradient>
	<path class="st110" d="M464.2,385.9c0,0,9.7,1.4,9.7-1.4c0-0.8,0.4-4.1,1-9.2l0,0c2.3,3,12.6-9.2,11-11.6c-2.7-4-5.7-8.3-8.9-13
		c0.7-11.2,0.9-23.7-0.2-34.5c-0.2-2,4.3-11.8,7.1-21.6h-21.2c0,0-2,5.4-1.8,13.6c0.2,11.5,3.7,27.7,4,33.8
		C465.9,361.3,464.2,385.9,464.2,385.9z"/>
</g>
</svg>
