<svg xmlns="http://www.w3.org/2000/svg" xmlns:xlink="http://www.w3.org/1999/xlink" viewBox="0 0 662.06 534.83"><defs><style>.cls-1{fill:#2848b4;}.cls-135,.cls-2,.cls-62{fill:#fff;}.cls-3{fill:#e2a67c;}.cls-4{fill:#f03293;}.cls-5{fill:none;}.cls-6{fill:url(#linear-gradient);}.cls-7{fill:#80623e;}.cls-8{isolation:isolate;}.cls-9{fill:url(#linear-gradient-2);}.cls-10,.cls-40{fill:#b9d2ff;}.cls-11{fill:url(#linear-gradient-3);}.cls-12{fill:#8eaddd;}.cls-13{fill:#172180;}.cls-14{fill:url(#linear-gradient-4);}.cls-15{fill:url(#linear-gradient-5);}.cls-16{fill:url(#linear-gradient-6);}.cls-17{fill:url(#linear-gradient-7);}.cls-18{fill:url(#linear-gradient-8);}.cls-19{fill:url(#linear-gradient-9);}.cls-20{fill:url(#linear-gradient-10);}.cls-134,.cls-21,.cls-24,.cls-35,.cls-37,.cls-38,.cls-40,.cls-42,.cls-52,.cls-55,.cls-58,.cls-61{mix-blend-mode:multiply;}.cls-21{fill:url(#linear-gradient-11);}.cls-22{fill:#0168ff;}.cls-23{clip-path:url(#clip-path);}.cls-24{fill:#0d146e;}.cls-25{clip-path:url(#clip-path-2);}.cls-26{fill:url(#linear-gradient-12);}.cls-27{clip-path:url(#clip-path-3);}.cls-28{fill:url(#linear-gradient-13);}.cls-29{fill:url(#linear-gradient-14);}.cls-30{fill:url(#linear-gradient-15);}.cls-31{clip-path:url(#clip-path-6);}.cls-134,.cls-32,.cls-38{fill:#8cb4dc;}.cls-33{fill:#001f99;}.cls-34{clip-path:url(#clip-path-7);}.cls-35{fill:#062bac;}.cls-36{clip-path:url(#clip-path-8);}.cls-37{fill:#474637;}.cls-39{clip-path:url(#clip-path-9);}.cls-41{clip-path:url(#clip-path-10);}.cls-42{fill:#a5a18b;}.cls-43{fill:#91beff;}.cls-44{fill:url(#linear-gradient-19);}.cls-45{fill:url(#linear-gradient-20);}.cls-46{fill:#aec6ec;}.cls-47{fill:url(#linear-gradient-21);}.cls-48{fill:url(#linear-gradient-22);}.cls-49{fill:url(#linear-gradient-23);}.cls-50{fill:url(#linear-gradient-24);}.cls-51{fill:url(#linear-gradient-25);}.cls-52{fill:#bcb5ac;}.cls-53{fill:#ad236d;}.cls-54{clip-path:url(#clip-path-11);}.cls-55{fill:#7f786b;}.cls-56{clip-path:url(#clip-path-12);}.cls-57{clip-path:url(#clip-path-13);}.cls-58{fill:#a39b91;}.cls-59{clip-path:url(#clip-path-14);}.cls-60{fill:#e3eefa;}.cls-62{opacity:0;}.cls-63{fill:#f5f5ff;opacity:0.02;}.cls-64{fill:#f4f5ff;opacity:0.03;}.cls-65{fill:#f3f4ff;opacity:0.05;}.cls-66{fill:#f2f4ff;opacity:0.06;}.cls-67{fill:#f1f3ff;opacity:0.08;}.cls-68{fill:#f0f3ff;opacity:0.1;}.cls-69{fill:#eff2ff;opacity:0.11;}.cls-70{fill:#eef1ff;opacity:0.13;}.cls-71{fill:#edf1ff;opacity:0.15;}.cls-72{fill:#ecf0ff;opacity:0.16;}.cls-73{fill:#ebf0ff;opacity:0.18;}.cls-74{fill:#eaefff;opacity:0.19;}.cls-75{fill:#e9eeff;opacity:0.21;}.cls-76{fill:#e8eeff;opacity:0.23;}.cls-77{fill:#e7edff;opacity:0.24;}.cls-78{fill:#e6edff;opacity:0.26;}.cls-79{fill:#e5ecff;opacity:0.27;}.cls-80{fill:#e4ecff;opacity:0.29;}.cls-81{fill:#e3ebff;opacity:0.31;}.cls-82{fill:#e2eaff;opacity:0.32;}.cls-83{fill:#e1eaff;opacity:0.34;}.cls-84{fill:#e0e9ff;opacity:0.35;}.cls-85{fill:#dfe9ff;opacity:0.37;}.cls-86{fill:#dee8ff;opacity:0.39;}.cls-87{fill:#dde7ff;opacity:0.4;}.cls-88{fill:#dce7ff;opacity:0.42;}.cls-89{fill:#dbe6ff;opacity:0.44;}.cls-90{fill:#dae6ff;opacity:0.45;}.cls-91{fill:#d9e5ff;opacity:0.47;}.cls-92{fill:#d8e5ff;opacity:0.48;}.cls-93{fill:#d7e4ff;opacity:0.5;}.cls-94{fill:#d7e3ff;opacity:0.52;}.cls-95{fill:#d6e3ff;opacity:0.53;}.cls-96{fill:#d5e2ff;opacity:0.55;}.cls-97{fill:#d4e2ff;opacity:0.56;}.cls-98{fill:#d3e1ff;opacity:0.58;}.cls-99{fill:#d2e1ff;opacity:0.6;}.cls-100{fill:#d1e0ff;opacity:0.61;}.cls-101{fill:#d0dfff;opacity:0.63;}.cls-102{fill:#cfdfff;opacity:0.65;}.cls-103{fill:#cedeff;opacity:0.66;}.cls-104{fill:#cddeff;opacity:0.68;}.cls-105{fill:#cdf;opacity:0.69;}.cls-106{fill:#cbdcff;opacity:0.71;}.cls-107{fill:#cadcff;opacity:0.73;}.cls-108{fill:#c9dbff;opacity:0.74;}.cls-109{fill:#c8dbff;opacity:0.76;}.cls-110{fill:#c7daff;opacity:0.77;}.cls-111{fill:#c6daff;opacity:0.79;}.cls-112{fill:#c5d9ff;opacity:0.81;}.cls-113{fill:#c4d8ff;opacity:0.82;}.cls-114{fill:#c3d8ff;opacity:0.84;}.cls-115{fill:#c2d7ff;opacity:0.85;}.cls-116{fill:#c1d7ff;opacity:0.87;}.cls-117{fill:#c0d6ff;opacity:0.89;}.cls-118{fill:#bfd5ff;opacity:0.9;}.cls-119{fill:#bed5ff;opacity:0.92;}.cls-120{fill:#bdd4ff;opacity:0.94;}.cls-121{fill:#bcd4ff;opacity:0.95;}.cls-122{fill:#bbd3ff;opacity:0.97;}.cls-123{fill:#bad3ff;opacity:0.98;}.cls-124{fill:url(#linear-gradient-26);}.cls-125{fill:url(#linear-gradient-27);}.cls-126{clip-path:url(#clip-path-15);}.cls-127{fill:url(#linear-gradient-28);}.cls-128{clip-path:url(#clip-path-16);}.cls-129{clip-path:url(#clip-path-17);}.cls-130{clip-path:url(#clip-path-18);}.cls-131{clip-path:url(#clip-path-19);}.cls-132{clip-path:url(#clip-path-20);}.cls-133{clip-path:url(#clip-path-21);}.cls-134{opacity:0.48;}.cls-135{opacity:0.5;}.cls-136{clip-path:url(#clip-path-22);}.cls-137{fill:url(#linear-gradient-29);}.cls-138{opacity:0.51;}</style><linearGradient id="linear-gradient" x1="7093.41" y1="412.8" x2="7170.11" y2="365.69" gradientTransform="translate(-6822.52 -253.87) rotate(-0.49)" gradientUnits="userSpaceOnUse"><stop offset="0.04" stop-color="#0f1780"/><stop offset="0.12" stop-color="#0f1780"/><stop offset="1" stop-color="#0168ff"/></linearGradient><linearGradient id="linear-gradient-2" x1="-344.95" y1="468.11" x2="1047.04" y2="415.58" gradientUnits="userSpaceOnUse"><stop offset="0" stop-color="#fff"/><stop offset="1" stop-color="#b9d2ff"/></linearGradient><linearGradient id="linear-gradient-3" x1="587.92" y1="22.46" x2="30.8" y2="964.59" gradientUnits="userSpaceOnUse"><stop offset="0" stop-color="#eef2ff"/><stop offset="0.85" stop-color="#aec6ec"/></linearGradient><linearGradient id="linear-gradient-4" x1="736.57" y1="-1135.87" x2="739.28" y2="-1067.46" gradientTransform="matrix(-1, -0.36, 0, 1, 1377.99, 1635.08)" gradientUnits="userSpaceOnUse"><stop offset="0.31" stop-color="#f03293"/><stop offset="1" stop-color="#0168ff"/></linearGradient><linearGradient id="linear-gradient-5" x1="752.75" y1="-1119.15" x2="754.64" y2="-1071.34" xlink:href="#linear-gradient-4"/><linearGradient id="linear-gradient-6" x1="768.11" y1="-1125.83" x2="770.25" y2="-1071.84" xlink:href="#linear-gradient-4"/><linearGradient id="linear-gradient-7" x1="783.5" y1="-1139.49" x2="786.17" y2="-1072.13" xlink:href="#linear-gradient-4"/><linearGradient id="linear-gradient-8" x1="799.6" y1="-1131.88" x2="801.9" y2="-1074.09" xlink:href="#linear-gradient-4"/><linearGradient id="linear-gradient-9" x1="815.79" y1="-1124.89" x2="817.75" y2="-1075.61" xlink:href="#linear-gradient-4"/><linearGradient id="linear-gradient-10" x1="831.25" y1="-1128.82" x2="833.32" y2="-1076.7" xlink:href="#linear-gradient-4"/><linearGradient id="linear-gradient-11" x1="819.25" y1="166.22" x2="780.02" y2="74.29" gradientTransform="matrix(-1, 0, 0, 1, 1377.98, -0.01)" xlink:href="#linear-gradient-2"/><clipPath id="clip-path"><path class="cls-1" d="M339.94,111c19.22,25,31.5,57.2,36.58,53.63,10.16-7.14,26.8-16.43,32.71-22.05s12.83,3.45,10.57,8.26-32.42,29-37.49,33c-8.37,6.59-8.56,8-18.87.36-5.84-4.33-22-11.74-22-11.74Z"/></clipPath><clipPath id="clip-path-2"><path class="cls-2" d="M296.21,397.09c0,4.42-2.09,12.39,0,14.48s23,10.62,29.52,13,16.93-1.78,18.59-3.44-3.44-5.75-10.57-9.94-15.4-8.78-16.93-16.93S296.21,397.09,296.21,397.09Z"/></clipPath><linearGradient id="linear-gradient-12" x1="341" y1="373.52" x2="304.84" y2="437.95" xlink:href="#linear-gradient-2"/><clipPath id="clip-path-3"><path class="cls-2" d="M282.5,365.88c-3.56,2.63-11.21,5.69-11.64,8.61s1.65,20.61,3.61,27.24,9.38,12.82,12.22,12.86c5.08.07,11.33-1.21,6.8-5-6.32-5.33-2.11-22.73,3.53-28.81S282.5,365.88,282.5,365.88Z"/></clipPath><linearGradient id="linear-gradient-13" x1="1095.23" y1="3029.96" x2="1056.35" y2="3099.24" gradientTransform="translate(2117.05 -2295.39) rotate(53.5)" xlink:href="#linear-gradient-2"/><linearGradient id="linear-gradient-14" x1="94.34" y1="800.07" x2="325.9" y2="891.16" gradientTransform="matrix(0.98, 0.2, -0.2, 0.98, 244.03, -599.19)" xlink:href="#linear-gradient"/><linearGradient id="linear-gradient-15" x1="125.3" y1="238.57" x2="333.1" y2="320.31" gradientTransform="matrix(1, 0, 0, 1, 0, 0)" xlink:href="#linear-gradient"/><clipPath id="clip-path-6"><path class="cls-5" d="M330,98.68c-3.93,5-3.51,6.39-2.76,9.77s-8.32,10.09-16.82,6.14c-4.48-2.09-5.34-6.29-3.63-10s6.85-13.29,6.85-13.29Z"/></clipPath><clipPath id="clip-path-7"><path class="cls-6" d="M342,79.12c9.9-10.28-.6-17.42-9.5-24.15-3.52-2.66-18.08-9.82-23.64-.06-4.54-.58-8.12,1.78-9.78,11.78-2.07,12.48,2.34,17.6,3.63,27.91l31.74-16.75Z"/></clipPath><clipPath id="clip-path-8"><path class="cls-7" d="M313.76,87.85c-4.32-2.19-6-2.95-6-2.95-.54-1.5-.56-4.94-3.59-5.68-5.94-1.44-4.88,12-2,11.79,3.72-.29-1.33,15.61-9.05,21.23-4.79,3.49,20.39,8.07,26.32,6,10.26-3.52-2.93-17.7,3.41-23.83C325.2,92.19,319.14,87.38,313.76,87.85Z"/></clipPath><clipPath id="clip-path-9"><path class="cls-7" d="M314.79,81.91c-3.71,6.69-11,8-7.11,13.86,5.72,8.63,7.75,8.81,12.63,9.56s11.53-8.4,12.41-10.82c1.74-4.83,1.42-7.53,2.13-9.72.8-2.46,2-2.55,2.09-7.54a19.56,19.56,0,0,1-8.48-3.71c-2.46-1.88-5.24-1.6-8.22.39S317.44,77.13,314.79,81.91Z"/></clipPath><clipPath id="clip-path-10"><path class="cls-1" d="M310.4,114.59c-14.42-4.17-19.62-12.86-19.62-12.86S285,110,283,112.33s-2.72,3.27-10.24,7.48c-7,3.94-7.39,37.21-5.87,45.26,8.41,44.46-5.62,72.61,11.39,106.56,5.63,11.23,39.92,5.55,39.92,5.55-9.37-162.59-10.5-141.5-10.82-148C307.14,124.81,310.4,114.59,310.4,114.59Z"/></clipPath><linearGradient id="linear-gradient-19" x1="334.82" y1="282.76" x2="120.8" y2="391.46" xlink:href="#linear-gradient-3"/><linearGradient id="linear-gradient-20" x1="6.21" y1="356.5" x2="194.86" y2="469.61" gradientTransform="matrix(-1, 0, 0, 1, 260.79, -0.13)" gradientUnits="userSpaceOnUse"><stop offset="0" stop-color="#eef2ff"/><stop offset="0.85" stop-color="#b9d2ff"/></linearGradient><linearGradient id="linear-gradient-21" x1="172.22" y1="371.29" x2="335.1" y2="326.49" xlink:href="#linear-gradient-2"/><linearGradient id="linear-gradient-22" x1="293.49" y1="376.19" x2="341.81" y2="326.74" xlink:href="#linear-gradient-3"/><linearGradient id="linear-gradient-23" x1="254.85" y1="287.82" x2="235.15" y2="247.91" xlink:href="#linear-gradient-3"/><linearGradient id="linear-gradient-24" x1="231.17" y1="330.05" x2="176.06" y2="436.49" xlink:href="#linear-gradient-3"/><linearGradient id="linear-gradient-25" x1="445.23" y1="325.38" x2="509.39" y2="525.43" gradientTransform="matrix(1, 0, 0, 1, 0, 0)" xlink:href="#linear-gradient-20"/><clipPath id="clip-path-11"><path class="cls-3" d="M166.87,208.15c0-5.17-.87-4.82-.87-4.82-.47-1.46.2-4-2.51-4.74-5.3-1.45-4.46,11.66-1.87,11.46,3.33-.25-3.85,9.9-3.85,9.9-1.09,3.76,19.44,9,19.44,9-.77-5.41,2.11-11.55,2.88-15.42C180.68,210.6,171.69,207.74,166.87,208.15Z"/></clipPath><clipPath id="clip-path-12"><path class="cls-3" d="M168,193.27c-2.28,11.52-4.94,15.71-1.51,21.45,5,8.45,6.87,8.64,11.22,9.41s10.74-10,11.87-12.25c1.8-3.52.38-3.84,1.29-7.62.58-2.43,1.24-2.51,1.92-7.33C194.62,184.11,170.79,179.15,168,193.27Z"/></clipPath><clipPath id="clip-path-13"><path class="cls-1" d="M165.86,202.73c2.38,1.8,5.61,1,7.84-2.34s5.82-13.37,12.86-8.55c1.31.9,4.62-3,2.87,5.68-1.08,5.38.33,11,3,16.39s4,6.12,2.35,12.89c3.67-6.25,7.81-8.39,5.54-17.43-1.83-7.25,5.27-15.73,2.68-22.09s-14.25-13.4-22.87-8.16c0,0-4.83-2-9.37,3C163.22,190.4,165.86,202.73,165.86,202.73Z"/></clipPath><clipPath id="clip-path-14"><path class="cls-3" d="M515.61,211.22c-2.36,17.48-33.42,51-35,51.89s-16.23.14-21.72-1.24-20.43-2.46-25-2.42-8.67.8-11,.22-6.09-5.91-6.32-7.36-2.78-6.47-.13-7.93c2-1.13,5.36-.35,5.36-.35s-.4-1.13-2.61-2.64c-1.5-1-.43-3.72,5.38-.85,4.47,2.2,5.14,5.63,6.21,7.29s2.87,2.46,6.93,3.14,24.95-.34,36.31.5,20.38-46.48,26-50.62Z"/></clipPath><linearGradient id="linear-gradient-26" x1="735.02" y1="291.29" x2="329.63" y2="522.3" xlink:href="#linear-gradient-3"/><linearGradient id="linear-gradient-27" x1="433.36" y1="430.82" x2="590.38" y2="547.84" gradientTransform="matrix(1, 0, 0, 1, 0, 0)" xlink:href="#linear-gradient-20"/><clipPath id="clip-path-15"><path class="cls-3" d="M395,265.27c-7,.43-9.41-1.34-12.54-1.79s-6.19-3.5-7.76-3.5-1.25,1.57,1.49,4.31-3.41,3.92-6.64,2.74-6.9-3.53-7.73-2.06.94,4.91,3.55,8.78,4.49,6.48,8.78,5.75,19.87-5.44,21.85-4.66S395,265.27,395,265.27Z"/></clipPath><linearGradient id="linear-gradient-28" x1="347.97" y1="423.33" x2="580.11" y2="404.08" xlink:href="#linear-gradient-2"/><clipPath id="clip-path-16"><path class="cls-1" d="M574.76,424.29c7.49,2.61,13.62,15.14,13.27,23.7-.14,3.33-3.11,13.9,1.4,12.64,6.44-1.8,10.88-16.44,9.88-24.44-.63-5.07-.55-3.69,2.64-7.59,3.42-4.18,3-7.2-3.8-8.53-6.46-1.27-18.4-6-18.4-6l-6.68,3.46Z"/></clipPath><clipPath id="clip-path-17"><path class="cls-3" d="M546.51,302.84c18.6,21.57-30.67,90.9-23.51,91.69s11.45-1.72,29.82,6,22.47,11.75,26.94,13.6c-5,2.61-5,10.18-5,10.18-3.3-1.43-40.81-8-53.5-10.37s-20.27-3.86-24.68-8.28c-9.09-9.09,9.57-66.64,9.57-66.64Z"/></clipPath><clipPath id="clip-path-18"><path class="cls-1" d="M443.42,249.93c-8.6-.85-8.29,4.48-7.35,7.3s16,3.87,25.82,6.58,18.13,3,20.28.84,8-11.81,8-11.81L482,237.37s-4.17,12.09-7.86,12.65C469.47,250.72,443.42,249.93,443.42,249.93Z"/></clipPath><clipPath id="clip-path-19"><path class="cls-3" d="M474.93,208.37s1.07-.31,3.77-3.93c1.54-2.06-.24-10.68,0-15s8.32-8.84,10.52-5.74,8.68,14.29,11.92,14.47,5.2.5,7.45,9.39a7.39,7.39,0,0,1-12.06,7.48c-5.33-4.69-15.8-7-20.51-7Z"/></clipPath><clipPath id="clip-path-20"><path class="cls-1" d="M395,265.27c4.11-.36,25.09-8.14,36.32-10.23s14.68-13.18,19.14-18.94,5.14-16.57,13-21.61,12.2-6.17,16.19-8.3c2.92-1.55,13.74.12,20-1.54,1.71-.45.86-6.33,2.28-6.33,6.63,0,14,3.49,17.91,8.67s14.57,2.27,16.15,13c2.28,15.5,5.78,36.62,10.66,47.87,4,9.11,17.14,14,18.82,50.48.59,12.74,6,31.51,6,31.51-2.08,11.76-37.41,19.24-46.88,22.14-9,2.75-28.28,1-27.13-4.08A432.3,432.3,0,0,0,508,285.87c.23-8.84-1.67-17.35-9.2-24.88-1.94-1.94-10.27-1.42-14.16-6.9s-1.63-12.38-6-17.56-5.5-5.62-7.09-2.59-11.6,17.21-16.71,22.33-9.08,8.28-10.37,9.58-14.95,3.19-20.45,4.55c-6.76,1.67-19,3.94-26.13,5.21C392.88,276.51,390.85,265.63,395,265.27Z"/></clipPath><clipPath id="clip-path-21"><path class="cls-4" d="M466.05,174.88c-7.29-6-7.06-10.14-4.72-14.56,2.67-5,13.61-16.53,27.91-12.55s11.92,5.32,19.94,8.14,21.72,2.11,24.55,8.94c11.85,28.62,13.35,12,27.55,22.8,10.31,7.85,13.22,24.83,3.33,25.91-16.88,1.85-10.37,13.56-19.89,20.38-7.81,5.6-23,.84-31.88-22.44-2-5.38-18-2.1-22.12-6.35-5.61-5.75-5.12-7.73-6.62-12.24C482.7,188.74,467.94,176.43,466.05,174.88Z"/></clipPath><clipPath id="clip-path-22"><path class="cls-3" d="M477.79,178.48c1.19,2.12,2.79,5.21,1.22,7.85,3.29,3.12,4.09,8.29,3.75,8.48-5,2.73-6.27,3.22-8.2,3.5-4.13.6-7.82-11.85-8.38-14.18-.89-3.71.73-4.41.73-8.16,0-2.13-2.19-5.84-2.19-5.84,2.87-1.8,3.43-1.49,7.76,6.64C473.52,178.74,474.16,172,477.79,178.48Z"/></clipPath><linearGradient id="linear-gradient-29" x1="277.03" y1="236.76" x2="352.72" y2="399.44" gradientUnits="userSpaceOnUse"><stop offset="0.08" stop-color="#eef2ff"/><stop offset="0.34" stop-color="#edf1ff"/><stop offset="0.69" stop-color="#e0edff"/><stop offset="0.79" stop-color="#eaf1ff"/><stop offset="0.9" stop-color="#eef2ff"/></linearGradient></defs><title>Asset 1</title><g class="cls-8"><g id="Layer_2" data-name="Layer 2"><g id="Layer_1-2" data-name="Layer 1"><polygon class="cls-9" points="367.43 473.46 508.01 420.81 311.1 349.14 140.97 409.97 130.67 397.7 88.88 388.1 2.34 419.54 58.94 439.29 58.94 439.29 0 460.74 203.56 534.83 284.25 504.61 357.91 532.18 453.61 532.18 414.15 485.19 367.43 473.46"/><path class="cls-10" d="M376.73,218.25,642,314.81c11.06,4,20-1.68,20-12.73V125.16c0-11.06-9-23.28-20-27.3L376.73,1.29c-11.06-4-20,1.68-20,12.73V190.94C356.72,202,365.68,214.22,376.73,218.25Z"/><path class="cls-11" d="M374.62,219l265.31,96.56c11.06,4,20-1.68,20-12.73V126c0-11.06-9-23.28-20-27.3L374.62,2.09c-11.06-4-20,1.68-20,12.73V191.74C354.6,202.79,363.56,215,374.62,219Z"/><path class="cls-12" d="M385.11,66.59c0-18.19,12.81-28.52,28.56-23s28.56,24.74,28.56,42.93-12.81,28.52-28.56,23S385.11,84.78,385.11,66.59Zm2.74,1c0,16.44,11.58,33.85,25.82,38.8s25.82-4.38,25.82-20.82-11.58-33.85-25.82-38.8S387.85,51.11,387.85,67.55Z"/><path class="cls-13" d="M413.65,109.52a28.09,28.09,0,0,0,2.78.81c.75.18,1.31-.4,1.23-1.3a2.24,2.24,0,0,0-1.5-1.95C402,103.74,389.35,87.31,388,70.47a2.24,2.24,0,0,0-1.5-1.95c-.75-.18-1.31.4-1.23,1.3C386.67,87.35,399.13,104.46,413.65,109.52Z"/><path class="cls-4" d="M395.75,96.77a1.75,1.75,0,0,0,1.86-.33c.9-.87.8-2.71-.23-4.1a42.39,42.39,0,0,1-8.43-24.41c0-15.74,11.09-24.68,24.72-19.94,1.36.48,2.47-.42,2.47-2a4.12,4.12,0,0,0-2.47-3.71c-16.35-5.7-29.66,5-29.66,23.92,0,9.87,3.69,20.54,10.12,29.29A3.52,3.52,0,0,0,395.75,96.77Z"/><path class="cls-14" d="M639.58,289.51c.54.2,1-.19,1-.87v-23a1.75,1.75,0,0,0-1-1.59c-.54-.2-1,.19-1,.87v23A1.75,1.75,0,0,0,639.58,289.51Z"/><path class="cls-15" d="M623.88,283.8c.54.2,1-.19,1-.87V269.26a1.75,1.75,0,0,0-1-1.59c-.54-.2-1,.19-1,.87v13.67A1.76,1.76,0,0,0,623.88,283.8Z"/><path class="cls-16" d="M608.18,278.08c.54.2,1-.19,1-.87v-10a1.75,1.75,0,0,0-1-1.59c-.54-.2-1,.19-1,.87v10A1.75,1.75,0,0,0,608.18,278.08Z"/><path class="cls-17" d="M592.48,272.37c.54.2,1-.19,1-.87V250a1.75,1.75,0,0,0-1-1.59c-.54-.2-1,.19-1,.87v21.46A1.75,1.75,0,0,0,592.48,272.37Z"/><path class="cls-18" d="M576.78,266.65c.54.2,1-.19,1-.87v-26.5a1.75,1.75,0,0,0-1-1.59c-.54-.2-1,.19-1,.87v26.5A1.75,1.75,0,0,0,576.78,266.65Z"/><path class="cls-19" d="M561.07,260.94c.54.2,1-.19,1-.87V222.9a1.75,1.75,0,0,0-1-1.59c-.54-.2-1,.19-1,.87v37.16A1.75,1.75,0,0,0,561.07,260.94Z"/><path class="cls-20" d="M545.37,255.22c.54.2,1-.19,1-.87V221.66a1.75,1.75,0,0,0-1-1.59c-.54-.2-1,.19-1,.87v32.69A1.75,1.75,0,0,0,545.37,255.22Z"/><path class="cls-12" d="M641.63,203.91a4.85,4.85,0,0,1-2.61-.78c-5.65-3.54-8.33-18.81-10.49-31.09a118.86,118.86,0,0,0-2.8-13.44c-2.16-6.67-5.2-10.91-9.05-12.61-3-1.32-6.47-1.09-10.38.68s-6.62,5.39-9.1,8.63c-3.5,4.56-6.81,8.88-11.85,5.71s-6.55-8.53-8-13.74c-1-3.42-1.91-6.65-3.76-9-2.11-2.71-5.12-5.85-9.68-6.13-5.26-.33-11.66,3.28-19.09,10.7-6.74,6.74-15.21.59-23.4-5.36-8.45-6.13-16.42-11.93-22.52-4.61-9,10.82-23.79,9.67-23.93,9.65l.06-.73c.14,0,14.54,1.13,23.31-9.39,6.54-7.84,15.16-1.58,23.51,4.48S538,148.6,544.26,142.3c7.69-7.69,14.11-11.26,19.65-10.91,4.86.3,8,3.58,10.21,6.41,1.94,2.49,2.88,5.78,3.88,9.27,1.46,5.08,3,10.34,7.74,13.33,4.49,2.81,7.31-.87,10.89-5.54,2.53-3.3,5.4-7,9.37-8.85s7.79-2.09,11-.69c4,1.79,7.23,6.18,9.45,13.05a119,119,0,0,1,2.83,13.53c2.13,12.13,4.78,27.23,10.15,30.6a4.08,4.08,0,0,0,3.46.49l.2.7A5.22,5.22,0,0,1,641.63,203.91Z"/><path class="cls-21" d="M477.49,114.53s11.27,2.29,18.26,15.82,19.71,17.85,26.43,5.5,6.45-6.61,15.94-10.32,6.19-6.93,17.18-15.5,20.08,7.28,24.81,13.35,13.38-6.34,21.53-1.23,4.21,18.59,9.85,27.86,8.87,5.56,12.47,16.68,10.33,12.24,21.54,9v29.2l-168-66Z"/><path class="cls-22" d="M636.33,177.94c-5.89,0-10.19-2.82-12.82-11-2-6.18-3.82-7.62-6.12-9.46a23.63,23.63,0,0,1-6.3-7.12c-2.5-4.11-3.15-8.94-3.77-13.62-.77-5.82-1.51-11.31-5.93-14.08-3.93-2.46-7.93-.65-11.79,1.09s-7.31,3.31-9.87,0c-.58-.75-1.24-1.65-1.93-2.61-3.49-4.82-8.77-12.1-14.81-13a9.63,9.63,0,0,0-7.38,2.3,39.06,39.06,0,0,0-8.58,8.82c-2,2.71-3.41,4.67-8.72,6.74a23.26,23.26,0,0,1-6.92,1.6c-3.19.31-4.39.42-8.78,8.49-3.43,6.3-7.86,7.56-11,7.55-5.95-.06-12.2-5.07-16.33-13.06-6.8-13.17-17.81-15.54-17.92-15.57l.19-1c.11,0,11.58,2.49,18.59,16.07,4,7.67,9.89,12.48,15.48,12.54h.11c4,0,7.47-2.43,10-7,4.63-8.52,6.17-8.67,9.54-9a22.13,22.13,0,0,0,6.66-1.54c5-2,6.34-3.74,8.29-6.41a40,40,0,0,1,8.77-9,10.56,10.56,0,0,1,8.12-2.49c6.45.92,11.87,8.4,15.46,13.35.69.95,1.34,1.85,1.91,2.58,2,2.55,4.6,1.54,8.7-.31,3.91-1.77,8.34-3.77,12.71-1,4.81,3,5.57,8.73,6.37,14.78.61,4.57,1.24,9.3,3.63,13.24a22.78,22.78,0,0,0,6.07,6.86c2.34,1.86,4.36,3.47,6.44,9.92,3.64,11.26,10.44,11.72,20.95,8.72l.27.93A34.89,34.89,0,0,1,636.33,177.94Z"/><path class="cls-1" d="M339.94,111c19.22,25,31.5,57.2,36.58,53.63,10.16-7.14,26.8-16.43,32.71-22.05s12.83,3.45,10.57,8.26-32.42,29-37.49,33c-8.37,6.59-8.56,8-18.87.36-5.84-4.33-22-11.74-22-11.74Z"/><g class="cls-23"><path class="cls-24" d="M337.31,125.16c7.89,13.34,16.8,30.37,24.62,36.87,9.69,8.05,12,13.16,13.09,17.28s-13,13.65-13,13.65-36.11-17.21-36.11-18S337.31,125.16,337.31,125.16Z"/></g><path class="cls-2" d="M296.21,397.09c0,4.42-2.09,12.39,0,14.48s23,10.62,29.52,13,16.93-1.78,18.59-3.44-3.44-5.75-10.57-9.94-15.4-8.78-16.93-16.93S296.21,397.09,296.21,397.09Z"/><g class="cls-25"><path class="cls-26" d="M294,403.48c4.77,5.92,14.26,9,19.16,11.71s15.92,7.89,19.23,7.39,5-4.27,9.23-4.65a6.2,6.2,0,0,1,6,3l-15.73,11.4L297,419.72s-10.7-8.15-10.19-8.66S294,403.48,294,403.48Z"/></g><path class="cls-2" d="M282.5,365.88c-3.56,2.63-11.21,5.69-11.64,8.61s1.65,20.61,3.61,27.24,9.38,12.82,12.22,12.86c5.08.07,11.33-1.21,6.8-5-6.32-5.33-2.11-22.73,3.53-28.81S282.5,365.88,282.5,365.88Z"/><g class="cls-27"><path class="cls-28" d="M276,367.88c-1.92,7.36-.94,13.46-.23,19s.87,12,2.08,15.09c2,5.21,11.18,11.37,16,11.07,4.21-.26,0,8.28,0,8.28l-18.51-5.86-10.62-35.54s.19-13.45.9-13.34S276,367.88,276,367.88Z"/></g><path class="cls-29" d="M341.7,207c13.54,47.29,15.95,94.71,11,107.47S302.57,373,294.82,383.83c-3.15,4.4-17.56-11.85-15.33-15.19,11.49-17.22,25.36-38.42,45.95-67.13,3.71-5.18-27.56-100.11-27.56-100.11Z"/><path class="cls-30" d="M318.53,222c3.06,33.42,5.43,65.89,3.14,79.38s-4.83,46.81-4.83,59.79,0,26.87,0,34.44-20.6,5.47-20.6,1.46-7.92-57.71-4-96.76c.63-6.34-16.41-64.56-16.41-64.56Z"/><path class="cls-2" d="M296.21,397.09c0,4.42-2.09,12.39,0,14.48s23,10.62,29.52,13,16.93-1.78,18.59-3.44-3.44-5.75-10.57-9.94-15.4-8.78-16.93-16.93S296.21,397.09,296.21,397.09Z"/><g class="cls-25"><path class="cls-26" d="M294,403.48c4.77,5.92,14.26,9,19.16,11.71s15.92,7.89,19.23,7.39,5-4.27,9.23-4.65a6.2,6.2,0,0,1,6,3l-15.73,11.4L297,419.72s-10.7-8.15-10.19-8.66S294,403.48,294,403.48Z"/></g><path class="cls-2" d="M282.5,365.88c-3.56,2.63-11.21,5.69-11.64,8.61s1.65,20.61,3.61,27.24,9.38,12.82,12.22,12.86c5.08.07,11.33-1.21,6.8-5-6.32-5.33-2.11-22.73,3.53-28.81S282.5,365.88,282.5,365.88Z"/><g class="cls-27"><path class="cls-28" d="M276,367.88c-1.92,7.36-.94,13.46-.23,19s.87,12,2.08,15.09c2,5.21,11.18,11.37,16,11.07,4.21-.26,0,8.28,0,8.28l-18.51-5.86-10.62-35.54s.19-13.45.9-13.34S276,367.88,276,367.88Z"/></g><path class="cls-10" d="M341.7,207c13.54,47.29,15.95,94.71,11,107.47S302.57,373,294.82,383.83c-3.15,4.4-17.56-11.85-15.33-15.19,11.49-17.22,25.36-38.42,45.95-67.13,3.71-5.18-27.56-100.11-27.56-100.11Z"/><path class="cls-10" d="M318.53,222c3.06,33.42,5.43,65.89,3.14,79.38s-4.83,46.81-4.83,59.79,0,26.87,0,34.44-20.6,5.47-20.6,1.46-7.92-57.71-4-96.76c.63-6.34-16.41-64.56-16.41-64.56Z"/><g class="cls-31"><path class="cls-5" d="M321.64,91.07c-1.37,16.42-.22,20.82,4.81,20.82s4-20.34,3.82-20.76S321.64,91.07,321.64,91.07Z"/></g><path class="cls-32" d="M330.34,177.21c-11.73,2.28-25.22,4.63-32.17,6.1,0,0-4.25-13.2-7.69-22.63-3.15-8.65.16-18.16-5.37-23.6s-8.8-10.79-14.09-2.78,2.86,22.89,8.23,33.1,7.67,21,10.95,26c4.22,6.5,6.47,7.35,13.63,4.34,8.27-3.48,21.66-5.65,31.67-12.7C338.93,182.63,335,176.3,330.34,177.21Z"/><path class="cls-33" d="M290.78,101.73c4.35-3.21,15.43-3.09,15.43-3.09l19.29,4.86,1,19.85-36.11-11.66Z"/><path class="cls-6" d="M342,79.12c9.9-10.28-.6-17.42-9.5-24.15-3.52-2.66-18.08-9.82-23.64-.06-4.54-.58-8.12,1.78-9.78,11.78-2.07,12.48,2.34,17.6,3.63,27.91l31.74-16.75Z"/><g class="cls-34"><path class="cls-35" d="M308.41,85.66c3.49-5.6,11.72-15.06,9.87-21.95-.38-1.42-3.49-5.68-7.33-8.38-.4-1.6,1.21-3.11,5.05-1.08,4.84,2.55,5.28,6,10,12.64,4.27,6.06,5.79,4.61,13.4,8,2.3,1,3.69,4.58,3.69,4.58l-12,1.4L309.84,86Z"/></g><path class="cls-7" d="M313.76,87.85c-4.32-2.19-6-2.95-6-2.95-.54-1.5-.56-4.94-3.59-5.68-5.94-1.44-4.88,12-2,11.79,3.72-.29-1.33,15.61-9.05,21.23-4.79,3.49,20.39,8.07,26.32,6,10.26-3.52-2.93-17.7,3.41-23.83C325.2,92.19,319.14,87.38,313.76,87.85Z"/><g class="cls-36"><path class="cls-37" d="M300.25,71.82c-30.2,49.71-12,51.7,4.39,52.73,0,0-1.7-21.59,11.88-24C330.77,98.08,300.25,71.82,300.25,71.82Z"/><path class="cls-37" d="M321.37,102.17c.63,10.92-7.86,12.17-7.86,12.17l.19,8.18s16.76.82,16.75.37-.42-18.69-.42-18.69Z"/></g><path class="cls-38" d="M306.37,85.38c-.74-4-3-4-3.8-2.41s-.72,8.19,2.61,6.49C306.64,88.71,306.56,86.42,306.37,85.38Z"/><path class="cls-7" d="M314.79,81.91c-3.71,6.69-11,8-7.11,13.86,5.72,8.63,7.75,8.81,12.63,9.56s11.53-8.4,12.41-10.82c1.74-4.83,1.42-7.53,2.13-9.72.8-2.46,2-2.55,2.09-7.54a19.56,19.56,0,0,1-8.48-3.71c-2.46-1.88-5.24-1.6-8.22.39S317.44,77.13,314.79,81.91Z"/><g class="cls-39"><path class="cls-37" d="M334.26,72.94c-2.91-7.44-49.08-17.43-44.5,21.77.28,2.37,8.32,3.84,6.22,9.12s22.85,1.3,20.79,2.64l11.63,5.17c.42.09-7.57-3.71-10.32-12.87-1.16-3.84,4.8-4.31,1.54-15.2C318.19,78.87,340.32,88.43,334.26,72.94Z"/></g><path class="cls-2" d="M288.92,220c30.62,4.93,54.22,6.12,53.63-7.47-.85-19.33.08-80.74.08-80.74l-9.83-19.91s-6.75,9.58-33,3.75S288.92,220,288.92,220Z"/><path class="cls-40" d="M316,117.52s3.87,33,4,44.38,8.45,38.49,8.17,51.62,9.13,51.69,9.13,51.69a40.94,40.94,0,0,0,12.22-6c6-4.38-15.49-138.59-15.49-138.59s-6.44-8.46-8.85-7A57.5,57.5,0,0,1,316,117.52Z"/><path class="cls-1" d="M310.4,114.59c-14.42-4.17-19.62-12.86-19.62-12.86S285,110,283,112.33s-2.72,3.27-10.24,7.48c-7,3.94-7.39,37.21-5.87,45.26,8.41,44.46-5.62,72.61,11.39,106.56,5.63,11.23,39.92,5.55,39.92,5.55-9.37-162.59-10.5-141.5-10.82-148C307.14,124.81,310.4,114.59,310.4,114.59Z"/><g class="cls-41"><path class="cls-24" d="M267.83,96.48c4.74,2.59,46.66-2,38.93,8.15-37.46,49.43-17.59,85.9-16.57,88.79,1.52,4.31,9-6.18,9,12,0,10.54-2.08,88.88-2.08,88.88-11.83.82-17.72-2.64-20.61-8-15-27.68-2.76-72.72-3.72-97-.25-6.25-2.25-9.16-5.91-24.3C255.77,119.14,266,95.46,267.83,96.48Z"/></g><path class="cls-1" d="M355.07,243.39c-4.22-24-6.8-29.49-8.36-42.66-2.39-20.17,4.38-50.15,1.09-69.71-1.43-8.49-4.36-20.64-12.57-22.71-8.66-2.19-9.74-4.81-9.74-4.81s.63,3.87-2.51,10c0,0,3.13,8.33,3.49,9.84,6.3,26.67,3.91,59.2,9.47,92.59,1.42,8.52,8,53.79,8,53.79S357.65,258,355.07,243.39Z"/><path class="cls-7" d="M336.42,194.46c12-5.09,11.91-8.64,18.53-11.09,6.81-2.52,6.26-8.64,3.33-10.22s-2.94-3.88-5.46-3.71a11.17,11.17,0,0,0-6.42,3.09c-1.86,1.81-6.33,4.46-6.77,4.22s-.81-1.85,1.76-4.36,1.26-5.18-2.88-1.14-5.26,11.64-8.18,14.49S336.42,194.46,336.42,194.46Z"/><path class="cls-7" d="M417.51,150.15c12-4.38,11.91-7.44,18.53-9.55,6.81-2.17,6.26-7.44,3.33-8.81-1.39-.65-1.92-2-2.78-2.07-2-.27-6.85,4-7,3.91-.6-.52,5.57-4.2,4.29-5-1.62-1.06-4.56,1.1-6.42,2.66s-6.33,3.84-6.77,3.64-.81-1.59,1.76-3.76,1.26-4.46-2.88-1-5.26,10-8.18,12.48S417.51,150.15,417.51,150.15Z"/><path class="cls-42" d="M335.49,194.86a27.66,27.66,0,0,1-5.11-6c9-7.07,12.08-5.62,15.79-5.74,3.87-.13,5.88-.59,6.84,1C346.52,189.41,338.73,193.78,335.49,194.86Z"/><path class="cls-1" d="M304.79,112.71c-7.09,19.11-4.15,18.2-3.27,26.3s6.31,49.63,7,53.31,4.44-10,4.44-10-4.31-47.85-4.76-49.89a13.06,13.06,0,0,1-.28-5.42c.34-1.22,3.26-12.54,3.26-12.54Z"/><path class="cls-1" d="M282.14,124.24c14.35,9.12,16.91,46.65,18.43,51.65s3.42,6.23,3.32,9.4-.89,5.56,2,5c3.89-.69,21.3-5.42,26.94-7.39s9.25,10.84,3,16.35-23.4,11.56-32.23,13.2-12,1.74-12.37-2.27c-.69-7-5.2-4.91-4.66-8.74s.45-4.54-1.62-6.7a66.57,66.57,0,0,1-5.39-7.34s-5.66-17.77-10.23-35.06C264.4,133.61,280.28,123.05,282.14,124.24Z"/><path class="cls-43" d="M303.9,185.29c-.09,3.17-.89,5.56,2,5,3.89-.69,21.3-5.42,26.94-7.39,1.77-.62,3.34.22,4.47,1.83-5.82,2.09-21.85,7.91-27.31,10.54-6.72,3.23-10.77.29-12.82-2.51s-2.34-2.1-3.14-20.82-6.35-18.57-3.11-36.38c6.79,14.64,8.5,36.55,9.64,40.29C302.1,180.89,304,182.12,303.9,185.29Z"/><polygon class="cls-44" points="170.04 352.83 170.13 444.7 96.08 417.64 95.99 325.77 170.04 352.83"/><polygon class="cls-45" points="170.04 352.83 170.13 444.7 243.14 418.04 243.05 326.63 170.04 352.83"/><polygon class="cls-2" points="170.08 352.83 96.04 325.77 169.05 299.57 243.09 326.63 170.08 352.83"/><path class="cls-1" d="M291.33,424.89c3,3.44,2.18,8.19,3.52,10.69,2.72,5,3.15,6.92,5.5,8,8.93,4.16,15.58,11.88,20.24,13.27,7.84,2.34,11.6-.81,12.52-1.73s.51-7.08-5.68-10.66c-6.77-3.92-13.8-4.85-19.75-12a64.41,64.41,0,0,1-7.31-11.59Z"/><path class="cls-46" d="M288,424.07a31.36,31.36,0,0,1,5,7.77c2.72,5,3.15,6.92,5.5,8,8.93,4.16,15.58,11.88,20.24,13.27,7.84,2.34,11.6-.81,12.52-1.73s1.31-4-4.88-7.58c-6.77-3.92-14.6-7.93-20.55-15.11a64.41,64.41,0,0,1-7.31-11.59Z"/><path class="cls-1" d="M261,380.3c10.23,11.79,26.17,42.91,27,43.77,3.66,3.85,14.3-2.11,12-5.39-12.33-17.86-25.25-80.58-37.86-86.61C251,326.73,178.7,298,178.7,298l-11.87,26.25,81.68,24.62S251.55,369.42,261,380.3Z"/><path class="cls-1" d="M126.81,317.45c.43,21.32,20.3,34.18,37.13,35.73,22,2,61.67,12.26,65.36,15.19s.26-.77-3.18,20.62c-2.62,16.27,12.84,38.42,7.64,63.87-1,5,14.48,5,14.48,2.39,0-14.67,3.45-73.11,6.53-87.62,3.23-15.2-4.88-22.56-17.6-24.75-7.84-1.35-36.36-15.09-55.93-21.13-10.91-3.37-3.06-23.77-3.06-23.77l-44.55-1.48S126.7,311.94,126.81,317.45Z"/><path class="cls-1" d="M266.89,478.72c11.8-.81,12.12-8.48,3.77-10.28-6.61-1.42-20.75-2.34-22.42-10-.18.08-9,2.58-14.48-2.39-1.61,7.44-6.62,17.18.65,18.68C252.23,478.41,256.39,479.44,266.89,478.72Z"/><path class="cls-46" d="M266.89,475.51c11.8-.81,11.47-6.2,3.12-8-6.61-1.42-20.1-4.62-21.76-12.25-.18.08-9,2.58-14.48-2.39-1.61,7.44-6.62,17.18.65,18.68C252.23,475.2,256.39,476.23,266.89,475.51Z"/><polygon class="cls-2" points="112.44 338.9 420.86 226.65 609.14 295.18 300.73 407.44 112.44 338.9"/><path class="cls-47" d="M234.6,298l-29.94,11.37s14,7.55,25,9.81l13.47-6.29s19,19.19,57.59,45.28l-30.4,8.57,46.88,23.18,63.08-24.2-127-75.23Z"/><path class="cls-48" d="M282,350.62c3.15,14.09,17.82,42.1,38.12,33s16.48-37,16.48-37l-15.72-12.33Z"/><path class="cls-49" d="M243.14,307.14c-15.4-6.52-23.11-28.72-9.56-33.62s36.1-13.67,36.1-13.67l12.36,27Z"/><polygon class="cls-50" points="112.44 347.6 112.44 338.9 300.73 407.44 300.73 416.13 112.44 347.6"/><polygon class="cls-51" points="609.14 303.88 609.14 295.18 300.73 407.44 300.73 416.13 609.14 303.88"/><path class="cls-3" d="M184.81,229c6.76,8.83,21.32,34.21,22.29,33.53s25.24-11.12,25-13.33a19.12,19.12,0,0,1,0-5.66c.32-1.92-.39-5,1.09-5.35s1.5.42,1.66,2.23,1.6,3.87,3.79,2.84c1.31-.61,2.88-1.89,5-2.28a7.6,7.6,0,0,1,5.05.92c4.9,2.57,3,3.72,1.38,3.32s-2.74-2.07-4.51-1.62,1.21,1.53,2,3.62-2.28,8.26-5.58,8.84-4.59-.89-7.6,1.31c-2.52,1.85-20.4,15.33-24.34,18.1s-4.78,3.77-6.48,3.17c-4.51-1.59-16.17-19.91-16.17-19.91Z"/><path class="cls-52" d="M237.12,246.57c-1.94.71-1.83,5-3.49,5.55s-27.56,14.06-29.41,14.73-5-6.12-10.57-15.71l-6.87.64.6,6.93S199,277,203.56,278.63c1.7.6,2.53-.4,6.48-3.17s21.82-16.25,24.34-18.1a6.38,6.38,0,0,1,2.17-1.1l7.55-12.85S239.07,245.86,237.12,246.57Z"/><path class="cls-4" d="M172.46,222.38c-3.13,2-.94,6.47.69,14.78,1.84,9.42,7.45,19.15,7.45,19.15s6.79,2.12,18.67-6c0,0-5.16-11.89-8.75-18.16C188.26,228.17,176.28,220,172.46,222.38Z"/><path class="cls-1" d="M175,171.43c-3.54-15.14-18.11-17-27.48-10.46s-19,6.24-20.55,24.71-8.06,13.3-12.75,23.95,11.19,17.94,8.84,25-7.41,13.14.52,21.07c0,0,4.79-12.51,14.88-9.63s20.83-20.29,18.32-30.76-2.91-19.51,1.92-21.27,7.23-14.85,6.73-15.35S175,171.43,175,171.43Z"/><path class="cls-24" d="M166.33,174.36c-4.32-11.9-11-13.08-18.57-10.34,0,0,5.66,1.17,5.66,2.54,0,0-12.29-.39-16.39,7.22s-5.87,23.28-10,27.36-9.23,5.36-10.8,9.65,15.74,6.77,15,14.64-1.17,13.59-2,16.58c0,0,18.21-6.37,19.64-6.89s7.67-11.19,6-20.42-3.34-20.81-1.56-22.59S166.33,174.36,166.33,174.36Z"/><path class="cls-33" d="M162,184.74c-6.87-11.68,9.34-17.28,12.93-13.32,4.16,4.6,4.16,8,4.16,8Z"/><path class="cls-1" d="M161.22,215.27c.4-5.22-5-17.24-3.71-24.45S169.26,173,177,176c11.61,4.49,4.55,8.88,4.55,8.88Z"/><path class="cls-4" d="M150.71,213.12c9,4.78,26.49,15.87,26.49,15.87l3.66-4.24c7.57,4.24,8,7.85,9.65,17.11C196.26,275,182.12,276,178.19,298c-2,11.12-51.22,19.34-44.55-1.48,3.25-10.16,6.69-28.57,3.27-40.53s-7.45-16.3,8.52-31.08Z"/><path class="cls-53" d="M142.74,238.36c4.3-7.68,16.3-2.26,19.46-17.58l-.34-1.26c-4-2.41-8.07-4.77-11.14-6.4l-5.28,11.78c-16,14.78-11.94,19.12-8.52,31.08S138.44,246,142.74,238.36Z"/><path class="cls-3" d="M166.87,208.15c0-5.17-.87-4.82-.87-4.82-.47-1.46.2-4-2.51-4.74-5.3-1.45-4.46,11.66-1.87,11.46,3.33-.25-3.85,9.9-3.85,9.9-1.09,3.76,19.44,9,19.44,9-.77-5.41,2.11-11.55,2.88-15.42C180.68,210.6,171.69,207.74,166.87,208.15Z"/><g class="cls-54"><path class="cls-55" d="M164.85,189.54c-23.81,40.1,2.85,39.87,8.22,40.87l-4.15-13.78Z"/></g><path class="cls-53" d="M177.21,229c-.67-5.06.45-6.62.55-7s4.06.71,2.92,3.52A6,6,0,0,1,177.21,229Z"/><path class="cls-38" d="M165,203.76c-1.77-3.36-2.28-3-3-1.54s-1,7.09,2.28,6.34C168.41,207.64,165,203.76,165,203.76Z"/><path class="cls-3" d="M168,193.27c-2.28,11.52-4.94,15.71-1.51,21.45,5,8.45,6.87,8.64,11.22,9.41s10.74-10,11.87-12.25c1.8-3.52.38-3.84,1.29-7.62.58-2.43,1.24-2.51,1.92-7.33C194.62,184.11,170.79,179.15,168,193.27Z"/><g class="cls-56"><path class="cls-55" d="M200.75,197l-7.85-21.2-27,3.26v23.64c-3.08,2.16-18.07-1.12-14.18,3.81,13.12,16.61,27.83,21.11,26,17.6-3.29-6.44-3.72-9.25-3.22-11,3.22-11.43-1.52-12.59,8.71-15.9,3.13-1,8,7.25,11.3,7.24C196.93,204.45,200.75,197,200.75,197Z"/></g><path class="cls-1" d="M165.86,202.73c2.38,1.8,5.61,1,7.84-2.34s5.82-13.37,12.86-8.55c1.31.9,4.62-3,2.87,5.68-1.08,5.38.33,11,3,16.39s4,6.12,2.35,12.89c3.67-6.25,7.81-8.39,5.54-17.43-1.83-7.25,5.27-15.73,2.68-22.09s-14.25-13.4-22.87-8.16c0,0-4.83-2-9.37,3C163.22,190.4,165.86,202.73,165.86,202.73Z"/><g class="cls-57"><path class="cls-24" d="M168.23,205.07c6.27-6,9.2-17.23,14.3-16.66s-2-5.65-.72-6.29c3.6-1.82,15.41,6.49,12.18,18.18-2,7.4,7.4,18.58.78,26.48,2.35-7.55-2.56-9.92-2.56-9.92Z"/></g><path class="cls-53" d="M161.39,214.06c-3.85-1.42-10.2-2-10.68-.95-1.36,3.07,3.84,7.15,10.85,10.48,0,0-3.18-2.11-2.53-3.93C159.6,218.08,160.36,217,161.39,214.06Z"/><path class="cls-3" d="M146.22,229c-12.85,5.75-14.49,14-10.94,29.18,2.21,9.47,9.52,23,14.71,32.59,3.12,5.78,3.85,10.63,6.82,11.14,19,3.28,38.56-6.25,65.94-13.61a11.26,11.26,0,0,0-2.3-6.69s-30.43,5-42.25,6.06l-13,1.15s-7.89-17-11.34-29.23S146.22,229,146.22,229Z"/><path class="cls-58" d="M162.24,294.6c-2.84-2.38-13.4-18-18.92-32.77l-6.29,2.1c3.15,8.68,8.74,19,12.95,26.82,3.12,5.78,3.85,10.63,6.82,11.14,12.73,2.19,25.68-1.34,41.06-6.13C185.29,297.09,165.08,297,162.24,294.6Z"/><path class="cls-4" d="M147.41,227.76c-12.21,4-13.77,9.41-13.77,17.88,0,9.6,3.64,20.22,3.64,20.22s6.26,3.39,19.49-2.35c0,0-5.36-23.15-5.22-23.57S147.41,227.76,147.41,227.76Z"/><path class="cls-3" d="M220.13,281.91c4-2.42,4.49-4.19,6.42-5.93s2.08-.07,1.07,2.49,5.83,2.66,7.64,1.44,1.71-3.17,2.39-3.5,1.82,0,1.12,2c0,0,.46-.15.7.47a6.22,6.22,0,0,1-1,4.47c-1.17,1.81-1,4.62-2.61,5.39s-9.11.65-13.27-.49S220.13,281.91,220.13,281.91Z"/><path class="cls-53" d="M149.51,233.62h0c-1-3-2.09-5.86-2.09-5.86-12.21,4-13.77,9.43-13.77,17.92,0,9.62,3.64,20.27,3.64,20.27s2.24,1.21,6.86,1C142.84,260.18,139.74,239.13,149.51,233.62Z"/><path class="cls-3" d="M515.61,211.22c-2.36,17.48-33.42,51-35,51.89s-16.23.14-21.72-1.24-20.43-2.46-25-2.42-8.67.8-11,.22-6.09-5.91-6.32-7.36-2.78-6.47-.13-7.93c2-1.13,5.36-.35,5.36-.35s-.4-1.13-2.61-2.64c-1.5-1-.43-3.72,5.38-.85,4.47,2.2,5.14,5.63,6.21,7.29s2.87,2.46,6.93,3.14,24.95-.34,36.31.5,20.38-46.48,26-50.62Z"/><g class="cls-59"><path class="cls-55" d="M421.88,244c4.44,4.43,7.71,7.42,4.35,10,4.41.43,34.29.43,40,.43S484.82,244,484.82,244l19,11.21-28.21,18.36-60.29-4.15L404.92,252l4.61-9.22Z"/></g><path class="cls-1" d="M526.72,495.3s.64,3.64.88,5.57,7.1,1.37,7.38.11c.37-1.67,2.08-6,2-7.85S526.72,495.3,526.72,495.3Z"/><path class="cls-1" d="M521,475.37c0,8.56-7,12.6-10.9,14s-8.27,0-12,3.69,7.92,7.39,13,7.39,10.55-4.57,16.89-3.52,9.5-1.41,8.8-5.63-4-14.78-4-14.78Z"/><path class="cls-46" d="M423.44,253.64l-46,17.54c-2.88,1.1-6.55.34-8.2-1.69L337.69,230.8c-1.65-2-.66-4.56,2.21-5.66l46-17.54c2.88-1.1,6.55-.34,8.2,1.69L425.65,248C427.31,250,426.32,252.55,423.44,253.64Z"/><path class="cls-2" d="M423.86,253.28l-46,17.54c-2.88,1.1-6.55.34-8.2-1.69L338.1,230.44c-1.65-2-.66-4.56,2.21-5.66l46-17.54c2.88-1.1,6.55-.34,8.2,1.69l31.52,38.68C427.72,249.65,426.73,252.19,423.86,253.28Z"/><path class="cls-60" d="M377.15,268l-.08-.09-34.56-41,.23-.08,47-17.26,34.64,41.06-.23.08Zm-34.06-40.91,34.17,40.5,46.58-17.09L389.66,210Z"/><rect class="cls-60" x="383.24" y="212.19" width="0.38" height="53.38" transform="translate(-63.87 302.15) rotate(-39.97)"/><rect class="cls-60" x="371.77" y="216.29" width="0.38" height="53.38" transform="translate(-69.19 295.74) rotate(-39.97)"/><rect class="cls-60" x="395.25" y="207.87" width="0.38" height="53.38" transform="translate(-58.29 308.86) rotate(-39.97)"/><rect class="cls-60" x="366.82" y="248.56" width="49.98" height="0.38" transform="translate(-61.74 150.33) rotate(-20.17)"/><rect class="cls-60" x="358.47" y="238.65" width="49.98" height="0.38" transform="translate(-58.84 146.87) rotate(-20.17)"/><rect class="cls-60" x="350.11" y="228.75" width="49.98" height="0.38" transform="translate(-55.94 143.38) rotate(-20.17)"/><path class="cls-13" d="M386.44,251.58c2.86,3.39,2.07,7.28-1.77,8.69s-9.27-.2-12.13-3.59-2.07-7.28,1.77-8.69S383.58,248.19,386.44,251.58Z"/><path class="cls-10" d="M408,243.28c.9,1.07.65,2.29-.56,2.74a3.73,3.73,0,0,1-3.82-1.13c-.9-1.07-.65-2.29.56-2.74A3.73,3.73,0,0,1,408,243.28Z"/><path class="cls-10" d="M402.65,255c.9,1.07.65,2.29-.56,2.74a3.73,3.73,0,0,1-3.82-1.13c-.9-1.07-.65-2.29.56-2.74A3.73,3.73,0,0,1,402.65,255Z"/><g class="cls-61"><path class="cls-62" d="M389.69,233.51c3.82,4.53,2.76,9.72-2.36,11.6s-12.37-.27-16.19-4.79-2.76-9.72,2.36-11.6S385.87,229,389.69,233.51Z"/><path class="cls-63" d="M389.64,233.54c3.8,4.5,2.75,9.66-2.35,11.53s-12.31-.27-16.11-4.77-2.75-9.66,2.35-11.53S385.84,229,389.64,233.54Z"/><path class="cls-64" d="M389.59,233.56c3.78,4.48,2.74,9.61-2.33,11.46s-12.25-.27-16-4.75-2.74-9.61,2.33-11.46S385.81,229.09,389.59,233.56Z"/><path class="cls-65" d="M389.54,233.59c3.77,4.45,2.73,9.55-2.31,11.39s-12.19-.28-16-4.73-2.73-9.55,2.31-11.39S385.78,229.14,389.54,233.59Z"/><path class="cls-66" d="M389.5,233.61c3.75,4.42,2.72,9.49-2.29,11.32s-12.12-.28-15.87-4.71-2.72-9.49,2.29-11.32S385.75,229.19,389.5,233.61Z"/><path class="cls-67" d="M389.45,233.64c3.73,4.4,2.71,9.43-2.28,11.24s-12.06-.29-15.79-4.68-2.71-9.43,2.28-11.24S385.71,229.24,389.45,233.64Z"/><path class="cls-68" d="M389.4,233.66c3.72,4.37,2.7,9.37-2.26,11.17s-12-.29-15.71-4.66-2.7-9.37,2.26-11.17S385.68,229.29,389.4,233.66Z"/><path class="cls-69" d="M389.35,233.69c3.7,4.35,2.69,9.32-2.24,11.1s-11.94-.29-15.63-4.64-2.69-9.32,2.24-11.1S385.65,229.34,389.35,233.69Z"/><path class="cls-70" d="M389.3,233.71c3.68,4.32,2.68,9.26-2.22,11s-11.87-.3-15.55-4.62-2.68-9.26,2.22-11S385.62,229.39,389.3,233.71Z"/><path class="cls-71" d="M389.25,233.74c3.66,4.3,2.67,9.2-2.21,11s-11.81-.3-15.47-4.6-2.67-9.2,2.21-11S385.59,229.44,389.25,233.74Z"/><path class="cls-72" d="M389.2,233.76c3.65,4.27,2.67,9.14-2.19,10.89s-11.75-.31-15.39-4.57-2.67-9.14,2.19-10.89S385.56,229.49,389.2,233.76Z"/><path class="cls-73" d="M389.16,233.79c3.63,4.24,2.66,9.09-2.17,10.81s-11.69-.31-15.31-4.55S369,231,373.84,229.23,385.53,229.54,389.16,233.79Z"/><path class="cls-74" d="M389.11,233.81c3.61,4.22,2.65,9-2.16,10.74s-11.62-.31-15.23-4.53-2.65-9,2.16-10.74S385.5,229.59,389.11,233.81Z"/><path class="cls-75" d="M389.06,233.84c3.59,4.19,2.64,9-2.14,10.67s-11.56-.32-15.15-4.51-2.64-9,2.14-10.67S385.46,229.64,389.06,233.84Z"/><path class="cls-76" d="M389,233.86c3.58,4.17,2.63,8.91-2.12,10.6s-11.5-.32-15.07-4.49-2.63-8.91,2.12-10.6S385.43,229.7,389,233.86Z"/><path class="cls-77" d="M389,233.89c3.56,4.14,2.62,8.85-2.1,10.53s-11.43-.33-15-4.47-2.62-8.85,2.1-10.53S385.4,229.75,389,233.89Z"/><path class="cls-78" d="M388.91,233.91c3.54,4.12,2.61,8.8-2.09,10.46s-11.37-.33-14.91-4.44-2.61-8.8,2.09-10.46S385.37,229.8,388.91,233.91Z"/><path class="cls-79" d="M388.86,233.94c3.52,4.09,2.6,8.74-2.07,10.39S375.48,244,372,239.9s-2.6-8.74,2.07-10.39S385.34,229.85,388.86,233.94Z"/><path class="cls-80" d="M388.82,234c3.51,4.06,2.59,8.68-2.05,10.31s-11.25-.34-14.75-4.4-2.59-8.68,2.05-10.31S385.31,229.9,388.82,234Z"/><path class="cls-81" d="M388.77,234c3.49,4,2.58,8.62-2,10.24s-11.18-.34-14.67-4.38-2.58-8.62,2-10.24S385.28,229.95,388.77,234Z"/><path class="cls-82" d="M388.72,234c3.47,4,2.57,8.57-2,10.17s-11.12-.35-14.59-4.36-2.57-8.57,2-10.17S385.24,230,388.72,234Z"/><path class="cls-83" d="M388.67,234c3.46,4,2.56,8.51-2,10.1s-11.06-.35-14.51-4.34-2.56-8.51,2-10.1S385.21,230,388.67,234Z"/><path class="cls-84" d="M388.62,234.06c3.44,4,2.55,8.45-2,10s-11-.35-14.43-4.31-2.55-8.45,2-10S385.18,230.1,388.62,234.06Z"/><path class="cls-85" d="M388.57,234.09c3.42,3.93,2.54,8.39-2,10s-10.93-.36-14.36-4.29-2.54-8.39,2-10S385.15,230.15,388.57,234.09Z"/><path class="cls-86" d="M388.52,234.11c3.4,3.91,2.53,8.34-1.95,9.89s-10.87-.36-14.28-4.27-2.53-8.34,1.95-9.89S385.12,230.2,388.52,234.11Z"/><path class="cls-87" d="M388.48,234.14c3.39,3.88,2.52,8.28-1.93,9.81s-10.81-.37-14.2-4.25-2.52-8.28,1.93-9.81S385.09,230.25,388.48,234.14Z"/><path class="cls-88" d="M388.43,234.16c3.37,3.86,2.51,8.22-1.91,9.74s-10.75-.37-14.12-4.23-2.51-8.22,1.91-9.74S385.06,230.3,388.43,234.16Z"/><path class="cls-89" d="M388.38,234.19c3.35,3.83,2.5,8.16-1.9,9.67s-10.68-.37-14-4.21-2.5-8.16,1.9-9.67S385,230.35,388.38,234.19Z"/><path class="cls-90" d="M388.33,234.21c3.33,3.81,2.49,8.1-1.88,9.6s-10.62-.38-14-4.18-2.49-8.1,1.88-9.6S385,230.4,388.33,234.21Z"/><path class="cls-91" d="M388.28,234.24c3.32,3.78,2.48,8-1.86,9.53s-10.56-.38-13.88-4.16-2.48-8,1.86-9.53S385,230.45,388.28,234.24Z"/><path class="cls-92" d="M388.23,234.26c3.3,3.75,2.47,8-1.85,9.46s-10.5-.39-13.8-4.14-2.47-8,1.85-9.46S384.93,230.51,388.23,234.26Z"/><path class="cls-93" d="M388.18,234.29c3.28,3.73,2.46,7.93-1.83,9.39s-10.43-.39-13.72-4.12-2.46-7.93,1.83-9.39S384.9,230.56,388.18,234.29Z"/><path class="cls-94" d="M388.14,234.31c3.27,3.7,2.45,7.87-1.81,9.31s-10.37-.39-13.64-4.1-2.45-7.87,1.81-9.31S384.87,230.61,388.14,234.31Z"/><path class="cls-95" d="M388.09,234.33c3.25,3.68,2.45,7.82-1.79,9.24s-10.31-.4-13.56-4.08-2.45-7.82,1.79-9.24S384.84,230.66,388.09,234.33Z"/><path class="cls-96" d="M388,234.36c3.23,3.65,2.44,7.76-1.78,9.17s-10.25-.4-13.48-4.05-2.44-7.76,1.78-9.17S384.81,230.71,388,234.36Z"/><path class="cls-97" d="M388,234.38c3.21,3.63,2.43,7.7-1.76,9.1s-10.18-.41-13.4-4-2.43-7.7,1.76-9.1S384.78,230.76,388,234.38Z"/><path class="cls-98" d="M387.94,234.41c3.2,3.6,2.42,7.64-1.74,9s-10.12-.41-13.32-4-2.42-7.64,1.74-9S384.74,230.81,387.94,234.41Z"/><path class="cls-99" d="M387.89,234.43c3.18,3.57,2.41,7.58-1.72,9s-10.06-.41-13.24-4-2.41-7.58,1.72-9S384.71,230.86,387.89,234.43Z"/><path class="cls-100" d="M387.84,234.46c3.16,3.55,2.4,7.53-1.71,8.88s-10-.42-13.16-4-2.4-7.53,1.71-8.88S384.68,230.91,387.84,234.46Z"/><path class="cls-101" d="M387.79,234.48c3.14,3.52,2.39,7.47-1.69,8.81s-9.93-.42-13.08-3.95-2.39-7.47,1.69-8.81S384.65,231,387.79,234.48Z"/><path class="cls-102" d="M387.75,234.51c3.13,3.5,2.38,7.41-1.67,8.74s-9.87-.43-13-3.92-2.38-7.41,1.67-8.74S384.62,231,387.75,234.51Z"/><path class="cls-103" d="M387.7,234.53c3.11,3.47,2.37,7.35-1.66,8.67s-9.81-.43-12.92-3.9-2.37-7.35,1.66-8.67S384.59,231.06,387.7,234.53Z"/><path class="cls-104" d="M387.65,234.56c3.09,3.45,2.36,7.3-1.64,8.6s-9.74-.43-12.84-3.88-2.36-7.3,1.64-8.6S384.56,231.11,387.65,234.56Z"/><path class="cls-105" d="M387.6,234.58c3.08,3.42,2.35,7.24-1.62,8.53s-9.68-.44-12.76-3.86-2.35-7.24,1.62-8.53S384.53,231.16,387.6,234.58Z"/><path class="cls-106" d="M387.55,234.61c3.06,3.39,2.34,7.18-1.6,8.46s-9.62-.44-12.68-3.84-2.34-7.18,1.6-8.46S384.49,231.21,387.55,234.61Z"/><path class="cls-107" d="M387.5,234.63c3,3.37,2.33,7.12-1.59,8.38s-9.56-.45-12.6-3.82-2.33-7.12,1.59-8.38S384.46,231.26,387.5,234.63Z"/><path class="cls-108" d="M387.45,234.66c3,3.34,2.32,7.06-1.57,8.31s-9.49-.45-12.52-3.79-2.32-7.06,1.57-8.31S384.43,231.32,387.45,234.66Z"/><path class="cls-109" d="M387.41,234.68c3,3.32,2.31,7-1.55,8.24s-9.43-.45-12.44-3.77-2.31-7,1.55-8.24S384.4,231.37,387.41,234.68Z"/><path class="cls-110" d="M387.36,234.71c3,3.29,2.3,6.95-1.53,8.17s-9.37-.46-12.36-3.75-2.3-6.95,1.53-8.17S384.37,231.42,387.36,234.71Z"/><path class="cls-111" d="M387.31,234.73c3,3.27,2.29,6.89-1.52,8.1s-9.31-.46-12.28-3.73-2.29-6.89,1.52-8.1S384.34,231.47,387.31,234.73Z"/><path class="cls-112" d="M387.26,234.76c3,3.24,2.28,6.83-1.5,8s-9.24-.47-12.2-3.71-2.28-6.83,1.5-8S384.31,231.52,387.26,234.76Z"/><path class="cls-113" d="M387.21,234.78c2.94,3.21,2.27,6.78-1.48,8s-9.18-.47-12.12-3.68-2.27-6.78,1.48-8S384.28,231.57,387.21,234.78Z"/><path class="cls-114" d="M387.16,234.81c2.92,3.19,2.26,6.72-1.47,7.88s-9.12-.47-12-3.66-2.26-6.72,1.47-7.88S384.24,231.62,387.16,234.81Z"/><path class="cls-115" d="M387.11,234.83c2.9,3.16,2.25,6.66-1.45,7.81s-9.06-.48-12-3.64-2.25-6.66,1.45-7.81S384.21,231.67,387.11,234.83Z"/><path class="cls-116" d="M387.07,234.86c2.88,3.14,2.24,6.6-1.43,7.74s-9-.48-11.88-3.62-2.24-6.6,1.43-7.74S384.18,231.72,387.07,234.86Z"/><path class="cls-117" d="M387,234.88c2.87,3.11,2.23,6.55-1.41,7.67s-8.93-.49-11.8-3.6-2.23-6.55,1.41-7.67S384.15,231.77,387,234.88Z"/><path class="cls-118" d="M387,234.91c2.85,3.09,2.23,6.49-1.4,7.6s-8.87-.49-11.72-3.58-2.23-6.49,1.4-7.6S384.12,231.82,387,234.91Z"/><path class="cls-119" d="M386.92,234.93c2.83,3.06,2.22,6.43-1.38,7.53s-8.81-.49-11.64-3.55-2.22-6.43,1.38-7.53S384.09,231.87,386.92,234.93Z"/><path class="cls-120" d="M386.87,235c2.82,3,2.21,6.37-1.36,7.45s-8.74-.5-11.56-3.53-2.21-6.37,1.36-7.45S384.06,231.92,386.87,235Z"/><path class="cls-121" d="M386.82,235c2.8,3,2.2,6.31-1.34,7.38s-8.68-.5-11.48-3.51-2.2-6.31,1.34-7.38S384,232,386.82,235Z"/><path class="cls-122" d="M386.77,235c2.78,3,2.19,6.26-1.33,7.31s-8.62-.51-11.4-3.49-2.19-6.26,1.33-7.31S384,232,386.77,235Z"/><path class="cls-123" d="M386.73,235c2.76,3,2.18,6.2-1.31,7.24s-8.56-.51-11.32-3.47-2.18-6.2,1.31-7.24S384,232.07,386.73,235Z"/><path class="cls-10" d="M386.68,235.06c2.75,2.93,2.17,6.14-1.29,7.17s-8.49-.51-11.24-3.45-2.17-6.14,1.29-7.17S383.93,232.13,386.68,235.06Z"/></g><g class="cls-61"><path class="cls-62" d="M386.72,253.14c3.28,3.89,2.37,8.36-2,10S374,262.88,370.76,259s-2.37-8.36,2-10S383.43,249.25,386.72,253.14Z"/><path class="cls-63" d="M386.66,253.16c3.26,3.86,2.36,8.3-2,9.9s-10.57-.23-13.83-4.09-2.36-8.3,2-9.9S383.4,249.3,386.66,253.16Z"/><path class="cls-64" d="M386.61,253.19c3.24,3.84,2.35,8.23-2,9.82s-10.5-.23-13.74-4.07-2.35-8.23,2-9.82S383.37,249.35,386.61,253.19Z"/><path class="cls-65" d="M386.56,253.21c3.22,3.81,2.34,8.17-2,9.75s-10.43-.24-13.65-4-2.34-8.17,2-9.75S383.33,249.4,386.56,253.21Z"/><path class="cls-66" d="M386.5,253.24c3.2,3.78,2.32,8.11-2,9.67s-10.36-.24-13.56-4-2.32-8.11,2-9.67S383.3,249.46,386.5,253.24Z"/><path class="cls-67" d="M386.45,253.26c3.18,3.75,2.31,8-1.94,9.6s-10.29-.24-13.47-4-2.31-8,1.94-9.6S383.26,249.51,386.45,253.26Z"/><path class="cls-68" d="M386.39,253.29c3.16,3.72,2.3,8-1.93,9.52s-10.21-.24-13.38-4-2.3-8,1.93-9.52S383.23,249.56,386.39,253.29Z"/><path class="cls-69" d="M386.34,253.31c3.14,3.7,2.29,7.93-1.91,9.44s-10.14-.24-13.29-3.94-2.29-7.93,1.91-9.44S383.2,249.62,386.34,253.31Z"/><path class="cls-70" d="M386.28,253.34c3.12,3.67,2.27,7.86-1.89,9.37s-10.07-.25-13.19-3.92-2.27-7.86,1.89-9.37S383.16,249.67,386.28,253.34Z"/><path class="cls-71" d="M386.23,253.36c3.1,3.64,2.26,7.8-1.88,9.29s-10-.25-13.1-3.89-2.26-7.8,1.88-9.29S383.13,249.72,386.23,253.36Z"/><path class="cls-72" d="M386.18,253.39c3.08,3.61,2.25,7.74-1.86,9.22s-9.93-.25-13-3.86-2.25-7.74,1.86-9.22S383.1,249.78,386.18,253.39Z"/><path class="cls-73" d="M386.12,253.41c3.06,3.58,2.24,7.68-1.84,9.14s-9.86-.25-12.92-3.84-2.24-7.68,1.84-9.14S383.06,249.83,386.12,253.41Z"/><path class="cls-74" d="M386.07,253.44c3,3.56,2.22,7.62-1.82,9.07s-9.79-.26-12.83-3.81-2.22-7.62,1.82-9.07S383,249.88,386.07,253.44Z"/><path class="cls-75" d="M386,253.46c3,3.53,2.21,7.55-1.81,9s-9.72-.26-12.74-3.79-2.21-7.55,1.81-9S383,249.94,386,253.46Z"/><path class="cls-76" d="M386,253.49c3,3.5,2.2,7.49-1.79,8.91s-9.65-.26-12.65-3.76-2.2-7.49,1.79-8.91S383,250,386,253.49Z"/><path class="cls-77" d="M385.9,253.51c3,3.47,2.19,7.43-1.77,8.84s-9.58-.26-12.56-3.74-2.19-7.43,1.77-8.84S382.93,250,385.9,253.51Z"/><path class="cls-78" d="M385.85,253.54c3,3.44,2.17,7.37-1.75,8.76s-9.51-.27-12.47-3.71-2.17-7.37,1.75-8.76S382.89,250.09,385.85,253.54Z"/><path class="cls-79" d="M385.8,253.56c2.94,3.42,2.16,7.31-1.74,8.69s-9.44-.27-12.37-3.69-2.16-7.31,1.74-8.69S382.86,250.15,385.8,253.56Z"/><path class="cls-80" d="M385.74,253.59c2.92,3.39,2.15,7.24-1.72,8.61s-9.37-.27-12.28-3.66-2.15-7.24,1.72-8.61S382.82,250.2,385.74,253.59Z"/><path class="cls-81" d="M385.69,253.61c2.9,3.36,2.14,7.18-1.7,8.54s-9.3-.27-12.19-3.64-2.14-7.18,1.7-8.54S382.79,250.25,385.69,253.61Z"/><path class="cls-82" d="M385.63,253.64c2.88,3.33,2.12,7.12-1.68,8.46s-9.22-.28-12.1-3.61-2.12-7.12,1.68-8.46S382.76,250.31,385.63,253.64Z"/><path class="cls-83" d="M385.58,253.66c2.86,3.31,2.11,7.06-1.67,8.38s-9.15-.28-12-3.58-2.11-7.06,1.67-8.38S382.72,250.36,385.58,253.66Z"/><path class="cls-84" d="M385.52,253.69c2.84,3.28,2.1,7-1.65,8.31s-9.08-.28-11.92-3.56-2.1-7,1.65-8.31S382.69,250.41,385.52,253.69Z"/><path class="cls-85" d="M385.47,253.72c2.82,3.25,2.09,6.94-1.63,8.23s-9-.28-11.83-3.53-2.09-6.94,1.63-8.23S382.65,250.47,385.47,253.72Z"/><path class="cls-86" d="M385.42,253.74c2.8,3.22,2.07,6.87-1.61,8.16s-8.94-.29-11.74-3.51-2.07-6.87,1.61-8.16S382.62,250.52,385.42,253.74Z"/><path class="cls-87" d="M385.36,253.77c2.78,3.19,2.06,6.81-1.6,8.08s-8.87-.29-11.65-3.48-2.06-6.81,1.6-8.08S382.59,250.57,385.36,253.77Z"/><path class="cls-88" d="M385.31,253.79c2.75,3.17,2,6.75-1.58,8s-8.8-.29-11.56-3.46-2-6.75,1.58-8S382.55,250.63,385.31,253.79Z"/><path class="cls-89" d="M385.25,253.82c2.73,3.14,2,6.69-1.56,7.93s-8.73-.29-11.46-3.43-2-6.69,1.56-7.93S382.52,250.68,385.25,253.82Z"/><path class="cls-90" d="M385.2,253.84c2.71,3.11,2,6.63-1.54,7.85s-8.66-.3-11.37-3.41-2-6.63,1.54-7.85S382.49,250.73,385.2,253.84Z"/><path class="cls-91" d="M385.15,253.87c2.69,3.08,2,6.56-1.53,7.78s-8.59-.3-11.28-3.38-2-6.56,1.53-7.78S382.45,250.78,385.15,253.87Z"/><path class="cls-92" d="M385.09,253.89c2.67,3.05,2,6.5-1.51,7.7s-8.52-.3-11.19-3.35-2-6.5,1.51-7.7S382.42,250.84,385.09,253.89Z"/><path class="cls-93" d="M385,253.92c2.65,3,2,6.44-1.49,7.63s-8.45-.3-11.1-3.33-2-6.44,1.49-7.63S382.38,250.89,385,253.92Z"/><path class="cls-94" d="M385,253.94c2.63,3,2,6.38-1.47,7.55s-8.38-.31-11-3.3-2-6.38,1.47-7.55S382.35,250.94,385,253.94Z"/><path class="cls-95" d="M384.93,254c2.61,3,2,6.32-1.46,7.48s-8.31-.31-10.92-3.28-2-6.32,1.46-7.48S382.32,251,384.93,254Z"/><path class="cls-96" d="M384.87,254c2.59,2.94,1.95,6.25-1.44,7.4s-8.23-.31-10.83-3.25-1.95-6.25,1.44-7.4S382.28,251,384.87,254Z"/><path class="cls-97" d="M384.82,254c2.57,2.91,1.94,6.19-1.42,7.32s-8.16-.31-10.74-3.23-1.94-6.19,1.42-7.32S382.25,251.1,384.82,254Z"/><path class="cls-98" d="M384.77,254c2.55,2.89,1.92,6.13-1.4,7.25s-8.09-.32-10.64-3.2-1.92-6.13,1.4-7.25S382.21,251.16,384.77,254Z"/><path class="cls-99" d="M384.71,254.07c2.53,2.86,1.91,6.07-1.39,7.17s-8-.32-10.55-3.18-1.91-6.07,1.39-7.17S382.18,251.21,384.71,254.07Z"/><path class="cls-100" d="M384.66,254.09c2.51,2.83,1.9,6-1.37,7.1s-8-.32-10.46-3.15-1.9-6,1.37-7.1S382.15,251.26,384.66,254.09Z"/><path class="cls-101" d="M384.6,254.12c2.49,2.8,1.88,5.95-1.35,7s-7.88-.32-10.37-3.12-1.88-5.95,1.35-7S382.11,251.32,384.6,254.12Z"/><path class="cls-102" d="M384.55,254.14c2.47,2.77,1.87,5.88-1.34,6.95s-7.81-.33-10.28-3.1-1.87-5.88,1.34-6.95S382.08,251.37,384.55,254.14Z"/><path class="cls-103" d="M384.49,254.17c2.45,2.75,1.86,5.82-1.32,6.87s-7.74-.33-10.19-3.07-1.86-5.82,1.32-6.87S382,251.42,384.49,254.17Z"/><path class="cls-104" d="M384.44,254.19c2.43,2.72,1.85,5.76-1.3,6.79s-7.67-.33-10.1-3-1.85-5.76,1.3-6.79S382,251.47,384.44,254.19Z"/><path class="cls-105" d="M384.39,254.22c2.41,2.69,1.83,5.7-1.28,6.72s-7.6-.33-10-3-1.83-5.7,1.28-6.72S382,251.53,384.39,254.22Z"/><path class="cls-106" d="M384.33,254.24c2.39,2.66,1.82,5.64-1.27,6.64s-7.53-.34-9.92-3-1.82-5.64,1.27-6.64S381.94,251.58,384.33,254.24Z"/><path class="cls-107" d="M384.28,254.27c2.37,2.63,1.81,5.57-1.25,6.57s-7.46-.34-9.82-3-1.81-5.57,1.25-6.57S381.91,251.63,384.28,254.27Z"/><path class="cls-108" d="M384.22,254.29c2.35,2.61,1.8,5.51-1.23,6.49s-7.39-.34-9.73-2.95-1.8-5.51,1.23-6.49S381.87,251.69,384.22,254.29Z"/><path class="cls-109" d="M384.17,254.32c2.33,2.58,1.78,5.45-1.21,6.42s-7.31-.34-9.64-2.92-1.78-5.45,1.21-6.42S381.84,251.74,384.17,254.32Z"/><path class="cls-110" d="M384.11,254.34c2.31,2.55,1.77,5.39-1.2,6.34s-7.24-.34-9.55-2.9-1.77-5.39,1.2-6.34S381.81,251.79,384.11,254.34Z"/><path class="cls-111" d="M384.06,254.37c2.29,2.52,1.76,5.33-1.18,6.26s-7.17-.35-9.46-2.87-1.76-5.33,1.18-6.26S381.77,251.85,384.06,254.37Z"/><path class="cls-112" d="M384,254.39c2.27,2.49,1.75,5.26-1.16,6.19s-7.1-.35-9.37-2.84-1.75-5.26,1.16-6.19S381.74,251.9,384,254.39Z"/><path class="cls-113" d="M384,254.42c2.25,2.47,1.73,5.2-1.14,6.11s-7-.35-9.28-2.82-1.73-5.2,1.14-6.11S381.71,252,384,254.42Z"/><path class="cls-114" d="M383.9,254.44c2.23,2.44,1.72,5.14-1.13,6s-7-.35-9.19-2.79-1.72-5.14,1.13-6S381.67,252,383.9,254.44Z"/><path class="cls-115" d="M383.84,254.47c2.21,2.41,1.71,5.08-1.11,6s-6.89-.36-9.1-2.77-1.71-5.08,1.11-6S381.64,252.06,383.84,254.47Z"/><path class="cls-116" d="M383.79,254.49c2.19,2.38,1.7,5-1.09,5.89s-6.82-.36-9-2.74-1.7-5,1.09-5.89S381.6,252.11,383.79,254.49Z"/><path class="cls-117" d="M383.73,254.52c2.17,2.35,1.68,5-1.07,5.81s-6.75-.36-8.91-2.72-1.68-5,1.07-5.81S381.57,252.16,383.73,254.52Z"/><path class="cls-118" d="M383.68,254.54c2.14,2.33,1.67,4.89-1.06,5.73s-6.68-.36-8.82-2.69-1.67-4.89,1.06-5.73S381.54,252.22,383.68,254.54Z"/><path class="cls-119" d="M383.63,254.57c2.12,2.3,1.66,4.83-1,5.66s-6.61-.37-8.73-2.67-1.66-4.83,1-5.66S381.5,252.27,383.63,254.57Z"/><path class="cls-120" d="M383.57,254.59c2.1,2.27,1.65,4.77-1,5.58s-6.54-.37-8.64-2.64-1.65-4.77,1-5.58S381.47,252.32,383.57,254.59Z"/><path class="cls-121" d="M383.52,254.62c2.08,2.24,1.63,4.71-1,5.51s-6.47-.37-8.55-2.61-1.63-4.71,1-5.51S381.43,252.38,383.52,254.62Z"/><path class="cls-122" d="M383.46,254.64c2.06,2.21,1.62,4.65-1,5.43s-6.4-.37-8.46-2.59-1.62-4.65,1-5.43S381.4,252.43,383.46,254.64Z"/><path class="cls-123" d="M383.41,254.67c2,2.19,1.61,4.58-1,5.35s-6.32-.38-8.37-2.56-1.61-4.58,1-5.35S381.37,252.48,383.41,254.67Z"/><path class="cls-10" d="M383.36,254.69c2,2.16,1.6,4.52-1,5.28s-6.25-.38-8.28-2.54-1.6-4.52,1-5.28S381.33,252.54,383.36,254.69Z"/></g><path class="cls-4" d="M362.33,231.83c1.83,2.17,1.33,4.67-1.13,5.57a7.59,7.59,0,0,1-7.78-2.3c-1.83-2.17-1.33-4.67,1.13-5.57A7.59,7.59,0,0,1,362.33,231.83Z"/><path class="cls-4" d="M399.85,218.14c1.83,2.17,1.33,4.67-1.13,5.57a7.59,7.59,0,0,1-7.78-2.3c-1.83-2.17-1.33-4.67,1.13-5.57A7.59,7.59,0,0,1,399.85,218.14Z"/><path class="cls-4" d="M391.47,230.78c3.8,4.51,2.75,9.68-2.35,11.56s-12.32-.26-16.13-4.77-2.75-9.68,2.35-11.56S387.67,226.27,391.47,230.78Z"/><path class="cls-3" d="M507.23,315.53c-.35,9.27-1.15,16.36-1.08,23.48.38,37.78,6.11,42.75,6.84,51.59.88,10.51,3.6,23.83,3.6,25.51s5.11,49.54,4.43,59.27c-.34,4.9,11.44,3.77,11.79,1.17,1-7.77,7.74-42.69,8.32-53s-5.61-31-6.39-36.93,5.71-31.88,10.19-37.15c11.38-13.41,19.25-21.54,16-38.35S507.23,315.53,507.23,315.53Z"/><path class="cls-3" d="M507.23,315.53c-.35,9.27-1.15,16.36-1.08,23.48.38,37.78,6.11,42.75,6.84,51.59.88,10.51,3.6,23.83,3.6,25.51s5.11,49.54,4.43,59.27c-.34,4.9,11.44,3.77,11.79,1.17,1-7.77,7.74-42.69,8.32-53s-10.67-29.11-11.45-35.09,10.78-33.72,15.25-39c11.38-13.41,19.25-21.54,16-38.35S507.23,315.53,507.23,315.53Z"/><polygon class="cls-124" points="453.61 440.32 453.7 532.18 379.65 505.12 379.56 413.26 453.61 440.32"/><polygon class="cls-125" points="453.61 440.32 453.7 532.18 526.71 505.53 526.62 414.12 453.61 440.32"/><polygon class="cls-2" points="453.65 440.32 379.61 413.26 452.62 387.06 526.67 414.12 453.65 440.32"/><path class="cls-3" d="M395,265.27c-7,.43-9.41-1.34-12.54-1.79s-6.19-3.5-7.76-3.5-1.25,1.57,1.49,4.31-3.41,3.92-6.64,2.74-6.9-3.53-7.73-2.06.94,4.91,3.55,8.78,4.49,6.48,8.78,5.75,19.87-5.44,21.85-4.66S395,265.27,395,265.27Z"/><g class="cls-126"><path class="cls-55" d="M364.93,265.09c5,5,9.45,7.24,14.16,5.52s17.28-4.52,17.28-4.52l4.27,12.15-40.87,10.87-8.88-23.41,10.66-4.18Z"/></g><path class="cls-127" d="M490.16,400.78c-10,5.8-10.59,11.67.92,14.86S508,420.81,508,420.81l18.65-6.69Z"/><path class="cls-1" d="M574.76,424.29c7.49,2.61,13.62,15.14,13.27,23.7-.14,3.33-3.11,13.9,1.4,12.64,6.44-1.8,10.88-16.44,9.88-24.44-.63-5.07-.55-3.69,2.64-7.59,3.42-4.18,3-7.2-3.8-8.53-6.46-1.27-18.4-6-18.4-6l-6.68,3.46Z"/><g class="cls-128"><path class="cls-13" d="M597.78,427.46c-1.35,2.79-1.57,5.4-2,6.69-1.42,4.12-3,15.72-6.54,22.16-4.39,7.88,8.21,7.32,9.24,8.35s3.56-5.57,3.56-5.57l7.18-25.9Z"/></g><path class="cls-3" d="M546.51,302.84c18.6,21.57-30.67,90.9-23.51,91.69s11.45-1.72,29.82,6,22.47,11.75,26.94,13.6c-5,2.61-5,10.18-5,10.18-3.3-1.43-40.81-8-53.5-10.37s-20.27-3.86-24.68-8.28c-9.09-9.09,9.57-66.64,9.57-66.64Z"/><g class="cls-129"><path class="cls-55" d="M547.39,299c15.1,35.73-10.63,63.6-13.81,68.16s-3.55,4-7.58,5.79-11.07,2.74-12.08,4.12-6.42,21.2-5.23,23c2,3,10,11.21,21.84,13.6s45.37,8.44,45.37,8.44l20,35.59-136-35.59,5.59-87.86Z"/></g><path class="cls-1" d="M443.42,249.93c-8.6-.85-8.29,4.48-7.35,7.3s16,3.87,25.82,6.58,18.13,3,20.28.84,8-11.81,8-11.81L482,237.37s-4.17,12.09-7.86,12.65C469.47,250.72,443.42,249.93,443.42,249.93Z"/><g class="cls-130"><path class="cls-24" d="M435.62,251.35c4.38-.66,7.23-1.21,14.91.37s24.81,4.05,26.5,2.37,9.33-14.89,9.33-14.89l28.94,11.44-25.07,35.12-61.35-11.18Z"/></g><path class="cls-3" d="M474.93,208.37s1.07-.31,3.77-3.93c1.54-2.06-.24-10.68,0-15s8.32-8.84,10.52-5.74,8.68,14.29,11.92,14.47,5.2.5,7.45,9.39a7.39,7.39,0,0,1-12.06,7.48c-5.33-4.69-15.8-7-20.51-7Z"/><g class="cls-131"><path class="cls-55" d="M480.54,191.34c3.91,4.9,1.17,14.63-4.53,16.71s32.24,13.8,32.24,13.8l6.07-15.19s-12.08-1.12-17.3-3.86c-8.74-4.59-11.55-22.56-11.55-22.56l-6.06-.51-5.25,5.81Z"/></g><path class="cls-1" d="M395,265.27c4.11-.36,25.09-8.14,36.32-10.23s14.68-13.18,19.14-18.94,5.14-16.57,13-21.61,12.2-6.17,16.19-8.3c2.92-1.55,13.74.12,20-1.54,1.71-.45.86-6.33,2.28-6.33,6.63,0,14,3.49,17.91,8.67s14.57,2.27,16.15,13c2.28,15.5,5.78,36.62,10.66,47.87,4,9.11,17.14,14,18.82,50.48.59,12.74,6,31.51,6,31.51-2.08,11.76-37.41,19.24-46.88,22.14-9,2.75-28.28,1-27.13-4.08A432.3,432.3,0,0,0,508,285.87c.23-8.84-1.67-17.35-9.2-24.88-1.94-1.94-10.27-1.42-14.16-6.9s-1.63-12.38-6-17.56-5.5-5.62-7.09-2.59-11.6,17.21-16.71,22.33-9.08,8.28-10.37,9.58-14.95,3.19-20.45,4.55c-6.76,1.67-19,3.94-26.13,5.21C392.88,276.51,390.85,265.63,395,265.27Z"/><g class="cls-132"><polygon class="cls-13" points="469.56 210.39 469.56 210.39 469.56 210.39 469.56 210.39"/><path class="cls-24" d="M396.37,266.09c5-1.15,31.88-8.64,38.8-10s16.64-17.77,18.26-20.07,8.07-18.15,13.68-21.13a62.45,62.45,0,0,0,11.23-8.25l14.15-6h0c16.5,10.68,6.73,19.54,9.22,29,4,15.14,24.9,17.74,32.92,44.21,11.6,38.25-24,21.6-20.85,108.57.32,9,6-8.58-6.75-3.21-9.72,4.09,1.79-60.56,1.79-78.61,0-13.8-13.6-21.73-36.6-19.75-34.17,3-102.47,13.52-102.47,13.52S391.38,267.25,396.37,266.09Z"/></g><path class="cls-4" d="M466.05,174.88c-7.29-6-7.06-10.14-4.72-14.56,2.67-5,13.61-16.53,27.91-12.55s11.92,5.32,19.94,8.14,21.72,2.11,24.55,8.94c11.85,28.62,13.35,12,27.55,22.8,10.31,7.85,13.22,24.83,3.33,25.91-16.88,1.85-10.37,13.56-19.89,20.38-7.81,5.6-23,.84-31.88-22.44-2-5.38-18-2.1-22.12-6.35-5.61-5.75-5.12-7.73-6.62-12.24C482.7,188.74,467.94,176.43,466.05,174.88Z"/><g class="cls-133"><path class="cls-134" d="M464.72,170.13c-2.46.75-4.39-6,1.85-7.28,7.26-1.51,5.52,3.68,13.61,6.27s5.09,24.2,14.5,25.14c17.72,1.77,29.33,9.56,29.71,18.65.15,3.69-2.25,19.92,21.51,32.25,4.15,2.15-74.66-35.77-74.66-35.77l-2.48-32.13Z"/><path class="cls-135" d="M466.05,174.88c-9-10.43-4.39-14.58-1.66-16.54,24.36-17.5,40.87,14.19,45,11.63,14.65-9.14,23.21,4.51,24.36-5.11,1.5-12.5-17.48-40.72-17.48-40.72l-64.6,32-4.46,13.23s9,8,11.3,8.4S466.05,174.88,466.05,174.88Z"/></g><path class="cls-3" d="M477.79,178.48c1.19,2.12,2.79,5.21,1.22,7.85,3.29,3.12,4.09,8.29,3.75,8.48-5,2.73-6.27,3.22-8.2,3.5-4.13.6-7.82-11.85-8.38-14.18-.89-3.71.73-4.41.73-8.16,0-2.13-2.19-5.84-2.19-5.84,2.87-1.8,3.43-1.49,7.76,6.64C473.52,178.74,474.16,172,477.79,178.48Z"/><g class="cls-136"><path class="cls-55" d="M482.55,203.82c-7-2.5-18.45-18.4-12.51-26,1.34-1.7-3.13-1.87-5.32-7.71-1.81-4.83-.12-10.38-1.74-11.83l10.53-3.68C474.19,154.54,515.87,215.72,482.55,203.82Z"/></g><path class="cls-38" d="M474.45,181.11c-.71-3.72.74-4.17,1.66-2.95s2.84,7.16.27,6.34C475.25,184.15,474.63,182.08,474.45,181.11Z"/><path class="cls-13" d="M608.6,429.25c-1.77-3.13-6.18,3.67-5.38,4.47C605.13,435.62,609.36,430.6,608.6,429.25Z"/><path class="cls-1" d="M598.41,432c1.18.8,3.55,1.23,5.31,2.08s5.65-4.13,4.74-5c-1.21-1.21-4.74-5.9-6.32-6.81S595.09,429.71,598.41,432Z"/><path class="cls-137" d="M233.58,273.52s36-14.2,39.67-16.09,17.91-2.48,21,17.48,7.36,46.5,37.5,42.21c31.33-4.46,51.15,8.28,53,23.07,3,23.84-18.73,26.29-43.45,35.58-23,8.62-21.09,7.84-21.09,7.84S343.78,372.56,330,353c-8.38-11.94-26.25-6.43-46.4-12.44-29.8-8.88-28.37-40.87-32.5-53.74C247.43,275.26,239.14,272.07,233.58,273.52Z"/><g class="cls-138"><path class="cls-10" d="M280.13,258.48c-12.2,4.81-24.53,9.22-36.73,14a15.85,15.85,0,0,0-4.21-.21c12.1-5.1,24.33-9.84,36.43-14.94A21.07,21.07,0,0,1,280.13,258.48Z"/><path class="cls-10" d="M283.25,263c-11.27,4.2-22.81,7.58-34,11.92a10.55,10.55,0,0,0-3-1.67c11.21-4.48,22.75-8,34-12.37A13.39,13.39,0,0,1,283.25,263Z"/><path class="cls-10" d="M274.44,272.37c-7.55,2.44-10,3-21.22,7.23a14.49,14.49,0,0,0-2.05-2.84c11.21-4.26,13.72-4.85,21.31-7.31A15.18,15.18,0,0,1,274.44,272.37Z"/><path class="cls-10" d="M293.47,280.19c-11.9,4.49-23.88,8.77-35.78,13.25-.34-1.77-.52-2.64-.92-4.32,12-4.4,24.06-8.52,36-12.92C293.11,277.77,293.23,278.57,293.47,280.19Z"/><path class="cls-10" d="M294.47,287.56c-11.8,4.7-23.62,9.35-35.42,14.05-.29-1.86-.44-2.79-.74-4.62,11.85-4.57,23.75-9,35.6-13.58C294.14,285.07,294.24,285.9,294.47,287.56Z"/><path class="cls-10" d="M293.88,295.7c-11.16,4.69-22.25,9.53-33.42,14.21-.35-1.83-.51-2.77-.82-4.63l33.44-13.69C293.36,293.25,293.52,294.08,293.88,295.7Z"/><path class="cls-10" d="M298,301.85c-11.89,5.26-23.69,10.72-35.58,16-.52-1.69-.74-2.57-1.16-4.35,11.81-5.1,23.56-10.33,35.37-15.43A29.13,29.13,0,0,0,298,301.85Z"/><path class="cls-10" d="M292.15,312.27c-9,4.25-17.88,8.47-26.91,12.56a27.12,27.12,0,0,1-1.75-3.78c8.88-4,17.68-8.08,26.49-12.19A20.43,20.43,0,0,0,292.15,312.27Z"/></g><g class="cls-138"><path class="cls-10" d="M355.42,319.5c-15.49,5.58-29.38,14.72-44.76,20.61a47.24,47.24,0,0,0-6.54.08c15.79-6.48,30.64-14.8,46.43-21.28A33.79,33.79,0,0,1,355.42,319.5Z"/><path class="cls-10" d="M360.66,322.94C347.1,329,334,336,320.35,341.71a29.89,29.89,0,0,0-5.12-1.15c13.93-5.86,27.2-13,41-19.14A32.33,32.33,0,0,1,360.66,322.94Z"/><path class="cls-10" d="M352.86,333.51c-9.76,4.9-14.22,7.68-25.18,11.63a21.32,21.32,0,0,0-3.82-2.12c10.89-3.92,15.41-6.78,25.22-11.75A26,26,0,0,1,352.86,333.51Z"/><path class="cls-10" d="M380.28,336.36c-15.15,5.49-29.19,13.54-44.25,19.24a18.69,18.69,0,0,0-1.56-3.25c14.92-5.68,28.74-13.84,43.75-19.29A21.85,21.85,0,0,1,380.28,336.36Z"/><path class="cls-10" d="M382.47,342.61c-15.34,5.52-29.72,13.34-45,19.06a20.36,20.36,0,0,0-.61-3.42c15.17-5.72,29.38-13.68,44.62-19.19A17.24,17.24,0,0,1,382.47,342.61Z"/><path class="cls-10" d="M380.38,349.83c-14.4,5.79-28.52,12.18-43,17.84a20.93,20.93,0,0,0,.22-3.32c14.61-5.43,28.44-12.69,43-18.14A15.09,15.09,0,0,1,380.38,349.83Z"/><path class="cls-10" d="M380.08,355.38c-14.94,5.29-29.19,12.29-44.08,17.73a18.38,18.38,0,0,0,.94-2.95c15.15-5.58,29.6-12.87,44.81-18.29A15.92,15.92,0,0,1,380.08,355.38Z"/><path class="cls-10" d="M364.59,365.15c-10.35,4.24-20.64,8.42-31.11,12.37a13.17,13.17,0,0,0,1.53-2.31c10.92-4.16,21.65-8.61,32.44-13.1A19.82,19.82,0,0,1,364.59,365.15Z"/></g></g></g></g></svg>